<?xml version="1.0" standalone="no"?>
<!DOCTYPE svg PUBLIC "-//W3C//DTD SVG 1.1//EN" "http://www.w3.org/Graphics/SVG/1.1/DTD/svg11.dtd" >
<svg>
<metadata>
Created by FontForge 20090914 at Tue Jun 21 11:20:02 2022
 By www-data
Copyright 2014 Indian Type Foundry. All rights reserved.
</metadata>
<defs>
<font id="Teko-Medium" horiz-adv-x="210" >
  <font-face 
    font-family="Teko Medium"
    font-weight="500"
    font-stretch="normal"
    units-per-em="1000"
    panose-1="2 0 0 0 0 0 0 0 0 0"
    ascent="800"
    descent="-200"
    x-height="491"
    cap-height="631"
    bbox="-439 -418 1836 886"
    underline-thickness="50"
    underline-position="-50"
    unicode-range="U+000D-U+FB02"
  />
<missing-glyph horiz-adv-x="510" 
d="M251 302h-4l-100 -209h-60l134 260l-134 255h60l105 -206h4l100 206h60l-135 -261l135 -254h-60zM51 652v-603h400v603h-400zM0 0v701h502v-701h-502z" />
    <glyph glyph-name=".notdef" horiz-adv-x="510" 
d="M251 302h-4l-100 -209h-60l134 260l-134 255h60l105 -206h4l100 206h60l-135 -261l135 -254h-60zM51 652v-603h400v603h-400zM0 0v701h502v-701h-502z" />
    <glyph glyph-name="NULL" horiz-adv-x="0" 
 />
    <glyph glyph-name="NULL" horiz-adv-x="0" 
 />
    <glyph glyph-name="CR" unicode="&#xd;" horiz-adv-x="0" 
 />
    <glyph glyph-name="space" unicode=" " horiz-adv-x="161" 
 />
    <glyph glyph-name="exclam" unicode="!" horiz-adv-x="234" 
d="M56 0v135h121v-135h-121zM50 631h134l-20 -419h-94z" />
    <glyph glyph-name="quotedbl" unicode="&#x22;" horiz-adv-x="333" 
d="M193 631h103v-236h-103v236zM37 631h103v-236h-103v236z" />
    <glyph glyph-name="numbersign" unicode="#" horiz-adv-x="549" 
d="M519 394h-75l-31 -158h69v-81h-84l-30 -155h-99l30 155h-110l-30 -155h-99l30 155h-60v81h75l31 158h-69v81h84l30 155h99l-30 -155h110l30 155h99l-30 -155h60v-81zM314 236l31 158h-110l-31 -158h110z" />
    <glyph glyph-name="dollar" unicode="$" horiz-adv-x="399" 
d="M180 362h79c70 0 105 -32.667 105 -98v-165c0 -66 -36.333 -99 -109 -99h-1v-79h-109v79c-71.333 0.666992 -107 33.667 -107 99v87h115v-71c0 -10.667 2 -17.834 6 -21.501s11.667 -5.5 23 -5.5h38c10.667 0 18 1.83301 22 5.5s6 10.834 6 21.501v135
c0 10.667 -2 17.834 -6 21.501s-11.333 5.5 -22 5.5h-81c-68.667 0 -103 33.333 -103 100v155c0 66 36 99 108 99h1v79h109v-79c72 0 108 -33 108 -99v-88h-116v72c0 10.667 -2 17.834 -6 21.501s-11.333 5.5 -22 5.5h-38c-11.333 0 -19 -1.83301 -23 -5.5
s-6 -10.834 -6 -21.501v-127c0 -10.667 2 -17.834 6 -21.501s11.667 -5.5 23 -5.5z" />
    <glyph glyph-name="percent" unicode="%" horiz-adv-x="716" 
d="M469 631h90l-312 -631h-89zM595 98v155c0 10 -1.66699 16.667 -5 20s-10 5 -20 5h-20c-10 0 -16.5 -1.66699 -19.5 -5s-4.5 -10 -4.5 -20v-155c0 -10 1.5 -16.667 4.5 -20s9.5 -5 19.5 -5h20c10 0 16.667 1.66699 20 5s5 10 5 20zM190 377v156c0 10 -1.5 16.667 -4.5 20
s-9.5 5 -19.5 5h-20c-10 0 -16.667 -1.83301 -20 -5.5s-5 -10.167 -5 -19.5v-156c0 -9.33301 1.66699 -15.666 5 -18.999s10 -5 20 -5h20c10 0 16.5 1.66699 19.5 5s4.5 9.66602 4.5 18.999zM688 267v-183c0 -56 -29.667 -84 -89 -84h-77c-59.333 0 -89 28 -89 84v183
c0 28 7 49 21 63s36.667 21 68 21h77c59.333 0 89 -28 89 -84zM283 547v-184c0 -55.333 -29.667 -83 -89 -83h-77c-59.333 0 -89 27.667 -89 83v184c0 56 29.667 84 89 84h77c59.333 0 89 -28 89 -84z" />
    <glyph glyph-name="ampersand" unicode="&#x26;" horiz-adv-x="509" 
d="M369 0l-224 0.000976562c-72.667 0 -109 33 -109 99v90c0 25.333 5 45.5 15 60.5s28.333 30.5 55 46.5l26 18c-16 19.333 -28 34.666 -36 45.999c-22 30 -33 58 -33 84v88c0 66 36.333 99 109 99h103c71.333 0 107 -33 107 -99v-85c0 -34.667 -6.66699 -61.667 -20 -81
c-14 -21.333 -42.667 -45.333 -86 -72l113 -133v75h92v-137c0 -14 -2 -27 -6 -39l82 -95h-118l-34 38c-11.333 -2 -23.333 -3 -36 -3zM176 521.001v-83.001c0 -20 12 -43.667 36 -71c24 16 39.833 28.833 47.5 38.5s11.5 22.834 11.5 39.501v76
c0 10.667 -1.83301 17.834 -5.5 21.501s-11.167 5.5 -22.5 5.5h-39c-11.333 0 -18.833 -1.83301 -22.5 -5.5s-5.5 -10.834 -5.5 -21.501zM175 84h159l-139 158c-24 -14.667 -38.167 -25.667 -42.5 -33s-6.5 -17.666 -6.5 -30.999v-67c0 -10.667 2 -17.834 6 -21.501
s11.667 -5.5 23 -5.5z" />
    <glyph glyph-name="quotesingle" unicode="'" horiz-adv-x="185" 
d="M37 631h111v-236h-111v236z" />
    <glyph glyph-name="parenleft" unicode="(" horiz-adv-x="285" 
d="M45 410c0 124.667 20.167 220.332 60.5 286.999s99.5 100 177.5 100h13v-96l-12 -1c-82.667 -4 -124 -100 -124 -288v-200c0 -188 41.333 -284 124 -288l12 -1v-96h-13c-78 0 -137.167 33.333 -177.5 100s-60.5 162.334 -60.5 287.001v196z" />
    <glyph glyph-name="parenright" unicode=")" horiz-adv-x="285" 
d="M239 214c0 -124.667 -20.167 -220.332 -60.5 -286.999s-99.5 -100 -177.5 -100h-13v96l12 1c82.667 4 124 100 124 288v200c0 188 -41.333 284 -124 288l-12 1v96h13c78 0 137.167 -33.333 177.5 -100s60.5 -162.334 60.5 -287.001v-196z" />
    <glyph glyph-name="asterisk" unicode="*" horiz-adv-x="341" 
d="M126 601l0.000976562 30.001h89v-31c0 -24.667 -2.66699 -46.667 -8 -66c18.667 12 39.334 21.333 62.001 28l28 9l28 -85c-44.667 -13.333 -76.334 -20.666 -95.001 -21.999c14.667 -10.667 30 -27 46 -49l18 -25l-72 -53c-24.667 34 -41.667 62 -51 84
c-8.66699 -22 -25.667 -50 -51 -84l-73 53c27.333 36 48.666 60.667 63.999 74c-22.667 1.33301 -44.667 5.66602 -66 12.999l-29 9l28 85l29 -9c22 -6.66699 42.333 -16.334 61 -29.001c-5.33301 24 -8 46.667 -8 68z" />
    <glyph glyph-name="plus" unicode="+" horiz-adv-x="439" 
d="M418 359v-89h-143v-152h-111v152h-143v89h143v152h111v-152h143z" />
    <glyph glyph-name="comma" unicode="," horiz-adv-x="190" 
d="M34 135h122v-72l-84 -205h-38v277z" />
    <glyph glyph-name="hyphen" unicode="-" horiz-adv-x="323" 
d="M40 255v83h243v-83h-243z" />
    <glyph glyph-name="period" unicode="." horiz-adv-x="190" 
d="M34 0v135h122v-135h-122z" />
    <glyph glyph-name="slash" unicode="/" horiz-adv-x="396" 
d="M279 700h101l-283 -803h-101z" />
    <glyph glyph-name="zero" unicode="0" horiz-adv-x="423" 
d="M263 115v401c0 10.667 -2 17.834 -6 21.501s-11.667 5.5 -23 5.5h-46c-10.667 0 -18 -1.83301 -22 -5.5s-6 -10.834 -6 -21.501v-401c0 -10.667 2 -17.834 6 -21.501s11.333 -5.5 22 -5.5h46c11.333 0 19 1.83301 23 5.5s6 10.834 6 21.501zM378 532v-433
c0 -66 -36.333 -99 -109 -99h-116c-72.667 0 -109 33 -109 99v433c0 66 36.333 99 109 99h116c72.667 0 109 -33 109 -99z" />
    <glyph glyph-name="one" unicode="1" horiz-adv-x="260" 
d="M212 631v-631h-115v543h-78v88h193z" />
    <glyph glyph-name="two" unicode="2" horiz-adv-x="369" 
d="M139 516v-94h-115v110c0 66 36.333 99 109 99h96c73.333 0 110 -33 110 -99v-71c0 -49.333 -15 -97.333 -45 -144l-131 -229h179v-88h-315v83l163 264c23.333 35.333 35 74 35 116v53c0 10.667 -2 17.834 -6 21.501s-11.333 5.5 -22 5.5h-29
c-11.333 0 -19 -1.83301 -23 -5.5s-6 -10.834 -6 -21.501z" />
    <glyph glyph-name="three" unicode="3" horiz-adv-x="390" 
d="M143 516v-85.002h-115v101c0 66 36.333 99 109 99h101c72.667 0 109 -33 109 -99v-135c0 -41.333 -14 -66.666 -42 -75.999c28 -9.33301 42 -33.333 42 -72v-150c0 -66 -36.333 -99 -109 -99h-101c-72.667 0 -109 33 -109 99v100h115v-84c0 -10.667 2 -17.834 6 -21.501
s11.333 -5.5 22 -5.5h34c10.667 0 18 1.83301 22 5.5s6 10.834 6 21.501v135c0 10.667 -1.83301 18 -5.5 22s-11.167 6 -22.5 6h-77v84h77c10.667 0 18 1.83301 22 5.5s6 10.834 6 21.501v127c0 10.667 -2 17.834 -6 21.501s-11.333 5.5 -22 5.5h-34
c-10.667 0 -18 -1.83301 -22 -5.5s-6 -10.834 -6 -21.501z" />
    <glyph glyph-name="four" unicode="4" horiz-adv-x="405" 
d="M405 211v-89h-60v-122h-109v122h-229v98l198 411h115l-208 -420h124v122h109v-122h60z" />
    <glyph glyph-name="five" unicode="5" horiz-adv-x="399" 
d="M158 401l98 -0.000976562c72.667 0 109 -33 109 -99v-203c0 -66 -36.333 -99 -109 -99h-107c-72.667 0 -109 33 -109 99v108h116v-92c0 -10.667 2 -17.834 6 -21.501s11.333 -5.5 22 -5.5h38c11.333 0 19 1.83301 23 5.5s6 10.834 6 21.501v171
c0 10.667 -2 17.834 -6 21.501s-11.667 5.5 -23 5.5h-178v318h317v-88h-203v-142z" />
    <glyph glyph-name="six" unicode="6" horiz-adv-x="414" 
d="M158 367h109c72.667 0 109 -33 109 -99v-169c0 -66 -36.333 -99 -109 -99h-114c-72.667 0 -109 33 -109 99v433c0 66 36.333 99 109 99h109c72.667 0 109 -33 109 -99v-97h-113v81c0 10.667 -2 17.834 -6 21.501s-11.333 5.5 -22 5.5h-44
c-10.667 0 -18 -1.83301 -22 -5.5s-6 -10.834 -6 -21.501v-149zM263 115v138.999c0 10.667 -2 17.834 -6 21.501s-11.667 5.5 -23 5.5h-76v-166c0 -10.667 2 -17.834 6 -21.501s11.333 -5.5 22 -5.5h48c11.333 0 19 1.83301 23 5.5s6 10.834 6 21.501z" />
    <glyph glyph-name="seven" unicode="7" horiz-adv-x="329" 
d="M324 631v-68l-176 -563h-118l171 538h-194v93h317z" />
    <glyph glyph-name="eight" unicode="8" horiz-adv-x="421" 
d="M377 532v-137c0 -41.333 -14 -66.666 -42 -75.999c28 -9.33301 42 -33.333 42 -72v-148c0 -66 -36.333 -99 -109 -99h-116c-72.667 0 -109 33 -109 99v148c0 38.667 14 62.667 42 72c-28 9.33301 -42 34.666 -42 75.999v137c0 66 36.333 99 109 99h116
c72.667 0 109 -33 109 -99zM266 114v138c0 10.667 -2 17.834 -6 21.501s-11.667 5.5 -23 5.5h-54c-10.667 0 -18 -1.83301 -22 -5.5s-6 -10.834 -6 -21.501v-138c0 -10.667 2 -17.834 6 -21.501s11.333 -5.5 22 -5.5h54c11.333 0 19 1.83301 23 5.5s6 10.834 6 21.501z
M266 385v132c0 10.667 -2 17.834 -6 21.501s-11.667 5.5 -23 5.5h-54c-10.667 0 -18 -1.83301 -22 -5.5s-6 -10.834 -6 -21.501v-132c0 -10.667 2 -17.834 6 -21.501s11.333 -5.5 22 -5.5h54c11.333 0 19 1.83301 23 5.5s6 10.834 6 21.501z" />
    <glyph glyph-name="nine" unicode="9" horiz-adv-x="412" 
d="M145 631h113c72.667 0 109 -33 109 -99v-433c0 -66 -36.333 -99 -109 -99h-109c-72.667 0 -109 33 -109 99v95h113v-79c0 -10.667 2 -17.834 6 -21.501s11.333 -5.5 22 -5.5h45c10.667 0 18 1.83301 22 5.5s6 10.834 6 21.501v139h-109c-72.667 0 -109 33 -109 99v179
c0 66 36.333 99 109 99zM177 337l77 0.000976562v179c0 10.667 -2 17.834 -6 21.501s-11.333 5.5 -22 5.5h-49c-10.667 0 -18 -1.83301 -22 -5.5s-6 -10.834 -6 -21.501v-152c0 -10.667 2 -17.834 6 -21.501s11.333 -5.5 22 -5.5z" />
    <glyph glyph-name="colon" unicode=":" horiz-adv-x="190" 
d="M34 344h122v-197h-122v197z" />
    <glyph glyph-name="semicolon" unicode=";" horiz-adv-x="190" 
d="M34 356v135h122v-135h-122zM34 135h122v-72l-84 -205h-38v277z" />
    <glyph glyph-name="less" unicode="&#x3c;" horiz-adv-x="453" 
d="M425 400l-288 -84l288 -85v-96l-397 128v108l397 125v-96z" />
    <glyph glyph-name="equal" unicode="=" horiz-adv-x="453" 
d="M28 174v92h397v-92h-397zM28 364v91h397v-91h-397z" />
    <glyph glyph-name="greater" unicode="&#x3e;" horiz-adv-x="453" 
d="M316 316l-288 84v96l397 -125v-108l-397 -128v96z" />
    <glyph glyph-name="question" unicode="?" horiz-adv-x="379" 
d="M129 631h107.001c72.667 0 109 -32.667 109 -98v-158c0 -65.333 -36.333 -98 -109 -98h-8l-5 -65h-96l-10 138h86c10 0 16.833 2 20.5 6s5.5 11.333 5.5 22v142c0 10.667 -1.83301 18 -5.5 22s-10.5 6 -20.5 6h-40c-10.667 0 -17.834 -2 -21.501 -6
s-5.5 -11.333 -5.5 -22v-71h-116v84c0 65.333 36.333 98 109 98zM113.001 0v135h122v-135h-122z" />
    <glyph glyph-name="at" unicode="@" horiz-adv-x="744" 
d="M340 326v-140c0 -10.667 1.83301 -17.667 5.5 -21s10.834 -5 21.501 -5h28c19.333 0 29 10.667 29 32v128c0 21.333 -9.66699 32 -29 32h-28c-10.667 0 -17.834 -1.66699 -21.501 -5s-5.5 -10.333 -5.5 -21zM237 337c0 62.667 32.333 94 97 94h24
c36 0 58.667 -14.667 68 -44v44h97v-272h45c10.667 0 18 1.83301 22 5.5s6 10.834 6 21.501v289c0 11.333 -2 18.833 -6 22.5s-11.333 5.5 -22 5.5h-370c-10.667 0 -18 -1.83301 -22 -5.5s-6 -11.167 -6 -22.5v-443c0 -10.667 2 -17.834 6 -21.501s11.333 -5.5 22 -5.5h326
v-85h-356c-68.667 0 -103 33 -103 99v470c0 66 34.333 99 103 99h428c68 0 102 -33 102 -99v-310c0 -65.333 -34 -98 -102 -98h-166v54c-6 -36 -30 -54 -72 -54h-24c-64.667 0 -97 31.333 -97 94v162z" />
    <glyph glyph-name="A" unicode="A" horiz-adv-x="431" 
d="M307 0l-24 131h-138l-22 -131h-115l127 631h155l133 -631h-116zM160 218h107l-55 302z" />
    <glyph glyph-name="B" unicode="B" horiz-adv-x="440" 
d="M283 388v131.998c0 10.667 -2 17.834 -6 21.501s-11.667 5.5 -23 5.5h-91v-186h91c11.333 0 19 1.83301 23 5.5s6 10.834 6 21.501zM283 110.998v138.998c0 10.667 -2 17.834 -6 21.501s-11.667 5.5 -23 5.5h-91v-193h91c11.333 0 19 1.83301 23 5.5s6 10.834 6 21.501z
M48 630.996h240c72.667 0 109 -33 109 -99v-136c0 -42 -14 -67.667 -42 -77c28 -9.33301 42 -33.333 42 -72v-148c0 -66 -36.333 -99 -109 -99h-240v631z" />
    <glyph glyph-name="C" unicode="C" horiz-adv-x="411" 
d="M378 422h-116v98c0 10.667 -2 17.834 -6 21.501s-11.333 5.5 -22 5.5h-47c-10.667 0 -18 -1.83301 -22 -5.5s-6 -10.834 -6 -21.501v-410c0 -10.667 2 -17.834 6 -21.501s11.333 -5.5 22 -5.5h47c10.667 0 18 1.83301 22 5.5s6 10.834 6 21.501v96h116v-108
c0 -66 -36.333 -99 -109 -99h-117c-72.667 0 -109 33 -109 99v434c0 66 36.333 99 109 99h117c72.667 0 109 -33 109 -99v-110z" />
    <glyph glyph-name="D" unicode="D" horiz-adv-x="446" 
d="M53 631h240c72.667 0 109 -33 109 -99v-433c0 -66 -36.333 -99 -109 -99h-240v631zM286 111v408.998c0 10.667 -2 17.834 -6 21.501s-11.333 5.5 -22 5.5h-90v-463h90c10.667 0 18 1.83301 22 5.5s6 10.834 6 21.501z" />
    <glyph glyph-name="E" unicode="E" horiz-adv-x="374" 
d="M164 88h192v-88h-308v631h300v-88h-184v-175h155v-89h-155v-191z" />
    <glyph glyph-name="F" unicode="F" horiz-adv-x="363" 
d="M354 543h-190v-192h155v-84h-155v-267h-116v631h306v-88z" />
    <glyph glyph-name="G" unicode="G" horiz-adv-x="416" 
d="M378 437h-116v83c0 10.667 -2 17.834 -6 21.501s-11.333 5.5 -22 5.5h-47c-10.667 0 -18 -1.83301 -22 -5.5s-6 -10.834 -6 -21.501v-410c0 -10.667 2 -17.834 6 -21.501s11.333 -5.5 22 -5.5h47c10.667 0 18 1.83301 22 5.5s6 10.834 6 21.501v140h-50v81h166v-233
c0 -66 -36.333 -99 -109 -99h-117c-72.667 0 -109 33 -109 99v434c0 66 36.333 99 109 99h117c72.667 0 109 -33 109 -99v-95z" />
    <glyph glyph-name="H" unicode="H" horiz-adv-x="456" 
d="M293 631h115v-631h-115v269h-130v-269h-115v631h115v-274h130v274z" />
    <glyph glyph-name="I" unicode="I" horiz-adv-x="223" 
d="M54 631h115v-631h-115v631z" />
    <glyph glyph-name="J" unicode="J" horiz-adv-x="370" 
d="M13 221h115v-106c0 -10.667 2 -17.834 6 -21.501s11.667 -5.5 23 -5.5h24c10.667 0 18 1.83301 22 5.5s6 10.834 6 21.501v516h116v-532c0 -66 -36.333 -99 -109 -99h-94c-72.667 0 -109 33 -109 99v122z" />
    <glyph glyph-name="K" unicode="K" horiz-adv-x="426" 
d="M418 631l-130 -314l129 -317h-124l-125 317l126 314h124zM48 0v631h115v-631h-115z" />
    <glyph glyph-name="L" unicode="L" horiz-adv-x="334" 
d="M163 88h168v-88h-283v631h115v-543z" />
    <glyph glyph-name="M" unicode="M" horiz-adv-x="561" 
d="M150 0h-102v631h126l106 -375l106 375h126v-631h-101v443l-84 -306h-93l-84 305v-442z" />
    <glyph glyph-name="N" unicode="N" horiz-adv-x="446" 
d="M292 631h105v-631h-108l-135 418v-418h-106v631h111l133 -412v412z" />
    <glyph glyph-name="O" unicode="O" horiz-adv-x="429" 
d="M153 631h122c72.667 0 109 -33 109 -99v-433c0 -66 -36.333 -99 -109 -99h-122c-72.667 0 -109 33 -109 99v433c0 66 36.333 99 109 99zM269 115v401c0 10.667 -2 17.834 -6 21.501s-11.333 5.5 -22 5.5h-53c-11.333 0 -19 -1.83301 -23 -5.5s-6 -10.834 -6 -21.501v-401
c0 -10.667 2 -17.834 6 -21.501s11.667 -5.5 23 -5.5h53c10.667 0 18 1.83301 22 5.5s6 10.834 6 21.501z" />
    <glyph glyph-name="P" unicode="P" horiz-adv-x="415" 
d="M48 631h232c72.667 0 109 -33 109 -99v-201c0 -66 -36.333 -99 -109 -99h-117v-232h-115v631zM274 347v168.998c0 10.667 -2 17.834 -6 21.501s-11.333 5.5 -22 5.5h-83v-223h83c10.667 0 18 1.83301 22 5.5s6 10.834 6 21.501z" />
    <glyph glyph-name="Q" unicode="Q" horiz-adv-x="429" 
d="M153 0c-72.667 0 -109 33 -109 99v433c0 66 36.333 99 109 99h122c72.667 0 109 -33 109 -99v-433c0 -45.333 -16.667 -75 -50 -89l77 -94h-126l-67 84h-65zM159 516v-401c0 -10.667 2 -17.834 6 -21.501s11.667 -5.5 23 -5.5h53c10.667 0 18 1.83301 22 5.5
s6 10.834 6 21.501v401c0 10.667 -2 17.834 -6 21.501s-11.333 5.5 -22 5.5h-53c-11.333 0 -19 -1.83301 -23 -5.5s-6 -10.834 -6 -21.501z" />
    <glyph glyph-name="R" unicode="R" horiz-adv-x="430" 
d="M163 246v-246h-115v631h232c72.667 0 109 -33 109 -99v-187c0 -54.667 -24.333 -86.667 -73 -96l105 -249h-124l-96 246h-38zM163 543v-212.002h83c10.667 0 18 1.83301 22 5.5s6 10.834 6 21.501v158c0 10.667 -2 17.834 -6 21.501s-11.333 5.5 -22 5.5h-83z" />
    <glyph glyph-name="S" unicode="S" horiz-adv-x="399" 
d="M248 115v135c0 10.667 -2 17.834 -6 21.501s-11.333 5.5 -22 5.5h-81c-68.667 0 -103 33.333 -103 100v155c0 66 36 99 108 99h110c72 0 108 -33 108 -99v-88h-116v72c0 10.667 -2 17.834 -6 21.501s-11.333 5.5 -22 5.5h-38c-11.333 0 -19 -1.83301 -23 -5.5
s-6 -10.834 -6 -21.501v-127c0 -10.667 2 -17.834 6 -21.501s11.667 -5.5 23 -5.5h79c70 0 105 -32.667 105 -98v-165c0 -66 -36.333 -99 -109 -99h-108c-72.667 0 -109 33 -109 99v87h115v-71c0 -10.667 2 -17.834 6 -21.501s11.667 -5.5 23 -5.5h38
c10.667 0 18 1.83301 22 5.5s6 10.834 6 21.501z" />
    <glyph glyph-name="T" unicode="T" horiz-adv-x="346" 
d="M341 631v-88h-111v-543h-115v543h-110v88h336z" />
    <glyph glyph-name="U" unicode="U" horiz-adv-x="434" 
d="M272 631h115v-532c0 -66 -36.333 -99 -109 -99h-122c-72.667 0 -109 33 -109 99v532h115v-516c0 -10.667 2 -17.834 6 -21.501s11.333 -5.5 22 -5.5h53c11.333 0 19 1.83301 23 5.5s6 10.834 6 21.501v516z" />
    <glyph glyph-name="V" unicode="V" horiz-adv-x="413" 
d="M289 631h118l-125 -631h-151l-125 631h119l81 -510z" />
    <glyph glyph-name="W" unicode="W" horiz-adv-x="675" 
d="M551 631h114l-111 -631h-146l-71 445l-70 -445h-146l-111 631h119l65 -512l83 512h121l82 -512z" />
    <glyph glyph-name="X" unicode="X" horiz-adv-x="416" 
d="M269 322l144 -322h-128l-79 221l-80 -221h-123l139 322l-132 309h129l67 -208l67 208h124z" />
    <glyph glyph-name="Y" unicode="Y" horiz-adv-x="407" 
d="M265 0h-115v200l-147 431h117l86 -324l81 324h117l-139 -428v-203z" />
    <glyph glyph-name="Z" unicode="Z" horiz-adv-x="357" 
d="M345 631v-88l-215 -455h210v-88h-328v88l215 455h-204v88h322z" />
    <glyph glyph-name="bracketleft" unicode="[" horiz-adv-x="313" 
d="M266 697h-97v-772h97v-88h-213v948h213v-88z" />
    <glyph glyph-name="backslash" unicode="\" horiz-adv-x="396" 
d="M16 700h102l283 -803h-102z" />
    <glyph glyph-name="bracketright" unicode="]" horiz-adv-x="313" 
d="M247 785v-948h-213v88h97v772h-97v88h213z" />
    <glyph glyph-name="asciicircum" unicode="^" horiz-adv-x="558" 
d="M195 670h149l129 -364h-118l-86 263l-85 -263h-118z" />
    <glyph glyph-name="underscore" unicode="_" horiz-adv-x="474" 
d="M0 -126v84h474v-84h-474z" />
    <glyph glyph-name="grave" unicode="`" horiz-adv-x="444" 
d="M231 660l86 -137h-94l-113 137h121z" />
    <glyph glyph-name="a" unicode="a" horiz-adv-x="394" 
d="M240 491h112v-491h-114v42c-10 -28 -33 -42 -69 -42h-31c-68 0 -102 33 -102 99v293c0 66 34 99 102 99h31c39.333 0 63 -16 71 -48v48zM177 88l30 0.00195312c20.667 0 31 11 31 33v249c0 22 -10.333 33 -31 33h-30c-10.667 0 -18 -1.83301 -22 -5.5
s-6 -10.834 -6 -21.501v-261c0 -10.667 2 -17.834 6 -21.501s11.333 -5.5 22 -5.5z" />
    <glyph glyph-name="b" unicode="b" horiz-adv-x="394" 
d="M226 492h30c68.667 0 103 -33 103 -99v-294c0 -66 -34.333 -99 -103 -99h-30c-38 0 -61.667 15 -71 45v-45h-112v669h113v-219c10 28 33.333 42 70 42zM245 115v261.998c0 10.667 -2 17.834 -6 21.501s-11.333 5.5 -22 5.5h-30c-20.667 0 -31 -11.333 -31 -34v-249
c0 -22 10.333 -33 31 -33h30c10.667 0 18 1.83301 22 5.5s6 10.834 6 21.501z" />
    <glyph glyph-name="c" unicode="c" horiz-adv-x="380" 
d="M352 326h-111v50c0 10.667 -2 17.834 -6 21.501s-11.333 5.5 -22 5.5h-36c-10.667 0 -18 -1.83301 -22 -5.5s-6 -10.834 -6 -21.501v-261c0 -10.667 2 -17.834 6 -21.501s11.333 -5.5 22 -5.5h36c10.667 0 18 1.83301 22 5.5s6 10.834 6 21.501v51h111v-67
c0 -66 -36.333 -99 -109 -99h-98c-72.667 0 -109 33 -109 99v293c0 66 36.333 99 109 99h98c72.667 0 109 -33 109 -99v-66z" />
    <glyph glyph-name="d" unicode="d" horiz-adv-x="394" 
d="M238 669h114v-669h-112v49c-8 -32.667 -31.667 -49 -71 -49h-31c-68 0 -102 33 -102 99v294c0 66 34 99 102 99h31c36 0 59 -14 69 -42v219zM177 88l30 0.00195312c20.667 0 31 11 31 33v249c0 12.667 -2.33301 21.5 -7 26.5s-12.667 7.5 -24 7.5h-30
c-10.667 0 -18 -1.83301 -22 -5.5s-6 -10.834 -6 -21.501v-262c0 -10.667 2 -17.834 6 -21.501s11.333 -5.5 22 -5.5z" />
    <glyph glyph-name="e" unicode="e" horiz-adv-x="392" 
d="M147 491h106c72 0 108 -33 108 -99v-179h-213v-101c0 -10.667 1.83301 -17.834 5.5 -21.501s11.167 -5.5 22.5 -5.5h46c10.667 0 18 1.83301 22 5.5s6 10.834 6 21.501v37h110v-50c0 -66 -36.333 -99 -109 -99h-104c-72.667 0 -109 33 -109 99v293c0 66 36.333 99 109 99
zM148 286h104v94c0 10.667 -2 17.834 -6 21.501s-11.333 5.5 -22 5.5h-48c-10.667 0 -18 -1.83301 -22 -5.5s-6 -10.834 -6 -21.501v-94z" />
    <glyph glyph-name="f" unicode="f" horiz-adv-x="248" 
d="M243 580l-45 0.000976562c-10.667 0 -18 -1.83301 -22 -5.5s-6 -10.834 -6 -21.501v-62h73v-88h-73v-403h-113v403h-50v88h50v79c0 66 36 99 108 99h78v-89z" />
    <glyph glyph-name="g" unicode="g" horiz-adv-x="394" 
d="M240 491l112 -0.000976562v-528c0 -66 -36.333 -99 -109 -99h-189v86h156c10.667 0 18 1.83301 22 5.5s6 10.834 6 21.501v78c-10 -28 -33 -42 -69 -42h-31c-68 0 -102 33 -102 99v280c0 66 34 99 102 99h31c39.333 0 63 -16 71 -48v48zM177 100.999l30 0.00195312
c11.333 0 19.333 2.5 24 7.5s7 13.833 7 26.5v235c0 22 -10.333 33 -31 33h-30c-10.667 0 -18 -1.83301 -22 -5.5s-6 -10.834 -6 -21.501v-248c0 -10.667 2 -17.834 6 -21.501s11.333 -5.5 22 -5.5z" />
    <glyph glyph-name="h" unicode="h" horiz-adv-x="399" 
d="M226 491l30 -0.000976562c68.667 0 103 -33 103 -99v-392h-114v376c0 10.667 -2 17.834 -6 21.501s-11.333 5.5 -22 5.5h-30c-20.667 0 -31 -11 -31 -33v-370h-113v669h113v-220c10 28 33.333 42 70 42z" />
    <glyph glyph-name="i" unicode="i" horiz-adv-x="199" 
d="M40 571v99h119v-99h-119zM156 0h-113v491h113v-491z" />
    <glyph glyph-name="j" unicode="j" horiz-adv-x="199" 
d="M40 571v99h119v-99h-119zM43 -23v513.999h113v-528c0 -66 -36.333 -99 -109 -99h-55v86h22c11.333 0 19 1.83301 23 5.5s6 10.834 6 21.501z" />
    <glyph glyph-name="k" unicode="k" horiz-adv-x="391" 
d="M390 491l-110 -236l110 -255h-119l-106 255l107 236h118zM43 0v669h113v-669h-113z" />
    <glyph glyph-name="l" unicode="l" horiz-adv-x="199" 
d="M156 0h-113v669h113v-669z" />
    <glyph glyph-name="m" unicode="m" horiz-adv-x="599" 
d="M428 491l31.001 -0.00195312c68 0 102 -33 102 -99v-392h-113v376c0 10.667 -2 17.834 -6 21.501s-11.333 5.5 -22 5.5h-30c-20.667 0 -31 -11 -31 -33v-370h-114v376c0 10.667 -2 17.834 -6 21.501s-11.333 5.5 -22 5.5h-30c-20.667 0 -31 -11 -31 -33v-370h-113v491
h112v-45c9.33301 30 33 45 71 45h30c49.333 0 80.666 -16.667 93.999 -50c9.33301 33.333 35.333 50 78 50z" />
    <glyph glyph-name="n" unicode="n" horiz-adv-x="399" 
d="M226 491l30 -0.000976562c68.667 0 103 -33 103 -99v-392h-114v376c0 10.667 -2 17.834 -6 21.501s-11.333 5.5 -22 5.5h-30c-20.667 0 -31 -11 -31 -33v-370h-113v491h112v-45c9.33301 30 33 45 71 45z" />
    <glyph glyph-name="o" unicode="o" horiz-adv-x="402" 
d="M145 491h113c70.667 0 106 -33 106 -99v-293c0 -66 -35.333 -99 -106 -99h-113c-71.333 0 -107 33 -107 99v293c0 66 35.667 99 107 99zM253 112v267c0 10.667 -2 17.834 -6 21.501s-11.667 5.5 -23 5.5h-46c-11.333 0 -19 -1.83301 -23 -5.5s-6 -10.834 -6 -21.501v-267
c0 -10.667 2 -17.834 6 -21.501s11.667 -5.5 23 -5.5h46c11.333 0 19 1.83301 23 5.5s6 10.834 6 21.501z" />
    <glyph glyph-name="p" unicode="p" horiz-adv-x="394" 
d="M226 491h30c68.667 0 103 -33 103 -99v-293c0 -66 -34.333 -99 -103 -99h-30c-36.667 0 -60 14 -70 42v-178h-113v627h112v-45c9.33301 30 33 45 71 45zM245 115v260.998c0 10.667 -2 17.834 -6 21.501s-11.333 5.5 -22 5.5h-30c-20.667 0 -31 -11 -31 -33v-249
c0 -22 10.333 -33 31 -33h30c10.667 0 18 1.83301 22 5.5s6 10.834 6 21.501z" />
    <glyph glyph-name="q" unicode="q" horiz-adv-x="394" 
d="M240 491h112v-627h-114v178c-10 -28 -33 -42 -69 -42h-31c-68 0 -102 33 -102 99v293c0 66 34 99 102 99h31c39.333 0 63 -16 71 -48v48zM177 88l30 0.00195312c20.667 0 31 11 31 33v249c0 22 -10.333 33 -31 33h-30c-10.667 0 -18 -1.83301 -22 -5.5
s-6 -10.834 -6 -21.501v-261c0 -10.667 2 -17.834 6 -21.501s11.333 -5.5 22 -5.5z" />
    <glyph glyph-name="r" unicode="r" horiz-adv-x="266" 
d="M243 493h18.001v-98h-42c-42 0 -63 -24 -63 -72v-323h-113v491h112v-63c5.33301 19.333 15.666 35 30.999 47s34.333 18 57 18z" />
    <glyph glyph-name="s" unicode="s" horiz-adv-x="362" 
d="M221 108v69c0 10.667 -2 17.834 -6 21.501s-11.667 5.5 -23 5.5h-54c-71.333 0 -107 32.667 -107 98v90c0 66 36.333 99 109 99h79c72 0 108 -33 108 -99v-46h-109v37c0 10.667 -2 17.834 -6 21.501s-11.333 5.5 -22 5.5h-20c-11.333 0 -19 -1.83301 -23 -5.5
s-6 -10.834 -6 -21.501v-72c0 -10.667 2 -17.834 6 -21.501s11.667 -5.5 23 -5.5h54c72 0 108 -32.667 108 -98v-87c0 -66 -36.333 -99 -109 -99h-81c-72.667 0 -109 33 -109 99v45h111v-36c0 -10.667 2 -17.834 6 -21.501s11.333 -5.5 22 -5.5h20
c11.333 0 19 1.83301 23 5.5s6 10.834 6 21.501z" />
    <glyph glyph-name="t" unicode="t" horiz-adv-x="244" 
d="M234 403l-67 0.000976562v-285c0 -10.667 2 -17.834 6 -21.501s11.667 -5.5 23 -5.5h37v-91h-70c-72.667 0 -109 33 -109 99v304h-49v88h49v88h113v-88h67v-88z" />
    <glyph glyph-name="u" unicode="u" horiz-adv-x="399" 
d="M243 491l114 0.000976562v-491h-112v49c-8 -32.667 -31.667 -49 -71 -49h-31c-68 0 -102 33 -102 99v392h113v-376c0 -10.667 2 -17.834 6 -21.501s11.333 -5.5 22 -5.5h30c20.667 0 31 11 31 33v370z" />
    <glyph glyph-name="v" unicode="v" horiz-adv-x="358" 
d="M116 491l63 -385l63 385h113l-101 -491h-150l-101 491h113z" />
    <glyph glyph-name="w" unicode="w" horiz-adv-x="583" 
d="M472 491h106l-96 -491h-133l-59 347l-59 -347h-133l-93 491h106l57 -383l64 383h119l60 -382z" />
    <glyph glyph-name="x" unicode="x" horiz-adv-x="373" 
d="M247 252l123 -252h-117l-68 163l-65 -163h-115l118 251l-115 240h120l58 -153l56 153h116z" />
    <glyph glyph-name="y" unicode="y" horiz-adv-x="377" 
d="M126 -136h-67.001v87h51c29.333 0 47.333 11.667 54 35l8 32h-54l-112 473h117l70 -378l65 378h114l-110 -521c-17.333 -70.667 -62.666 -106 -135.999 -106z" />
    <glyph glyph-name="z" unicode="z" horiz-adv-x="321" 
d="M308 85v-85h-295v85l172 321h-161v85h280v-85l-174 -321h178z" />
    <glyph glyph-name="braceleft" unicode="{" horiz-adv-x="295" 
d="M217 674v-239c0 -73.333 -25.333 -114.333 -76 -123c50.667 -5.33301 76 -44 76 -116v-246c0 -18.667 10 -28 30 -28h40v-84h-81c-69.333 0 -104 34.333 -104 103v229c0 34.667 -6.16699 60.167 -18.5 76.5s-32.166 24.5 -59.499 24.5h-14v83h14
c27.333 0 47.166 8 59.499 24s18.5 41.667 18.5 77v228c0 68 34.667 102 104 102h81v-83h-40c-20 0 -30 -9.33301 -30 -28z" />
    <glyph glyph-name="bar" unicode="|" horiz-adv-x="217" 
d="M53 769h107v-909h-107v909z" />
    <glyph glyph-name="braceright" unicode="}" horiz-adv-x="295" 
d="M77 435v239c0 18.667 -10 28 -30 28h-39v83h81c68.667 0 103 -34 103 -102v-228c0 -35.333 6.16699 -61 18.5 -77s32.5 -24 60.5 -24h14v-83h-14c-28 0 -48.167 -8.16699 -60.5 -24.5s-18.5 -41.833 -18.5 -76.5v-229c0 -68.667 -34.333 -103 -103 -103h-81v84h39
c20 0 30 9.33301 30 28v246c0 34.667 6.66699 62 20 82s32.333 31.333 57 34c-51.333 8.66699 -77 49.667 -77 123z" />
    <glyph glyph-name="asciitilde" unicode="~" horiz-adv-x="581" 
d="M372 211c-24 0 -45.6689 6.66797 -65.002 20.001s-37.166 26.666 -53.499 39.999s-31.5 20 -45.5 20s-23 -2.66699 -27 -8s-6 -14 -6 -26v-46h-104v71c0 29.333 7.33301 51.166 22 65.499s38 21.5 70 21.5h46c24 0 45.667 -6.66699 65 -20s37.333 -26.666 54 -39.999
s31.834 -20 45.501 -20s22.334 2.5 26.001 7.5s5.5 13.833 5.5 26.5v45h104v-71c0 -28.667 -7.33301 -50.167 -22 -64.5s-38.334 -21.5 -71.001 -21.5h-44z" />
    <glyph glyph-name="uni00A0" unicode="&#xa0;" horiz-adv-x="161" 
 />
    <glyph glyph-name="exclamdown" unicode="&#xa1;" horiz-adv-x="234" 
d="M184 -140h-134l20 419h94zM56 356v135h121v-135h-121z" />
    <glyph glyph-name="cent" unicode="&#xa2;" horiz-adv-x="380" 
d="M352 326h-111v50c0 10.667 -2 17.834 -6 21.501s-11.333 5.5 -22 5.5h-36c-10.667 0 -18 -1.83301 -22 -5.5s-6 -10.834 -6 -21.501v-261c0 -10.667 2 -17.834 6 -21.501s11.333 -5.5 22 -5.5h36c10.667 0 18 1.83301 22 5.5s6 10.834 6 21.501v51h111v-67
c0 -63.333 -33.667 -96.333 -101 -99v-77h-109v77c-70.667 0.666992 -106 33.667 -106 99v293c0 65.333 35.333 98.333 106 99v78h109v-78c67.333 -2.66699 101 -35.667 101 -99v-66z" />
    <glyph glyph-name="sterling" unicode="&#xa3;" horiz-adv-x="421" 
d="M401 88v-88h-373v84c18.667 1.33301 31.167 8.83301 37.5 22.5s9.5 36.5 9.5 68.5v85h-47v84h47v188c0 66 36.333 99 109 99h104c72.667 0 109 -33 109 -99v-92h-115v76c0 10.667 -2 17.834 -6 21.501s-11.667 5.5 -23 5.5h-34c-10.667 0 -18 -1.83301 -22 -5.5
s-6 -10.834 -6 -21.501v-172h136v-84h-136v-94c0 -40 -9 -66 -27 -78h237z" />
    <glyph glyph-name="currency" unicode="&#xa4;" horiz-adv-x="516" 
d="M430 371l0.000976562 -144c0 -24 -3 -44.667 -9 -62l42 -42l-70 -71l-52 52c-11.333 -2 -23.333 -3 -36 -3h-90c-16.667 0 -30.334 1.33301 -41.001 4l-53 -53l-71 71l48 48c-4.66699 14.667 -7 33.334 -7 56.001v144c0 25.333 3.33301 46.666 10 63.999l-51 51l71 70
l62 -61c13.333 1.33301 24 2 32 2h90c12.667 0 21.667 -0.333008 27 -1l61 60l70 -70l-45 -45c8 -18.667 12 -42 12 -70zM239.001 182h41c19.333 0 32.833 3.16699 40.5 9.5s11.5 20.166 11.5 41.499v132c0 21.333 -3.83301 35.166 -11.5 41.499s-21.167 9.5 -40.5 9.5h-41
c-19.333 0 -32.666 -3.16699 -39.999 -9.5s-11 -20.166 -11 -41.499v-132c0 -21.333 3.66699 -35.166 11 -41.499s20.666 -9.5 39.999 -9.5z" />
    <glyph glyph-name="yen" unicode="&#xa5;" horiz-adv-x="425" 
d="M400 353v-79h-103l-18 -52h121v-78h-128v-144h-115v144h-129v78h122l-17 52h-105v79h78l-95 278h116l87 -314l84 314h117l-92 -278h77z" />
    <glyph glyph-name="brokenbar" unicode="&#xa6;" horiz-adv-x="217" 
d="M164 376h-116v349h116v-349zM48 254h116v-350h-116v350z" />
    <glyph glyph-name="section" unicode="&#xa7;" horiz-adv-x="454" 
d="M399 528h-113v32c0 10.667 -2 17.834 -6 21.501s-11.333 5.5 -22 5.5h-35c-11.333 0 -19 -1.83301 -23 -5.5s-6 -10.834 -6 -21.501v-70c0 -10.667 2 -17.834 6 -21.501s11.667 -5.5 23 -5.5h64c72.667 0 109 -33 109 -99v-77c0 -45.333 -11.667 -75.666 -35 -90.999
c8.66699 -14.667 13 -33.667 13 -57v-91c0 -66 -36.333 -99 -109 -99h-101c-72.667 0 -109 33 -109 99v42h113v-33c0 -10.667 2 -17.834 6 -21.501s11.667 -5.5 23 -5.5h35c10.667 0 18 1.83301 22 5.5s6 10.834 6 21.501v70c0 10.667 -2 17.834 -6 21.501
s-11.333 5.5 -22 5.5h-65c-72.667 0 -109 33 -109 99v71c0 46.667 13 77.667 39 93c-10.667 15.333 -16 35.666 -16 60.999v92c0 65.333 36.333 98 109 98h100c72.667 0 109 -32.667 109 -98v-42zM259 380h-64c-10.667 0 -18 -1.83301 -22 -5.5s-6 -10.834 -6 -21.501v-88
c0 -10.667 1.83301 -17.834 5.5 -21.501s11.167 -5.5 22.5 -5.5h64c11.333 0 18.833 1.83301 22.5 5.5s5.5 10.834 5.5 21.501v88c0 10.667 -2 17.834 -6 21.501s-11.333 5.5 -22 5.5z" />
    <glyph glyph-name="dieresis" unicode="&#xa8;" horiz-adv-x="444" 
d="M266 541v105h116v-105h-116zM62 541v105h116v-105h-116z" />
    <glyph glyph-name="copyright" unicode="&#xa9;" horiz-adv-x="722" 
d="M409 249v28h90v-43c0 -54.667 -29.333 -82 -88 -82h-89c-59.333 0 -89 27.333 -89 82v171c0 54 29.667 81 89 81h89c58.667 0 88 -27 88 -81v-43h-90v28c0 9.33301 -1.66699 15.666 -5 18.999s-10 5 -20 5h-36c-10 0 -16.667 -1.66699 -20 -5s-5 -9.66602 -5 -18.999
v-141c0 -9.33301 1.66699 -15.666 5 -18.999s10 -5 20 -5h36c10 0 16.667 1.66699 20 5s5 9.66602 5 18.999zM285 77h161.999c54 0 92.333 16 115 48s34 82.667 34 152v72c0 70 -11.5 121.833 -34.5 155.5s-61.167 50.5 -114.5 50.5h-162
c-53.333 0 -91.666 -16.833 -114.999 -50.5s-35 -85.5 -35 -155.5v-72c0 -69.333 11.5 -120 34.5 -152s61.5 -48 115.5 -48zM690.999 340v-54c0 -96 -17.667 -167.667 -53 -215s-94 -71 -176 -71h-192c-82.667 0 -141.5 23.667 -176.5 71s-52.5 119 -52.5 215v54
c0 96 17.667 168.5 53 217.5s94 73.5 176 73.5h192c82 0 140.667 -24.5 176 -73.5s53 -121.5 53 -217.5z" />
    <glyph glyph-name="ordfeminine" unicode="&#xaa;" horiz-adv-x="280" 
d="M178 631h72v-347h-73v27c-6 -18 -21 -27 -45 -27h-34c-48.667 0 -73 23.333 -73 70v207c0 46.667 24.333 70 73 70h32c26 0 42 -10.333 48 -31v31zM118 346h37c14.667 0 22 8 22 24v177c0 15.333 -7.33301 23 -22 23h-37c-7.33301 0 -12.5 -1.33301 -15.5 -4
s-4.5 -7.66699 -4.5 -15v-186c0 -7.33301 1.5 -12.333 4.5 -15s8.16699 -4 15.5 -4z" />
    <glyph glyph-name="guillemotleft" unicode="&#xab;" horiz-adv-x="493" 
d="M352 102l-116 154l116 154h113l-116 -154l116 -154h-113zM147 102l-116 154l116 154h113l-117 -154l117 -154h-113z" />
    <glyph glyph-name="logicalnot" unicode="&#xac;" horiz-adv-x="491" 
d="M443 405v-261h-84v146h-320v115h404z" />
    <glyph glyph-name="uni00AD" unicode="&#xad;" horiz-adv-x="323" 
d="M40 255v83h243v-83h-243z" />
    <glyph glyph-name="registered" unicode="&#xae;" horiz-adv-x="433" 
d="M234 545v46c0 4.66699 -2.33301 7 -7 7h-25v-60h25c4.66699 0 7 2.33301 7 7zM159 630h79c25.333 0 38 -11.667 38 -35v-55c0 -18.667 -8 -30 -24 -34l35 -79h-45l-32 77h-8v-77h-43v203zM171 395l90.999 0.00195312c30.667 0 52.334 8.66699 65.001 26s19 45.333 19 84
v41c0 39.333 -6.5 68.166 -19.5 86.499s-34.5 27.5 -64.5 27.5h-91c-30 0 -51.5 -9.33301 -64.5 -28s-19.5 -47.334 -19.5 -86.001v-41c0 -38.667 6.5 -66.667 19.5 -84s34.5 -26 64.5 -26zM399.999 541.002v-30c0 -54 -10 -94.333 -30 -121s-53.333 -40 -100 -40h-108
c-46.667 0 -79.834 13.333 -99.501 40s-29.5 67 -29.5 121v30c0 54 9.83301 94.833 29.5 122.5s52.834 41.5 99.501 41.5h108c46.667 0 80 -13.833 100 -41.5s30 -68.5 30 -122.5z" />
    <glyph glyph-name="macron" unicode="&#xaf;" horiz-adv-x="444" 
d="M70 552v79h303v-79h-303z" />
    <glyph glyph-name="degree" unicode="&#xb0;" horiz-adv-x="412" 
d="M254 435v92c0 10 -2 16.833 -6 20.5s-11.667 5.5 -23 5.5h-41c-11.333 0 -19 -1.83301 -23 -5.5s-6 -10.5 -6 -20.5v-92c0 -10 2 -16.833 6 -20.5s11.667 -5.5 23 -5.5h41c11.333 0 19 1.83301 23 5.5s6 10.5 6 20.5zM359 533v-104c0 -65.333 -35.333 -98 -106 -98h-97
c-70.667 0 -106 32.667 -106 98v104c0 65.333 35.333 98 106 98h97c70.667 0 106 -32.667 106 -98z" />
    <glyph glyph-name="plusminus" unicode="&#xb1;" horiz-adv-x="453" 
d="M282 446h143v-87h-143v-78h-111v78h-143v87h143v77h111v-77zM28 161v89h397v-89h-397z" />
    <glyph glyph-name="twosuperior" unicode="&#xb2;" horiz-adv-x="227" 
d="M87 562v-50h-73v65c0 36 19.667 54 59 54h74c40 0 60 -18 60 -54v-36c0 -35.333 -9.66699 -65 -29 -89l-76 -111h106v-57h-194v53l101 137c12 15.333 18 37 18 65v23c0 10 -5 15 -15 15h-16c-10 0 -15 -5 -15 -15z" />
    <glyph glyph-name="threesuperior" unicode="&#xb3;" horiz-adv-x="234" 
d="M88 562v-41.001h-73v56c0 36 20 54 60 54h75c40 0 60 -18 60 -54v-76c0 -23.333 -7.66699 -37.333 -23 -42c15.333 -5.33301 23 -18.666 23 -39.999v-81c0 -36 -20 -54 -60 -54h-75c-40 0 -60 18 -60 54v56h73v-41c0 -10 5.33301 -15 16 -15h18c6 0 10 1 12 3s3 6 3 12
v64c0 6 -1 10 -3 12s-6 3 -12 3h-33v52h33c10 0 15 5 15 15v63c0 10 -5 15 -15 15h-18c-10.667 0 -16 -5 -16 -15z" />
    <glyph glyph-name="acute" unicode="&#xb4;" horiz-adv-x="444" 
d="M117 523l86 137h121l-113 -137h-94z" />
    <glyph glyph-name="uni00B5" unicode="&#xb5;" horiz-adv-x="405" 
d="M243 491l113 0.000976562v-491h-112v49c-8 -32.667 -31.667 -49 -71 -49h-20v-136h-113v627h113v-376c0 -10.667 2 -17.834 6 -21.501s11.667 -5.5 23 -5.5h30c20.667 0 31 11 31 33v370z" />
    <glyph glyph-name="paragraph" unicode="&#xb6;" horiz-adv-x="525" 
d="M369 631h97v-767h-97v767zM300 631v-767h-98v357h-50c-72.667 0 -109 33 -109 99v212c0 66 36.333 99 109 99h148z" />
    <glyph glyph-name="periodcentered" unicode="&#xb7;" horiz-adv-x="233" 
d="M38 259v130h122v-130h-122z" />
    <glyph glyph-name="cedilla" unicode="&#xb8;" horiz-adv-x="444" 
d="M204 -95v46h107v-55c0 -69.333 -38.333 -104 -115 -104h-67v83h44c20.667 0 31 10 31 30z" />
    <glyph glyph-name="onesuperior" unicode="&#xb9;" horiz-adv-x="166" 
d="M128 631v-347h-75v293h-42v54h117z" />
    <glyph glyph-name="ordmasculine" unicode="&#xba;" horiz-adv-x="272" 
d="M101 631h70c50.667 0 76 -23.333 76 -70v-207c0 -46.667 -25.333 -70 -76 -70h-70c-50 0 -75 23.333 -75 70v207c0 46.667 25 70 75 70zM174 357v201c0 7.33301 -1.5 12.333 -4.5 15s-8.5 4 -16.5 4h-34c-8 0 -13.333 -1.33301 -16 -4s-4 -7.66699 -4 -15v-201
c0 -7.33301 1.33301 -12.333 4 -15s8 -4 16 -4h34c8 0 13.5 1.33301 16.5 4s4.5 7.66699 4.5 15z" />
    <glyph glyph-name="guillemotright" unicode="&#xbb;" horiz-adv-x="493" 
d="M465 256l-116 -154h-113l116 154l-116 154h113zM260 256l-116 -154h-113l116 154l-116 154h113z" />
    <glyph glyph-name="questiondown" unicode="&#xbf;" horiz-adv-x="379" 
d="M229 42h115.999v-84c0 -65.333 -36.333 -98 -109 -98h-107c-72.667 0 -109 32.667 -109 98v158c0 65.333 36.333 98 109 98h8l5 65h96l10 -138h-86c-10 0 -16.833 -2 -20.5 -6s-5.5 -11.333 -5.5 -22v-142c0 -10.667 1.83301 -18 5.5 -22s10.5 -6 20.5 -6h40
c10.667 0 17.834 2 21.501 6s5.5 11.333 5.5 22v71zM251.999 491v-135h-122v135h122z" />
    <glyph glyph-name="Agrave" unicode="&#xc0;" horiz-adv-x="431" 
d="M307 0l-24 131h-138l-22 -131h-115l127 631h155l133 -631h-116zM160 218h107l-55 302zM253 663h-94l-113 137h121z" />
    <glyph glyph-name="Aacute" unicode="&#xc1;" horiz-adv-x="431" 
d="M307 0l-24 131h-138l-22 -131h-115l127 631h155l133 -631h-116zM160 218h107l-55 302zM374 800l-113 -137h-94l86 137h121z" />
    <glyph glyph-name="Acircumflex" unicode="&#xc2;" horiz-adv-x="431" 
d="M307 0l-24 131h-138l-22 -131h-115l127 631h155l133 -631h-116zM160 218h107l-55 302zM212 740l-52 -77h-112l106 137h117l106 -137h-112z" />
    <glyph glyph-name="Atilde" unicode="&#xc3;" horiz-adv-x="431" 
d="M307 0l-24 131h-138l-22 -131h-115l127 631h155l133 -631h-116zM160 218h107l-55 302zM144 683l0.000976562 -20h-94v32c0 28 6.33301 49.167 19 63.5s34.334 21.5 65.001 21.5h12c18.667 0 39.5 -7.16699 62.5 -21.5s37.167 -21.5 42.5 -21.5c12 0 18 7.66699 18 23v20
h94v-35c0 -27.333 -6.33301 -47.833 -19 -61.5s-34.334 -20.5 -65.001 -20.5h-10c-18.667 0 -39.834 7.16699 -63.501 21.5s-38.167 21.5 -43.5 21.5c-12 0 -18 -7.66699 -18 -23z" />
    <glyph glyph-name="Adieresis" unicode="&#xc4;" horiz-adv-x="431" 
d="M307 0l-24 131h-138l-22 -131h-115l127 631h155l133 -631h-116zM160 218h107l-55 302zM168 767v-105h-116v105h116zM372 767v-105h-116v105h116z" />
    <glyph glyph-name="Aring" unicode="&#xc5;" horiz-adv-x="431" 
d="M307 0l-24 131h-138l-22 -131h-115l127 631h155l133 -631h-116zM160 218h107l-55 302zM249 662h-72c-54 0 -81 25 -81 75v17c0 50.667 27 76 81 76h72c54 0 81 -25.333 81 -76v-17c0 -50 -27 -75 -81 -75zM171 750v-9c0 -9.33301 1.66699 -15.5 5 -18.5s10 -4.5 20 -4.5
h34c10 0 16.667 1.5 20 4.5s5 9.16699 5 18.5v9c0 9.33301 -1.66699 15.666 -5 18.999s-10 5 -20 5h-34c-10 0 -16.667 -1.66699 -20 -5s-5 -9.66602 -5 -18.999z" />
    <glyph glyph-name="AE" unicode="&#xc6;" horiz-adv-x="634" 
d="M421 88h193v-88h-304v139h-138l-50 -139h-114l239 631h359v-88h-185v-175h155v-89h-155v-191zM310 225v293l-106 -293h106z" />
    <glyph glyph-name="Ccedilla" unicode="&#xc7;" horiz-adv-x="411" 
d="M378 422h-116v98c0 10.667 -2 17.834 -6 21.501s-11.333 5.5 -22 5.5h-47c-10.667 0 -18 -1.83301 -22 -5.5s-6 -10.834 -6 -21.501v-410c0 -10.667 2 -17.834 6 -21.501s11.333 -5.5 22 -5.5h47c10.667 0 18 1.83301 22 5.5s6 10.834 6 21.501v96h116v-108
c0 -66 -36.333 -99 -109 -99h-117c-72.667 0 -109 33 -109 99v434c0 66 36.333 99 109 99h117c72.667 0 109 -33 109 -99v-110zM158 -95v46h107v-55c0 -69.333 -38.333 -104 -115 -104h-67v83h44c20.667 0 31 10 31 30z" />
    <glyph glyph-name="Egrave" unicode="&#xc8;" horiz-adv-x="374" 
d="M164 88h192v-88h-308v631h300v-88h-184v-175h155v-89h-155v-191zM246 663h-94l-113 137h121z" />
    <glyph glyph-name="Eacute" unicode="&#xc9;" horiz-adv-x="374" 
d="M164 279v-191h192v-88h-308v631h300v-88h-184v-175h155v-89h-155zM356 800l-113 -137h-94l86 137h121z" />
    <glyph glyph-name="Ecircumflex" unicode="&#xca;" horiz-adv-x="374" 
d="M164 279v-191h192v-88h-308v631h300v-88h-184v-175h155v-89h-155zM200 740l-52 -77h-112l106 137h117l106 -137h-112z" />
    <glyph glyph-name="Edieresis" unicode="&#xcb;" horiz-adv-x="396" 
d="M242 767h116v-105h-116v105zM164 279v-191h192v-88h-308v631h300v-88h-184v-175h155v-89h-155zM154 767v-105h-116v105h116z" />
    <glyph glyph-name="Igrave" unicode="&#xcc;" horiz-adv-x="223" 
d="M72 800l86 -137h-94l-113 137h121zM54 631h115v-631h-115v631z" />
    <glyph glyph-name="Iacute" unicode="&#xcd;" horiz-adv-x="223" 
d="M65 663l86 137h121l-113 -137h-94zM54 631h115v-631h-115v631z" />
    <glyph glyph-name="Icircumflex" unicode="&#xce;" horiz-adv-x="223" 
d="M-53 663l106 137h117l106 -137h-112l-53 77l-52 -77h-112zM54 631h115v-631h-115v631z" />
    <glyph glyph-name="Idieresis" unicode="&#xcf;" horiz-adv-x="223" 
d="M54 631h115v-631h-115v631zM155 662v105h116v-105h-116zM-49 662v105h116v-105h-116z" />
    <glyph glyph-name="Eth" unicode="&#xd0;" horiz-adv-x="445" 
d="M53 631h240c72.667 0 109 -33 109 -99v-433c0 -66 -36.333 -99 -109 -99h-240v277h-52v83h52v271zM286 111v408.998c0 10.667 -2 17.834 -6 21.501s-11.333 5.5 -22 5.5h-90v-187h69v-83h-69v-193h90c10.667 0 18 1.83301 22 5.5s6 10.834 6 21.501z" />
    <glyph glyph-name="Ntilde" unicode="&#xd1;" horiz-adv-x="446" 
d="M286 663c-18.667 0 -39.833 7.16699 -63.5 21.5s-38.167 21.5 -43.5 21.5c-12 0 -18 -7.66699 -18 -23v-20h-94v32c0 28 6.33301 49.167 19 63.5s34.334 21.5 65.001 21.5h12c18.667 0 39.5 -7.16699 62.5 -21.5s37.167 -21.5 42.5 -21.5c12 0 18 7.66699 18 23v20h94
v-35c0 -27.333 -6.33301 -47.833 -19 -61.5s-34.334 -20.5 -65.001 -20.5h-10zM292.001 631h105v-631h-108l-135 418v-418h-106v631h111l133 -412v412z" />
    <glyph glyph-name="Ograve" unicode="&#xd2;" horiz-adv-x="429" 
d="M153 631h122c72.667 0 109 -33 109 -99v-433c0 -66 -36.333 -99 -109 -99h-122c-72.667 0 -109 33 -109 99v433c0 66 36.333 99 109 99zM269 115v401c0 10.667 -2 17.834 -6 21.501s-11.333 5.5 -22 5.5h-53c-11.333 0 -19 -1.83301 -23 -5.5s-6 -10.834 -6 -21.501v-401
c0 -10.667 2 -17.834 6 -21.501s11.667 -5.5 23 -5.5h53c10.667 0 18 1.83301 22 5.5s6 10.834 6 21.501zM254 663h-94l-113 137h121z" />
    <glyph glyph-name="Oacute" unicode="&#xd3;" horiz-adv-x="429" 
d="M153 631h122c72.667 0 109 -33 109 -99v-433c0 -66 -36.333 -99 -109 -99h-122c-72.667 0 -109 33 -109 99v433c0 66 36.333 99 109 99zM269 115v401c0 10.667 -2 17.834 -6 21.501s-11.333 5.5 -22 5.5h-53c-11.333 0 -19 -1.83301 -23 -5.5s-6 -10.834 -6 -21.501v-401
c0 -10.667 2 -17.834 6 -21.501s11.667 -5.5 23 -5.5h53c10.667 0 18 1.83301 22 5.5s6 10.834 6 21.501zM371 800l-113 -137h-94l86 137h121z" />
    <glyph glyph-name="Ocircumflex" unicode="&#xd4;" horiz-adv-x="429" 
d="M153 631h122c72.667 0 109 -33 109 -99v-433c0 -66 -36.333 -99 -109 -99h-122c-72.667 0 -109 33 -109 99v433c0 66 36.333 99 109 99zM269 115v401c0 10.667 -2 17.834 -6 21.501s-11.333 5.5 -22 5.5h-53c-11.333 0 -19 -1.83301 -23 -5.5s-6 -10.834 -6 -21.501v-401
c0 -10.667 2 -17.834 6 -21.501s11.667 -5.5 23 -5.5h53c10.667 0 18 1.83301 22 5.5s6 10.834 6 21.501zM212 740l-52 -77h-112l106 137h117l106 -137h-112z" />
    <glyph glyph-name="Otilde" unicode="&#xd5;" horiz-adv-x="429" 
d="M153 631h122c72.667 0 109 -33 109 -99v-433c0 -66 -36.333 -99 -109 -99h-122c-72.667 0 -109 33 -109 99v433c0 66 36.333 99 109 99zM269 115v401c0 10.667 -2 17.834 -6 21.501s-11.333 5.5 -22 5.5h-53c-11.333 0 -19 -1.83301 -23 -5.5s-6 -10.834 -6 -21.501v-401
c0 -10.667 2 -17.834 6 -21.501s11.667 -5.5 23 -5.5h53c10.667 0 18 1.83301 22 5.5s6 10.834 6 21.501zM150 683l0.000976562 -20h-94v32c0 28 6.33301 49.167 19 63.5s34.334 21.5 65.001 21.5h12c18.667 0 39.5 -7.16699 62.5 -21.5s37.167 -21.5 42.5 -21.5
c12 0 18 7.66699 18 23v20h94v-35c0 -27.333 -6.33301 -47.833 -19 -61.5s-34.334 -20.5 -65.001 -20.5h-10c-18.667 0 -39.834 7.16699 -63.501 21.5s-38.167 21.5 -43.5 21.5c-12 0 -18 -7.66699 -18 -23z" />
    <glyph glyph-name="Odieresis" unicode="&#xd6;" horiz-adv-x="422" 
d="M153 631h122c72.667 0 109 -33 109 -99v-433c0 -66 -36.333 -99 -109 -99h-122c-72.667 0 -109 33 -109 99v433c0 66 36.333 99 109 99zM269 115v401c0 10.667 -2 17.834 -6 21.501s-11.333 5.5 -22 5.5h-53c-11.333 0 -19 -1.83301 -23 -5.5s-6 -10.834 -6 -21.501v-401
c0 -10.667 2 -17.834 6 -21.501s11.667 -5.5 23 -5.5h53c10.667 0 18 1.83301 22 5.5s6 10.834 6 21.501zM170 767v-105h-116v105h116zM374 767v-105h-116v105h116z" />
    <glyph glyph-name="multiply" unicode="&#xd7;" horiz-adv-x="408" 
d="M385 424l-113 -113l113 -113l-68 -68l-113 113l-113 -113l-68 68l113 113l-113 113l68 68l113 -113l113 113z" />
    <glyph glyph-name="Oslash" unicode="&#xd8;" horiz-adv-x="434" 
d="M387 532v-433c0 -66 -36.333 -99 -109 -99h-122c-14.667 0 -28.667 1.66699 -42 5l-11 -25h-59l23 52c-13.333 16 -20 38.333 -20 67v433c0 66 36.333 99 109 99h122c16 0 30.667 -1.66699 44 -5l11 25h60l-24 -55c12 -16 18 -37.333 18 -64zM157 522v-280l120 279v1
c0 10.667 -2 17.834 -6 21.501s-11.667 5.5 -23 5.5h-62c-11.333 0 -19 -1.83301 -23 -5.5s-6 -10.834 -6 -21.501zM277 109v273.999l-120 -278c0.666992 -8.66699 3 -14.667 7 -18s11.333 -5 22 -5h62c11.333 0 19 1.83301 23 5.5s6 10.834 6 21.501z" />
    <glyph glyph-name="Ugrave" unicode="&#xd9;" horiz-adv-x="434" 
d="M272 631h115v-532c0 -66 -36.333 -99 -109 -99h-122c-72.667 0 -109 33 -109 99v532h115v-516c0 -10.667 2 -17.834 6 -21.501s11.333 -5.5 22 -5.5h53c11.333 0 19 1.83301 23 5.5s6 10.834 6 21.501v516zM263 663h-94l-113 137h121z" />
    <glyph glyph-name="Uacute" unicode="&#xda;" horiz-adv-x="434" 
d="M272 631h115v-532c0 -66 -36.333 -99 -109 -99h-122c-72.667 0 -109 33 -109 99v532h115v-516c0 -10.667 2 -17.834 6 -21.501s11.333 -5.5 22 -5.5h53c11.333 0 19 1.83301 23 5.5s6 10.834 6 21.501v516zM373 800l-113 -137h-94l86 137h121z" />
    <glyph glyph-name="Ucircumflex" unicode="&#xdb;" horiz-adv-x="434" 
d="M272 631h115v-532c0 -66 -36.333 -99 -109 -99h-122c-72.667 0 -109 33 -109 99v532h115v-516c0 -10.667 2 -17.834 6 -21.501s11.333 -5.5 22 -5.5h53c11.333 0 19 1.83301 23 5.5s6 10.834 6 21.501v516zM216 740l-52 -77h-112l106 137h117l106 -137h-112z" />
    <glyph glyph-name="Udieresis" unicode="&#xdc;" horiz-adv-x="434" 
d="M272 631h115v-532c0 -66 -36.333 -99 -109 -99h-122c-72.667 0 -109 33 -109 99v532h115v-516c0 -10.667 2 -17.834 6 -21.501s11.333 -5.5 22 -5.5h53c11.333 0 19 1.83301 23 5.5s6 10.834 6 21.501v516zM172 767v-105h-116v105h116zM376 767v-105h-116v105h116z" />
    <glyph glyph-name="Yacute" unicode="&#xdd;" horiz-adv-x="407" 
d="M265 0h-115v200l-147 431h117l86 -324l81 324h117l-139 -428v-203zM362 800l-113 -137h-94l86 137h121z" />
    <glyph glyph-name="Thorn" unicode="&#xde;" horiz-adv-x="428" 
d="M166 510h112c72.667 0 109 -33 109 -99v-192c0 -65.333 -36.333 -98 -109 -98h-112v-121h-115v631h115v-121zM272 233v163.998c0 10.667 -2 17.834 -6 21.501s-11.333 5.5 -22 5.5h-78v-218h78c10.667 0 18 1.83301 22 5.5s6 10.834 6 21.501z" />
    <glyph glyph-name="germandbls" unicode="&#xdf;" horiz-adv-x="535" 
d="M218 155h113.001v-45c0 -10.667 1.66699 -17.667 5 -21s10.333 -5.33301 21 -6h13c10.667 0 18 1.83301 22 5.5s6 10.834 6 21.501v69c0 10.667 -2 17.834 -6 21.501s-11.333 5.5 -22 5.5h-46c-37.333 0 -64.166 8.33301 -80.499 25s-24.5 41.334 -24.5 74.001v46
c0 62.667 34.333 94 103 94c13.333 0 22 1.5 26 4.5s6 9.16699 6 18.5v27c0 10.667 -1.83301 18 -5.5 22s-10.834 6 -21.501 6h-138c-10.667 0 -18.167 -2 -22.5 -6s-6.5 -11.333 -6.5 -22v-495h-115v514c0 32 8.16699 56.333 24.5 73s43.166 25 80.499 25h217
c70 0 105 -31.667 105 -95v-66c0 -28.667 -7 -49.5 -21 -62.5s-38.333 -19.5 -73 -19.5h-20c-11.333 0 -19 -1.83301 -23 -5.5s-6 -10.834 -6 -21.501v-28c0 -10.667 2 -17.834 6 -21.501s11.667 -5.5 23 -5.5h44c72 0 108 -33 108 -99v-89
c0 -32.667 -8 -57.334 -24 -74.001s-42.667 -25 -80 -25h-82c-70.667 0.666992 -106 33.667 -106 99v56z" />
    <glyph glyph-name="agrave" unicode="&#xe0;" horiz-adv-x="394" 
d="M240 491h112v-491h-114v42c-10 -28 -33 -42 -69 -42h-31c-68 0 -102 33 -102 99v293c0 66 34 99 102 99h31c39.333 0 63 -16 71 -48v48zM177 88l30 0.00195312c20.667 0 31 11 31 33v249c0 22 -10.333 33 -31 33h-30c-10.667 0 -18 -1.83301 -22 -5.5
s-6 -10.834 -6 -21.501v-261c0 -10.667 2 -17.834 6 -21.501s11.333 -5.5 22 -5.5zM271 523.002h-94l-113 137h121z" />
    <glyph glyph-name="aacute" unicode="&#xe1;" horiz-adv-x="394" 
d="M240 491h112v-491h-114v42c-10 -28 -33 -42 -69 -42h-31c-68 0 -102 33 -102 99v293c0 66 34 99 102 99h31c39.333 0 63 -16 71 -48v48zM177 88l30 0.00195312c20.667 0 31 11 31 33v249c0 22 -10.333 33 -31 33h-30c-10.667 0 -18 -1.83301 -22 -5.5
s-6 -10.834 -6 -21.501v-261c0 -10.667 2 -17.834 6 -21.501s11.333 -5.5 22 -5.5zM362 660.002l-113 -137h-94l86 137h121z" />
    <glyph glyph-name="acircumflex" unicode="&#xe2;" horiz-adv-x="394" 
d="M240 491h112v-491h-114v42c-10 -28 -33 -42 -69 -42h-31c-68 0 -102 33 -102 99v293c0 66 34 99 102 99h31c39.333 0 63 -16 71 -48v48zM177 88l30 0.00195312c20.667 0 31 11 31 33v249c0 22 -10.333 33 -31 33h-30c-10.667 0 -18 -1.83301 -22 -5.5
s-6 -10.834 -6 -21.501v-261c0 -10.667 2 -17.834 6 -21.501s11.333 -5.5 22 -5.5zM199 600.002l-52 -77h-112l106 137h117l106 -137h-112z" />
    <glyph glyph-name="atilde" unicode="&#xe3;" horiz-adv-x="394" 
d="M240 491h112v-491h-114v42c-10 -28 -33 -42 -69 -42h-31c-68 0 -102 33 -102 99v293c0 66 34 99 102 99h31c39.333 0 63 -16 71 -48v48zM177 88l30 0.00195312c20.667 0 31 11 31 33v249c0 22 -10.333 33 -31 33h-30c-10.667 0 -18 -1.83301 -22 -5.5
s-6 -10.834 -6 -21.501v-261c0 -10.667 2 -17.834 6 -21.501s11.333 -5.5 22 -5.5zM131 553.002l0.000976562 -20h-94v32c0 28 6.33301 49.167 19 63.5s34.334 21.5 65.001 21.5h12c18.667 0 39.5 -7.16699 62.5 -21.5s37.167 -21.5 42.5 -21.5c12 0 18 7.66699 18 23v20h94
v-35c0 -27.333 -6.33301 -47.833 -19 -61.5s-34.334 -20.5 -65.001 -20.5h-10c-18.667 0 -39.834 7.16699 -63.501 21.5s-38.167 21.5 -43.5 21.5c-12 0 -18 -7.66699 -18 -23z" />
    <glyph glyph-name="adieresis" unicode="&#xe4;" horiz-adv-x="394" 
d="M244 646h116v-105h-116v105zM240 491h112v-491h-114v42c-10 -28 -33 -42 -69 -42h-31c-68 0 -102 33 -102 99v293c0 66 34 99 102 99h31c39.333 0 63 -16 71 -48v48zM177 88l30 0.00195312c20.667 0 31 11 31 33v249c0 22 -10.333 33 -31 33h-30
c-10.667 0 -18 -1.83301 -22 -5.5s-6 -10.834 -6 -21.501v-261c0 -10.667 2 -17.834 6 -21.501s11.333 -5.5 22 -5.5zM156 646.002v-105h-116v105h116z" />
    <glyph glyph-name="aring" unicode="&#xe5;" horiz-adv-x="394" 
d="M240 491h112v-491h-114v42c-10 -28 -33 -42 -69 -42h-31c-68 0 -102 33 -102 99v293c0 66 34 99 102 99h31c39.333 0 63 -16 71 -48v48zM177 88l30 0.00195312c20.667 0 31 11 31 33v249c0 22 -10.333 33 -31 33h-30c-10.667 0 -18 -1.83301 -22 -5.5
s-6 -10.834 -6 -21.501v-261c0 -10.667 2 -17.834 6 -21.501s11.333 -5.5 22 -5.5zM236 529.002h-72c-54 0 -81 25 -81 75v17c0 50.667 27 76 81 76h72c54 0 81 -25.333 81 -76v-17c0 -50 -27 -75 -81 -75zM158 617.002v-9c0 -9.33301 1.66699 -15.5 5 -18.5
s10 -4.5 20 -4.5h34c10 0 16.667 1.5 20 4.5s5 9.16699 5 18.5v9c0 9.33301 -1.66699 15.666 -5 18.999s-10 5 -20 5h-34c-10 0 -16.667 -1.66699 -20 -5s-5 -9.66602 -5 -18.999z" />
    <glyph glyph-name="ae" unicode="&#xe6;" horiz-adv-x="609" 
d="M559 211l-205 0.000976562v-98c0 -10.667 2 -17.834 6 -21.501s11.667 -5.5 23 -5.5h42c10.667 0 18 1.83301 22 5.5s6 10.834 6 21.501v36h112v-50c0 -66 -36.333 -99 -109 -99h-73c-44.667 0 -74 15.333 -88 46c-5.33301 -13.333 -15.5 -24.333 -30.5 -33
s-32.167 -13 -51.5 -13h-70c-68 0 -102 33 -102 99v105l202 83v86c-0.666992 20 -11 30 -31 30h-30c-10.667 0 -18 -1.83301 -22 -5.5s-6 -10.834 -6 -21.501v-65h-113v81c0 66 34 99 102 99h70c19.333 0 36.5 -4.33301 51.5 -13s25.167 -19.667 30.5 -33
c14 30.667 43.667 46 89 46h73c72.667 0 109 -33 109 -99v-171h-7v-10zM427 405.001h-44c-11.333 0 -19 -1.83301 -23 -5.5s-6 -10.834 -6 -21.501v-90h101v90c0 10.667 -2 17.834 -6 21.501s-11.333 5.5 -22 5.5zM182 88.001l30 0.000976562c20 0 30.333 10 31 30v88
l-89 -36v-55c0 -10.667 2 -17.834 6 -21.501s11.333 -5.5 22 -5.5z" />
    <glyph glyph-name="ccedilla" unicode="&#xe7;" horiz-adv-x="380" 
d="M352 326h-111v50c0 10.667 -2 17.834 -6 21.501s-11.333 5.5 -22 5.5h-36c-10.667 0 -18 -1.83301 -22 -5.5s-6 -10.834 -6 -21.501v-261c0 -10.667 2 -17.834 6 -21.501s11.333 -5.5 22 -5.5h36c10.667 0 18 1.83301 22 5.5s6 10.834 6 21.501v51h111v-67
c0 -66 -36.333 -99 -109 -99h-98c-72.667 0 -109 33 -109 99v293c0 66 36.333 99 109 99h98c72.667 0 109 -33 109 -99v-66zM145 -95v46h107v-55c0 -69.333 -38.333 -104 -115 -104h-67v83h44c20.667 0 31 10 31 30z" />
    <glyph glyph-name="egrave" unicode="&#xe8;" horiz-adv-x="392" 
d="M147 491h106c72 0 108 -33 108 -99v-179h-213v-101c0 -10.667 1.83301 -17.834 5.5 -21.501s11.167 -5.5 22.5 -5.5h46c10.667 0 18 1.83301 22 5.5s6 10.834 6 21.501v37h110v-50c0 -66 -36.333 -99 -109 -99h-104c-72.667 0 -109 33 -109 99v293c0 66 36.333 99 109 99
zM148 286h104v94c0 10.667 -2 17.834 -6 21.501s-11.333 5.5 -22 5.5h-48c-10.667 0 -18 -1.83301 -22 -5.5s-6 -10.834 -6 -21.501v-94zM239 523h-94l-113 137h121z" />
    <glyph glyph-name="eacute" unicode="&#xe9;" horiz-adv-x="392" 
d="M147 491h106c72 0 108 -33 108 -99v-179h-213v-101c0 -10.667 1.83301 -17.834 5.5 -21.501s11.167 -5.5 22.5 -5.5h46c10.667 0 18 1.83301 22 5.5s6 10.834 6 21.501v37h110v-50c0 -66 -36.333 -99 -109 -99h-104c-72.667 0 -109 33 -109 99v293c0 66 36.333 99 109 99
zM148 286h104v94c0 10.667 -2 17.834 -6 21.501s-11.333 5.5 -22 5.5h-48c-10.667 0 -18 -1.83301 -22 -5.5s-6 -10.834 -6 -21.501v-94zM359 660l-113 -137h-94l86 137h121z" />
    <glyph glyph-name="ecircumflex" unicode="&#xea;" horiz-adv-x="391" 
d="M147 491h106c72 0 108 -33 108 -99v-179h-213v-101c0 -10.667 1.83301 -17.834 5.5 -21.501s11.167 -5.5 22.5 -5.5h46c10.667 0 18 1.83301 22 5.5s6 10.834 6 21.501v37h110v-50c0 -66 -36.333 -99 -109 -99h-104c-72.667 0 -109 33 -109 99v293c0 66 36.333 99 109 99
zM148 286h104v94c0 10.667 -2 17.834 -6 21.501s-11.333 5.5 -22 5.5h-48c-10.667 0 -18 -1.83301 -22 -5.5s-6 -10.834 -6 -21.501v-94zM201 600l-52 -77h-112l106 137h117l106 -137h-112z" />
    <glyph glyph-name="edieresis" unicode="&#xeb;" horiz-adv-x="391" 
d="M147 491h106c72 0 108 -33 108 -99v-179h-213v-101c0 -10.667 1.83301 -17.834 5.5 -21.501s11.167 -5.5 22.5 -5.5h46c10.667 0 18 1.83301 22 5.5s6 10.834 6 21.501v37h110v-50c0 -66 -36.333 -99 -109 -99h-104c-72.667 0 -109 33 -109 99v293c0 66 36.333 99 109 99
zM148 286h104v94c0 10.667 -2 17.834 -6 21.501s-11.333 5.5 -22 5.5h-48c-10.667 0 -18 -1.83301 -22 -5.5s-6 -10.834 -6 -21.501v-94zM153 646v-105h-116v105h116zM357 646v-105h-116v105h116z" />
    <glyph glyph-name="igrave" unicode="&#xec;" horiz-adv-x="199" 
d="M61 660l86 -137h-94l-113 137h121zM156 0h-113v491h113v-491z" />
    <glyph glyph-name="iacute" unicode="&#xed;" horiz-adv-x="199" 
d="M49 523l86 137h121l-113 -137h-94zM156 0h-113v491h113v-491z" />
    <glyph glyph-name="icircumflex" unicode="&#xee;" horiz-adv-x="199" 
d="M-66 523l106 137h117l106 -137h-112l-53 77l-52 -77h-112zM156 0h-113v491h113v-491z" />
    <glyph glyph-name="idieresis" unicode="&#xef;" horiz-adv-x="199" 
d="M142 541v105h116v-105h-116zM-62 541v105h116v-105h-116zM156 0h-113v491h113v-491z" />
    <glyph glyph-name="eth" unicode="&#xf0;" horiz-adv-x="412" 
d="M367 308l-0.000976562 -209.001c0 -66 -36.333 -99 -109 -99h-113c-72.667 0 -109 33 -109 99v221c0 66 36.333 99 109 99h89c-10 28 -25 57.333 -45 88l-100 -34v64l60 20c-23.333 26.667 -50 51.334 -80 74.001h157c12.667 -11.333 24.334 -23.333 35.001 -36l89 30
v-64l-52 -17c46 -71.333 69 -150 69 -236zM254.999 114.999v188c0 7.33301 -0.666992 18.333 -2 33h-76c-11.333 0 -18.833 -2 -22.5 -6s-5.5 -11.333 -5.5 -22v-193c0 -10.667 2 -17.834 6 -21.501s11.333 -5.5 22 -5.5h50c10.667 0 18 1.83301 22 5.5s6 10.834 6 21.501z
" />
    <glyph glyph-name="ntilde" unicode="&#xf1;" horiz-adv-x="399" 
d="M226 491l30 -0.000976562c68.667 0 103 -33 103 -99v-392h-114v376c0 10.667 -2 17.834 -6 21.501s-11.333 5.5 -22 5.5h-30c-20.667 0 -31 -11 -31 -33v-370h-113v491h112v-45c9.33301 30 33 45 71 45zM129 552.999l0.000976562 -20h-94v32c0 28 6.33301 49.167 19 63.5
s34.334 21.5 65.001 21.5h12c18.667 0 39.5 -7.16699 62.5 -21.5s37.167 -21.5 42.5 -21.5c12 0 18 7.66699 18 23v20h94v-35c0 -27.333 -6.33301 -47.833 -19 -61.5s-34.334 -20.5 -65.001 -20.5h-10c-18.667 0 -39.834 7.16699 -63.501 21.5s-38.167 21.5 -43.5 21.5
c-12 0 -18 -7.66699 -18 -23z" />
    <glyph glyph-name="ograve" unicode="&#xf2;" horiz-adv-x="402" 
d="M145 491h113c70.667 0 106 -33 106 -99v-293c0 -66 -35.333 -99 -106 -99h-113c-71.333 0 -107 33 -107 99v293c0 66 35.667 99 107 99zM253 112v267c0 10.667 -2 17.834 -6 21.501s-11.667 5.5 -23 5.5h-46c-11.333 0 -19 -1.83301 -23 -5.5s-6 -10.834 -6 -21.501v-267
c0 -10.667 2 -17.834 6 -21.501s11.667 -5.5 23 -5.5h46c11.333 0 19 1.83301 23 5.5s6 10.834 6 21.501zM244 523h-94l-113 137h121z" />
    <glyph glyph-name="oacute" unicode="&#xf3;" horiz-adv-x="402" 
d="M145 491h113c70.667 0 106 -33 106 -99v-293c0 -66 -35.333 -99 -106 -99h-113c-71.333 0 -107 33 -107 99v293c0 66 35.667 99 107 99zM253 112v267c0 10.667 -2 17.834 -6 21.501s-11.667 5.5 -23 5.5h-46c-11.333 0 -19 -1.83301 -23 -5.5s-6 -10.834 -6 -21.501v-267
c0 -10.667 2 -17.834 6 -21.501s11.667 -5.5 23 -5.5h46c11.333 0 19 1.83301 23 5.5s6 10.834 6 21.501zM361 660l-113 -137h-94l86 137h121z" />
    <glyph glyph-name="ocircumflex" unicode="&#xf4;" horiz-adv-x="402" 
d="M145 491h113c70.667 0 106 -33 106 -99v-293c0 -66 -35.333 -99 -106 -99h-113c-71.333 0 -107 33 -107 99v293c0 66 35.667 99 107 99zM253 112v267c0 10.667 -2 17.834 -6 21.501s-11.667 5.5 -23 5.5h-46c-11.333 0 -19 -1.83301 -23 -5.5s-6 -10.834 -6 -21.501v-267
c0 -10.667 2 -17.834 6 -21.501s11.667 -5.5 23 -5.5h46c11.333 0 19 1.83301 23 5.5s6 10.834 6 21.501zM199 600l-52 -77h-112l106 137h117l106 -137h-112z" />
    <glyph glyph-name="otilde" unicode="&#xf5;" horiz-adv-x="402" 
d="M145 491h113c70.667 0 106 -33 106 -99v-293c0 -66 -35.333 -99 -106 -99h-113c-71.333 0 -107 33 -107 99v293c0 66 35.667 99 107 99zM253 112v267c0 10.667 -2 17.834 -6 21.501s-11.667 5.5 -23 5.5h-46c-11.333 0 -19 -1.83301 -23 -5.5s-6 -10.834 -6 -21.501v-267
c0 -10.667 2 -17.834 6 -21.501s11.667 -5.5 23 -5.5h46c11.333 0 19 1.83301 23 5.5s6 10.834 6 21.501zM133 553l0.000976562 -20h-94v32c0 28 6.33301 49.167 19 63.5s34.334 21.5 65.001 21.5h12c18.667 0 39.5 -7.16699 62.5 -21.5s37.167 -21.5 42.5 -21.5
c12 0 18 7.66699 18 23v20h94v-35c0 -27.333 -6.33301 -47.833 -19 -61.5s-34.334 -20.5 -65.001 -20.5h-10c-18.667 0 -39.834 7.16699 -63.501 21.5s-38.167 21.5 -43.5 21.5c-12 0 -18 -7.66699 -18 -23z" />
    <glyph glyph-name="odieresis" unicode="&#xf6;" horiz-adv-x="402" 
d="M145 491h113c70.667 0 106 -33 106 -99v-293c0 -66 -35.333 -99 -106 -99h-113c-71.333 0 -107 33 -107 99v293c0 66 35.667 99 107 99zM253 112v267c0 10.667 -2 17.834 -6 21.501s-11.667 5.5 -23 5.5h-46c-11.333 0 -19 -1.83301 -23 -5.5s-6 -10.834 -6 -21.501v-267
c0 -10.667 2 -17.834 6 -21.501s11.667 -5.5 23 -5.5h46c11.333 0 19 1.83301 23 5.5s6 10.834 6 21.501zM157 646v-105h-116v105h116zM361 646v-105h-116v105h116z" />
    <glyph glyph-name="divide" unicode="&#xf7;" horiz-adv-x="447" 
d="M168 214h111v-96h-111v96zM168 511h111v-95h-111v95zM25 270v89h397v-89h-397z" />
    <glyph glyph-name="oslash" unicode="&#xf8;" horiz-adv-x="408" 
d="M367 392v-293c0 -66 -35.667 -99 -107 -99h-113c-15.333 -0 -28.333 1.33301 -39 4l-12 -24h-60l26 50c-14 14.667 -21 37.667 -21 69v293c0 66 35.333 99 106 99h113c16 0 29.333 -1.33301 40 -4l12 24h60l-26 -50c14 -16 21 -39 21 -69zM149 384v-187l107 206
c-3.33301 6 -12 9 -26 9h-52c-11.333 0 -19 -1.83301 -23 -5.5s-6 -11.167 -6 -22.5zM259 107v187l-107 -206c3.33301 -6 12 -9 26 -9h52c11.333 0 19 2 23 6s6 11.333 6 22z" />
    <glyph glyph-name="ugrave" unicode="&#xf9;" horiz-adv-x="399" 
d="M243 491l114 0.000976562v-491h-112v49c-8 -32.667 -31.667 -49 -71 -49h-31c-68 0 -102 33 -102 99v392h113v-376c0 -10.667 2 -17.834 6 -21.501s11.333 -5.5 22 -5.5h30c20.667 0 31 11 31 33v370zM249 523.001h-94l-113 137h121z" />
    <glyph glyph-name="uacute" unicode="&#xfa;" horiz-adv-x="399" 
d="M243 491l114 0.000976562v-491h-112v49c-8 -32.667 -31.667 -49 -71 -49h-31c-68 0 -102 33 -102 99v392h113v-376c0 -10.667 2 -17.834 6 -21.501s11.333 -5.5 22 -5.5h30c20.667 0 31 11 31 33v370zM355 660.001l-113 -137h-94l86 137h121z" />
    <glyph glyph-name="ucircumflex" unicode="&#xfb;" horiz-adv-x="397" 
d="M243 491l114 0.000976562v-491h-112v49c-8 -32.667 -31.667 -49 -71 -49h-31c-68 0 -102 33 -102 99v392h113v-376c0 -10.667 2 -17.834 6 -21.501s11.333 -5.5 22 -5.5h30c20.667 0 31 11 31 33v370zM196 600.001l-52 -77h-112l106 137h117l106 -137h-112z" />
    <glyph glyph-name="udieresis" unicode="&#xfc;" horiz-adv-x="404" 
d="M243 491l114 0.000976562v-491h-112v49c-8 -32.667 -31.667 -49 -71 -49h-31c-68 0 -102 33 -102 99v392h113v-376c0 -10.667 2 -17.834 6 -21.501s11.333 -5.5 22 -5.5h30c20.667 0 31 11 31 33v370zM151 646.001v-105h-116v105h116zM355 646.001v-105h-116v105h116z
" />
    <glyph glyph-name="yacute" unicode="&#xfd;" horiz-adv-x="377" 
d="M145 523l86 137h121l-113 -137h-94zM126 -136h-67.001v87h51c29.333 0 47.333 11.667 54 35l8 32h-54l-112 473h117l70 -378l65 378h114l-110 -521c-17.333 -70.667 -62.666 -106 -135.999 -106z" />
    <glyph glyph-name="thorn" unicode="&#xfe;" horiz-adv-x="399" 
d="M223 491h30c68.667 0 103 -33 103 -99v-293c0 -66 -34.333 -99 -103 -99h-30c-36 0 -59 14 -69 42v-178h-114v805h112v-226c8 32 31.667 48 71 48zM243 115v260.998c0 10.667 -2 17.834 -6 21.501s-11.667 5.5 -23 5.5h-29c-20.667 0 -31 -11 -31 -33v-249
c0 -22 10.333 -33 31 -33h29c11.333 0 19 1.83301 23 5.5s6 10.834 6 21.501z" />
    <glyph glyph-name="ydieresis" unicode="&#xff;" horiz-adv-x="393" 
d="M126 -136h-67.001v87h51c29.333 0 47.333 11.667 54 35l8 32h-54l-112 473h117l70 -378l65 378h114l-110 -521c-17.333 -70.667 -62.666 -106 -135.999 -106zM232.999 541v105h116v-105h-116zM28.999 541v105h116v-105h-116z" />
    <glyph glyph-name="Amacron" unicode="&#x100;" horiz-adv-x="431" 
d="M307 0l-24 131h-138l-22 -131h-115l127 631h155l133 -631h-116zM160 218h107l-55 302zM364 741v-79h-303v79h303z" />
    <glyph glyph-name="amacron" unicode="&#x101;" horiz-adv-x="394" 
d="M240 491h112v-491h-114v42c-10 -28 -33 -42 -69 -42h-31c-68 0 -102 33 -102 99v293c0 66 34 99 102 99h31c39.333 0 63 -16 71 -48v48zM177 88l30 0.00195312c20.667 0 31 11 31 33v249c0 22 -10.333 33 -31 33h-30c-10.667 0 -18 -1.83301 -22 -5.5
s-6 -10.834 -6 -21.501v-261c0 -10.667 2 -17.834 6 -21.501s11.333 -5.5 22 -5.5zM346 631.002v-79h-303v79h303z" />
    <glyph glyph-name="Abreve" unicode="&#x102;" horiz-adv-x="431" 
d="M307 0l-24 131h-138l-22 -131h-115l127 631h155l133 -631h-116zM160 218h107l-55 302zM263 663h-102c-72 0 -108 33 -108 99v38h102v-37c0 -10.667 2 -17.834 6 -21.501s11.667 -5.5 23 -5.5h56c11.333 0 19 1.83301 23 5.5s6 10.834 6 21.501v37h102v-38
c0 -66 -36 -99 -108 -99z" />
    <glyph glyph-name="abreve" unicode="&#x103;" horiz-adv-x="394" 
d="M262 660h102v-38c0 -66 -36 -99 -108 -99h-102c-72 0 -108 33 -108 99v38h102v-37c0 -10.667 2 -17.834 6 -21.501s11.667 -5.5 23 -5.5h56c11.333 0 19 1.83301 23 5.5s6 10.834 6 21.501v37zM240 491h112v-491h-114v42c-10 -28 -33 -42 -69 -42h-31
c-68 0 -102 33 -102 99v293c0 66 34 99 102 99h31c39.333 0 63 -16 71 -48v48zM177 88l30 0.00195312c20.667 0 31 11 31 33v249c0 22 -10.333 33 -31 33h-30c-10.667 0 -18 -1.83301 -22 -5.5s-6 -10.834 -6 -21.501v-261c0 -10.667 2 -17.834 6 -21.501
s11.333 -5.5 22 -5.5z" />
    <glyph glyph-name="Aogonek" unicode="&#x104;" horiz-adv-x="431" 
d="M357 -166l84 -0.000976562v-73h-102c-33.333 0 -57.5 7.5 -72.5 22.5s-22.5 37.5 -22.5 67.5v38c0 60 31.667 90 95 90h7v21h-39l-24 131h-138l-22 -131h-115l127 631h155l130 -619h3v-106h-66c-10.667 0 -17.834 -1.66699 -21.501 -5s-5.5 -10 -5.5 -20v-23
c0 -9.33301 1.83301 -15.666 5.5 -18.999s10.834 -5 21.501 -5zM160 217.999h107l-55 302z" />
    <glyph glyph-name="aogonek" unicode="&#x105;" horiz-adv-x="394" 
d="M286 -166l84 -0.000976562v-73h-102c-33.333 0 -57.5 7.5 -72.5 22.5s-22.5 37.5 -22.5 67.5v38c0 60 31.667 90 95 90h7v21h-37v42c-10 -28 -33 -42 -69 -42h-31c-68 0 -102 33 -102 99v293c0 66 34 99 102 99h31c39.333 0 63 -16 71 -48v48h112v-585h-66
c-10.667 0 -17.834 -1.66699 -21.501 -5s-5.5 -10 -5.5 -20v-23c0 -9.33301 1.83301 -15.666 5.5 -18.999s10.834 -5 21.501 -5zM177 87.999l30 0.00195312c20.667 0 31 11 31 33v249c0 22 -10.333 33 -31 33h-30c-10.667 0 -18 -1.83301 -22 -5.5s-6 -10.834 -6 -21.501
v-261c0 -10.667 2 -17.834 6 -21.501s11.333 -5.5 22 -5.5z" />
    <glyph glyph-name="Cacute" unicode="&#x106;" horiz-adv-x="411" 
d="M378 422h-116v98c0 10.667 -2 17.834 -6 21.501s-11.333 5.5 -22 5.5h-47c-10.667 0 -18 -1.83301 -22 -5.5s-6 -10.834 -6 -21.501v-410c0 -10.667 2 -17.834 6 -21.501s11.333 -5.5 22 -5.5h47c10.667 0 18 1.83301 22 5.5s6 10.834 6 21.501v96h116v-108
c0 -66 -36.333 -99 -109 -99h-117c-72.667 0 -109 33 -109 99v434c0 66 36.333 99 109 99h117c72.667 0 109 -33 109 -99v-110zM369 800l-113 -137h-94l86 137h121z" />
    <glyph glyph-name="cacute" unicode="&#x107;" horiz-adv-x="380" 
d="M145 491h98c72.667 0 109 -33 109 -99v-66h-111v50c0 10.667 -2 17.834 -6 21.501s-11.333 5.5 -22 5.5h-36c-10.667 0 -18 -1.83301 -22 -5.5s-6 -10.834 -6 -21.501v-261c0 -10.667 2 -17.834 6 -21.501s11.333 -5.5 22 -5.5h36c10.667 0 18 1.83301 22 5.5
s6 10.834 6 21.501v51h111v-67c0 -66 -36.333 -99 -109 -99h-98c-72.667 0 -109 33 -109 99v293c0 66 36.333 99 109 99zM353 660l-113 -137h-94l86 137h121z" />
    <glyph glyph-name="Ccaron" unicode="&#x10c;" horiz-adv-x="411" 
d="M378 422h-116v98c0 10.667 -2 17.834 -6 21.501s-11.333 5.5 -22 5.5h-47c-10.667 0 -18 -1.83301 -22 -5.5s-6 -10.834 -6 -21.501v-410c0 -10.667 2 -17.834 6 -21.501s11.333 -5.5 22 -5.5h47c10.667 0 18 1.83301 22 5.5s6 10.834 6 21.501v96h116v-108
c0 -66 -36.333 -99 -109 -99h-117c-72.667 0 -109 33 -109 99v434c0 66 36.333 99 109 99h117c72.667 0 109 -33 109 -99v-110zM268 663h-117l-106 137h112l52 -77l53 77h112z" />
    <glyph glyph-name="ccaron" unicode="&#x10d;" horiz-adv-x="380" 
d="M145 491h98c72.667 0 109 -33 109 -99v-66h-111v50c0 10.667 -2 17.834 -6 21.501s-11.333 5.5 -22 5.5h-36c-10.667 0 -18 -1.83301 -22 -5.5s-6 -10.834 -6 -21.501v-261c0 -10.667 2 -17.834 6 -21.501s11.333 -5.5 22 -5.5h36c10.667 0 18 1.83301 22 5.5
s6 10.834 6 21.501v51h111v-67c0 -66 -36.333 -99 -109 -99h-98c-72.667 0 -109 33 -109 99v293c0 66 36.333 99 109 99zM251 523h-117l-106 137h112l52 -77l53 77h112z" />
    <glyph glyph-name="Dcaron" unicode="&#x10e;" horiz-adv-x="446" 
d="M53 631h240c72.667 0 109 -33 109 -99v-433c0 -66 -36.333 -99 -109 -99h-240v631zM286 111v408.998c0 10.667 -2 17.834 -6 21.501s-11.333 5.5 -22 5.5h-90v-463h90c10.667 0 18 1.83301 22 5.5s6 10.834 6 21.501zM278 662.998h-117l-106 137h112l52 -77l53 77h112z
" />
    <glyph glyph-name="dcaron" unicode="&#x10f;" horiz-adv-x="427" 
d="M394 669h86v-56l-53 -127h-33v183zM238 669h114v-669h-112v49c-8 -32.667 -31.667 -49 -71 -49h-31c-68 0 -102 33 -102 99v294c0 66 34 99 102 99h31c36 0 59 -14 69 -42v219zM177 88l30 0.00195312c20.667 0 31 11 31 33v249c0 12.667 -2.33301 21.5 -7 26.5
s-12.667 7.5 -24 7.5h-30c-10.667 0 -18 -1.83301 -22 -5.5s-6 -10.834 -6 -21.501v-262c0 -10.667 2 -17.834 6 -21.501s11.333 -5.5 22 -5.5z" />
    <glyph glyph-name="Dcroat" unicode="&#x110;" horiz-adv-x="450" 
d="M53 631h240c72.667 0 109 -33 109 -99v-433c0 -66 -36.333 -99 -109 -99h-240v277h-52v83h52v271zM286 115v400.998c0 10.667 -2 17.834 -6 21.501s-11.333 5.5 -22 5.5h-90v-183h69v-83h-69v-189h90c10.667 0 18 1.83301 22 5.5s6 10.834 6 21.501z" />
    <glyph glyph-name="dcroat" unicode="&#x111;" horiz-adv-x="399" 
d="M404 611v-66h-47v-545h-112v49c-8 -32.667 -31.667 -49 -71 -49h-31c-68 0 -102 33 -102 99v293c0 66 34 99 102 99h31c36 0 59 -14 69 -42v96h-74v66h74v58h114v-58h47zM182 88l30 0.00195312c20.667 0 31 11 31 33v249c0 22 -10.333 33 -31 33h-30
c-10.667 0 -18 -1.83301 -22 -5.5s-6 -10.834 -6 -21.501v-261c0 -10.667 2 -17.834 6 -21.501s11.333 -5.5 22 -5.5z" />
    <glyph glyph-name="Emacron" unicode="&#x112;" horiz-adv-x="374" 
d="M164 88h192v-88h-308v631h300v-88h-184v-175h155v-89h-155v-191zM348 751v-79h-303v79h303z" />
    <glyph glyph-name="emacron" unicode="&#x113;" horiz-adv-x="392" 
d="M147 491h106c72 0 108 -33 108 -99v-179h-213v-101c0 -10.667 1.83301 -17.834 5.5 -21.501s11.167 -5.5 22.5 -5.5h46c10.667 0 18 1.83301 22 5.5s6 10.834 6 21.501v37h110v-50c0 -66 -36.333 -99 -109 -99h-104c-72.667 0 -109 33 -109 99v293c0 66 36.333 99 109 99
zM148 286h104v94c0 10.667 -2 17.834 -6 21.501s-11.333 5.5 -22 5.5h-48c-10.667 0 -18 -1.83301 -22 -5.5s-6 -10.834 -6 -21.501v-94zM347 631v-79h-303v79h303z" />
    <glyph glyph-name="Edotaccent" unicode="&#x116;" horiz-adv-x="374" 
d="M164 88h192v-88h-308v631h300v-88h-184v-175h155v-89h-155v-191zM267 768v-105h-122v105h122z" />
    <glyph glyph-name="edotaccent" unicode="&#x117;" horiz-adv-x="392" 
d="M147 491h106c72 0 108 -33 108 -99v-179h-213v-101c0 -10.667 1.83301 -17.834 5.5 -21.501s11.167 -5.5 22.5 -5.5h46c10.667 0 18 1.83301 22 5.5s6 10.834 6 21.501v37h110v-50c0 -66 -36.333 -99 -109 -99h-104c-72.667 0 -109 33 -109 99v293c0 66 36.333 99 109 99
zM148 286h104v94c0 10.667 -2 17.834 -6 21.501s-11.333 5.5 -22 5.5h-48c-10.667 0 -18 -1.83301 -22 -5.5s-6 -10.834 -6 -21.501v-94zM262 644v-105h-122v105h122z" />
    <glyph glyph-name="Eogonek" unicode="&#x118;" horiz-adv-x="374" 
d="M291 -166l84 -0.000976562v-73h-102c-33.333 0 -57.5 7.5 -72.5 22.5s-22.5 37.5 -22.5 67.5v38c0 60 31.667 90 95 90h7v21h-232v631h300v-88h-184v-175h155v-89h-155v-191h192v-76h1v-106h-66c-10.667 0 -17.834 -1.66699 -21.501 -5s-5.5 -10 -5.5 -20v-23
c0 -9.33301 1.83301 -15.666 5.5 -18.999s10.834 -5 21.501 -5z" />
    <glyph glyph-name="eogonek" unicode="&#x119;" horiz-adv-x="392" 
d="M147 491l106 -0.000976562c72 0 108 -33 108 -99v-179h-213v-101c0 -10.667 1.83301 -17.834 5.5 -21.501s11.167 -5.5 22.5 -5.5h46c10.667 0 18 1.83301 22 5.5s6 10.834 6 21.501v37h110v-50c0 -66 -36.333 -99 -109 -99h-4v-94h-66
c-10.667 0 -17.834 -1.66699 -21.501 -5s-5.5 -10 -5.5 -20v-23c0 -9.33301 1.83301 -15.666 5.5 -18.999s10.834 -5 21.501 -5h84v-73h-102c-33.333 0 -57.5 7.5 -72.5 22.5s-22.5 37.5 -22.5 67.5v38c0 60 31.667 90 95 90h7v21h-23c-72.667 0 -109 33 -109 99v293
c0 66 36.333 99 109 99zM148 285.999h104v94c0 10.667 -2 17.834 -6 21.501s-11.333 5.5 -22 5.5h-48c-10.667 0 -18 -1.83301 -22 -5.5s-6 -10.834 -6 -21.501v-94z" />
    <glyph glyph-name="Ecaron" unicode="&#x11a;" horiz-adv-x="374" 
d="M164 279v-191h192v-88h-308v631h300v-88h-184v-175h155v-89h-155zM258 663h-117l-106 137h112l52 -77l53 77h112z" />
    <glyph glyph-name="ecaron" unicode="&#x11b;" horiz-adv-x="392" 
d="M147 491h106c72 0 108 -33 108 -99v-179h-213v-101c0 -10.667 1.83301 -17.834 5.5 -21.501s11.167 -5.5 22.5 -5.5h46c10.667 0 18 1.83301 22 5.5s6 10.834 6 21.501v37h110v-50c0 -66 -36.333 -99 -109 -99h-104c-72.667 0 -109 33 -109 99v293c0 66 36.333 99 109 99
zM148 286h104v94c0 10.667 -2 17.834 -6 21.501s-11.333 5.5 -22 5.5h-48c-10.667 0 -18 -1.83301 -22 -5.5s-6 -10.834 -6 -21.501v-94zM258 523h-117l-106 137h112l52 -77l53 77h112z" />
    <glyph glyph-name="Gbreve" unicode="&#x11e;" horiz-adv-x="416" 
d="M378 437h-116v83c0 10.667 -2 17.834 -6 21.501s-11.333 5.5 -22 5.5h-47c-10.667 0 -18 -1.83301 -22 -5.5s-6 -10.834 -6 -21.501v-410c0 -10.667 2 -17.834 6 -21.501s11.333 -5.5 22 -5.5h47c10.667 0 18 1.83301 22 5.5s6 10.834 6 21.501v140h-50v81h166v-233
c0 -66 -36.333 -99 -109 -99h-117c-72.667 0 -109 33 -109 99v434c0 66 36.333 99 109 99h117c72.667 0 109 -33 109 -99v-95zM262 663h-102c-72 0 -108 33 -108 99v38h102v-37c0 -10.667 2 -17.834 6 -21.501s11.667 -5.5 23 -5.5h56c11.333 0 19 1.83301 23 5.5
s6 10.834 6 21.501v37h102v-38c0 -66 -36 -99 -108 -99z" />
    <glyph glyph-name="gbreve" unicode="&#x11f;" horiz-adv-x="394" 
d="M254 660h102v-38c0 -66 -36 -99 -108 -99h-102c-72 0 -108 33 -108 99v38h102v-37c0 -10.667 2 -17.834 6 -21.501s11.667 -5.5 23 -5.5h56c11.333 0 19 1.83301 23 5.5s6 10.834 6 21.501v37zM240 491l112 -0.000976562v-528c0 -66 -36.333 -99 -109 -99h-189v86h156
c10.667 0 18 1.83301 22 5.5s6 10.834 6 21.501v78c-10 -28 -33 -42 -69 -42h-31c-68 0 -102 33 -102 99v280c0 66 34 99 102 99h31c39.333 0 63 -16 71 -48v48zM177 100.999l30 0.00195312c11.333 0 19.333 2.5 24 7.5s7 13.833 7 26.5v235c0 22 -10.333 33 -31 33h-30
c-10.667 0 -18 -1.83301 -22 -5.5s-6 -10.834 -6 -21.501v-248c0 -10.667 2 -17.834 6 -21.501s11.333 -5.5 22 -5.5z" />
    <glyph glyph-name="uni0122" unicode="&#x122;" horiz-adv-x="416" 
d="M378 437h-116v83c0 10.667 -2 17.834 -6 21.501s-11.333 5.5 -22 5.5h-47c-10.667 0 -18 -1.83301 -22 -5.5s-6 -10.834 -6 -21.501v-410c0 -10.667 2 -17.834 6 -21.501s11.333 -5.5 22 -5.5h47c10.667 0 18 1.83301 22 5.5s6 10.834 6 21.501v140h-50v81h166v-233
c0 -66 -36.333 -99 -109 -99h-117c-72.667 0 -109 33 -109 99v434c0 66 36.333 99 109 99h117c72.667 0 109 -33 109 -99v-95zM158 -250v201h118v-60l-80 -141h-38z" />
    <glyph glyph-name="uni0123" unicode="&#x123;" horiz-adv-x="394" 
d="M240 491l112 -0.000976562v-528c0 -66 -36.333 -99 -109 -99h-189v86h156c10.667 0 18 1.83301 22 5.5s6 10.834 6 21.501v78c-10 -28 -33 -42 -69 -42h-31c-68 0 -102 33 -102 99v280c0 66 34 99 102 99h31c39.333 0 63 -16 71 -48v48zM177 100.999l30 0.00195312
c11.333 0 19.333 2.5 24 7.5s7 13.833 7 26.5v235c0 22 -10.333 33 -31 33h-30c-10.667 0 -18 -1.83301 -22 -5.5s-6 -10.834 -6 -21.501v-248c0 -10.667 2 -17.834 6 -21.501s11.333 -5.5 22 -5.5zM265 724.001v-201h-118v60l80 141h38z" />
    <glyph glyph-name="Imacron" unicode="&#x12a;" horiz-adv-x="223" 
d="M-40 672v79h303v-79h-303zM54 631h115v-631h-115v631z" />
    <glyph glyph-name="imacron" unicode="&#x12b;" horiz-adv-x="199" 
d="M-52 552v79h303v-79h-303zM156 0h-113v491h113v-491z" />
    <glyph glyph-name="Iogonek" unicode="&#x12e;" horiz-adv-x="223" 
d="M103 -166l84 -0.000976562v-73h-102c-33.333 0 -57.5 7.5 -72.5 22.5s-22.5 37.5 -22.5 67.5v38c0 60 31.667 90 95 90h7v21h-38v631h115v-725h-66c-10.667 0 -17.834 -1.66699 -21.501 -5s-5.5 -10 -5.5 -20v-23c0 -9.33301 1.83301 -15.666 5.5 -18.999
s10.834 -5 21.501 -5z" />
    <glyph glyph-name="iogonek" unicode="&#x12f;" horiz-adv-x="199" 
d="M90 -166l84 -0.000976562v-73h-102c-33.333 0 -57.5 7.5 -72.5 22.5s-22.5 37.5 -22.5 67.5v38c0 60 31.667 90 95 90h7v21h-36v491h113v-585h-66c-10.667 0 -17.834 -1.66699 -21.501 -5s-5.5 -10 -5.5 -20v-23c0 -9.33301 1.83301 -15.666 5.5 -18.999
s10.834 -5 21.501 -5zM159 669.999v-99h-119v99h119z" />
    <glyph glyph-name="Idotaccent" unicode="&#x130;" horiz-adv-x="223" 
d="M50 672v105h122v-105h-122zM54 631h115v-631h-115v631z" />
    <glyph glyph-name="dotlessi" unicode="&#x131;" horiz-adv-x="199" 
d="M156 0h-113v491h113v-491z" />
    <glyph glyph-name="uni0136" unicode="&#x136;" horiz-adv-x="426" 
d="M418 631l-130 -314l129 -317h-124l-125 317l126 314h124zM155 -250v201h118v-60l-80 -141h-38zM163 631v-631h-115v631h115z" />
    <glyph glyph-name="uni0137" unicode="&#x137;" horiz-adv-x="391" 
d="M390 491l-110 -236l110 -255h-119l-106 255l107 236h118zM145 -250v201h118v-60l-80 -141h-38zM156 669v-669h-113v669h113z" />
    <glyph glyph-name="Lacute" unicode="&#x139;" horiz-adv-x="334" 
d="M163 88h168v-88h-283v631h115v-543zM267 800l-113 -137h-94l86 137h121z" />
    <glyph glyph-name="lacute" unicode="&#x13a;" horiz-adv-x="199" 
d="M156 0h-113v669h113v-669zM51 701l86 137h121l-113 -137h-94z" />
    <glyph glyph-name="uni013B" unicode="&#x13b;" horiz-adv-x="334" 
d="M163 88h168v-88h-283v631h115v-543zM129 -250v201h118v-60l-80 -141h-38z" />
    <glyph glyph-name="uni013C" unicode="&#x13c;" horiz-adv-x="199" 
d="M40 -49h119v-60l-81 -141h-38v201zM156 0h-113v669h113v-669z" />
    <glyph glyph-name="Lcaron" unicode="&#x13d;" horiz-adv-x="334" 
d="M163 88h168v-88h-283v631h115v-543zM269 803l-106 -137h-117l-106 137h112l52 -77l53 77h112z" />
    <glyph glyph-name="lcaron" unicode="&#x13e;" horiz-adv-x="236" 
d="M156 0h-113v669h113v-669zM199 669h86v-56l-53 -127h-33v183z" />
    <glyph glyph-name="Lslash" unicode="&#x141;" horiz-adv-x="346" 
d="M167 88h168v-88h-283v247l-79 -37v84l79 37v300h115v-245l104 49v-84l-104 -49v-214z" />
    <glyph glyph-name="lslash" unicode="&#x142;" horiz-adv-x="209" 
d="M161 0h-113v298l-88 -42v83l88 42v288h113v-235l97 46v-83l-97 -46v-351z" />
    <glyph glyph-name="Nacute" unicode="&#x143;" horiz-adv-x="446" 
d="M292 631h105v-631h-108l-135 418v-418h-106v631h111l133 -412v412zM173 663l86 137h121l-113 -137h-94z" />
    <glyph glyph-name="nacute" unicode="&#x144;" horiz-adv-x="399" 
d="M226 491l30 -0.000976562c68.667 0 103 -33 103 -99v-392h-114v376c0 10.667 -2 17.834 -6 21.501s-11.333 5.5 -22 5.5h-30c-20.667 0 -31 -11 -31 -33v-370h-113v491h112v-45c9.33301 30 33 45 71 45zM352 659.999l-113 -137h-94l86 137h121z" />
    <glyph glyph-name="uni0145" unicode="&#x145;" horiz-adv-x="446" 
d="M155 -49h118v-60l-80 -141h-38v201zM292 631h105v-631h-108l-135 418v-418h-106v631h111l133 -412v412z" />
    <glyph glyph-name="uni0146" unicode="&#x146;" horiz-adv-x="399" 
d="M226 491l30 -0.000976562c68.667 0 103 -33 103 -99v-392h-114v376c0 10.667 -2 17.834 -6 21.501s-11.333 5.5 -22 5.5h-30c-20.667 0 -31 -11 -31 -33v-370h-113v491h112v-45c9.33301 30 33 45 71 45zM140 -250.001v201h118v-60l-80 -141h-38z" />
    <glyph glyph-name="Ncaron" unicode="&#x147;" horiz-adv-x="446" 
d="M292 631h105v-631h-108l-135 418v-418h-106v631h111l133 -412v412zM165 662l-106 137h112l52 -77l53 77h112l-106 -137h-117z" />
    <glyph glyph-name="ncaron" unicode="&#x148;" horiz-adv-x="399" 
d="M226 491l30 -0.000976562c68.667 0 103 -33 103 -99v-392h-114v376c0 10.667 -2 17.834 -6 21.501s-11.333 5.5 -22 5.5h-30c-20.667 0 -31 -11 -31 -33v-370h-113v491h112v-45c9.33301 30 33 45 71 45zM250 522.999h-117l-106 137h112l52 -77l53 77h112z" />
    <glyph glyph-name="Omacron" unicode="&#x14c;" horiz-adv-x="429" 
d="M153 631h122c72.667 0 109 -33 109 -99v-433c0 -66 -36.333 -99 -109 -99h-122c-72.667 0 -109 33 -109 99v433c0 66 36.333 99 109 99zM269 115v401c0 10.667 -2 17.834 -6 21.501s-11.333 5.5 -22 5.5h-53c-11.333 0 -19 -1.83301 -23 -5.5s-6 -10.834 -6 -21.501v-401
c0 -10.667 2 -17.834 6 -21.501s11.667 -5.5 23 -5.5h53c10.667 0 18 1.83301 22 5.5s6 10.834 6 21.501zM365 741v-79h-303v79h303z" />
    <glyph glyph-name="omacron" unicode="&#x14d;" horiz-adv-x="402" 
d="M145 491h113c70.667 0 106 -33 106 -99v-293c0 -66 -35.333 -99 -106 -99h-113c-71.333 0 -107 33 -107 99v293c0 66 35.667 99 107 99zM253 112v267c0 10.667 -2 17.834 -6 21.501s-11.667 5.5 -23 5.5h-46c-11.333 0 -19 -1.83301 -23 -5.5s-6 -10.834 -6 -21.501v-267
c0 -10.667 2 -17.834 6 -21.501s11.667 -5.5 23 -5.5h46c11.333 0 19 1.83301 23 5.5s6 10.834 6 21.501zM348 631v-79h-303v79h303z" />
    <glyph glyph-name="Ohungarumlaut" unicode="&#x150;" horiz-adv-x="422" 
d="M153 631h122c72.667 0 109 -33 109 -99v-433c0 -66 -36.333 -99 -109 -99h-122c-72.667 0 -109 33 -109 99v433c0 66 36.333 99 109 99zM269 115v401c0 10.667 -2 17.834 -6 21.501s-11.333 5.5 -22 5.5h-53c-11.333 0 -19 -1.83301 -23 -5.5s-6 -10.834 -6 -21.501v-401
c0 -10.667 2 -17.834 6 -21.501s11.667 -5.5 23 -5.5h53c10.667 0 18 1.83301 22 5.5s6 10.834 6 21.501zM297 799l-113 -137h-79l86 137h106zM324 662h-79l86 137h106z" />
    <glyph glyph-name="ohungarumlaut" unicode="&#x151;" horiz-adv-x="402" 
d="M145 491h113c70.667 0 106 -33 106 -99v-293c0 -66 -35.333 -99 -106 -99h-113c-71.333 0 -107 33 -107 99v293c0 66 35.667 99 107 99zM253 112v267c0 10.667 -2 17.834 -6 21.501s-11.667 5.5 -23 5.5h-46c-11.333 0 -19 -1.83301 -23 -5.5s-6 -10.834 -6 -21.501v-267
c0 -10.667 2 -17.834 6 -21.501s11.667 -5.5 23 -5.5h46c11.333 0 19 1.83301 23 5.5s6 10.834 6 21.501zM281 660l-113 -137h-79l86 137h106zM308 523h-79l86 137h106z" />
    <glyph glyph-name="OE" unicode="&#x152;" horiz-adv-x="615" 
d="M394 84h192.001v-84h-280v19c-16 -12.667 -37 -19 -63 -19h-77c-72.667 0 -109 33 -109 99v433c0 66 36.333 99 109 99h76c27.333 0 48.666 -6.66699 63.999 -20v20h272v-84h-184v-182h155v-83h-155v-198zM282.001 111v409c0 10.667 -2 17.834 -6 21.501
s-11.667 5.5 -23 5.5h-53c-10.667 0 -18 -1.83301 -22 -5.5s-6 -10.834 -6 -21.501v-409c0 -10.667 2 -17.834 6 -21.501s11.333 -5.5 22 -5.5h53c11.333 0 19 1.83301 23 5.5s6 10.834 6 21.501z" />
    <glyph glyph-name="oe" unicode="&#x153;" horiz-adv-x="657" 
d="M384 491h73c72.667 0 109 -33 109 -99v-181h-212v-98c0 -10.667 2 -17.834 6 -21.501s11.667 -5.5 23 -5.5h42c10.667 0 18 1.83301 22 5.5s6 10.834 6 21.501v36h112v-50c0 -66 -36.333 -99 -109 -99h-73c-44.667 -0 -74 15.333 -88 46
c-5.33301 -13.333 -15.5 -24.333 -30.5 -33s-32.167 -13 -51.5 -13h-70c-68 0 -102 33 -102 99v293c0 66 34 99 102 99h70c19.333 0 36.5 -4.33301 51.5 -13s25.167 -19.667 30.5 -33c14 30.667 43.667 46 89 46zM212 403l-30 0.00195312c-10.667 0 -18 -1.83301 -22 -5.5
s-6 -10.834 -6 -21.501v-261c0 -10.667 2 -17.834 6 -21.501s11.333 -5.5 22 -5.5h30c20 0 30.333 10 31 30v255c-0.666992 20 -11 30 -31 30zM354 288.002h101v90c0 10.667 -2 17.834 -6 21.501s-11.333 5.5 -22 5.5h-44c-11.333 0 -19 -1.83301 -23 -5.5
s-6 -10.834 -6 -21.501v-90z" />
    <glyph glyph-name="Racute" unicode="&#x154;" horiz-adv-x="430" 
d="M163 246v-246h-115v631h232c72.667 0 109 -33 109 -99v-187c0 -54.667 -24.333 -86.667 -73 -96l105 -249h-124l-96 246h-38zM163 543v-212.002h83c10.667 0 18 1.83301 22 5.5s6 10.834 6 21.501v158c0 10.667 -2 17.834 -6 21.501s-11.333 5.5 -22 5.5h-83z
M367 798.998l-113 -137h-94l86 137h121z" />
    <glyph glyph-name="racute" unicode="&#x155;" horiz-adv-x="266" 
d="M155 491l0.000976562 -63c5.33301 19.333 15.666 35 30.999 47s34.333 18 57 18h18v-98h-42c-42 0 -63 -24 -63 -72v-323h-113v491h112zM313.001 660l-113 -137h-94l86 137h121z" />
    <glyph glyph-name="uni0156" unicode="&#x156;" horiz-adv-x="430" 
d="M163 246v-246h-115v631h232c72.667 0 109 -33 109 -99v-187c0 -54.667 -24.333 -86.667 -73 -96l105 -249h-124l-96 246h-38zM163 543v-212.002h83c10.667 0 18 1.83301 22 5.5s6 10.834 6 21.501v158c0 10.667 -2 17.834 -6 21.501s-11.333 5.5 -22 5.5h-83z
M155 -250.002v201h118v-60l-80 -141h-38z" />
    <glyph glyph-name="uni0157" unicode="&#x157;" horiz-adv-x="266" 
d="M243 493h18.001v-98h-42c-42 0 -63 -24 -63 -72v-323h-113v491h112v-63c5.33301 19.333 15.666 35 30.999 47s34.333 18 57 18zM42.001 -250v201h118v-60l-80 -141h-38z" />
    <glyph glyph-name="Rcaron" unicode="&#x158;" horiz-adv-x="430" 
d="M163 246v-246h-115v631h232c72.667 0 109 -33 109 -99v-187c0 -54.667 -24.333 -86.667 -73 -96l105 -249h-124l-96 246h-38zM163 543v-212.002h83c10.667 0 18 1.83301 22 5.5s6 10.834 6 21.501v158c0 10.667 -2 17.834 -6 21.501s-11.333 5.5 -22 5.5h-83z
M271 661.998h-117l-106 137h112l52 -77l53 77h112z" />
    <glyph glyph-name="rcaron" unicode="&#x159;" horiz-adv-x="266" 
d="M155 491l0.000976562 -63c5.33301 19.333 15.666 35 30.999 47s34.333 18 57 18h18v-98h-42c-42 0 -63 -24 -63 -72v-323h-113v491h112zM210.001 523h-117l-106 137h112l52 -77l53 77h112z" />
    <glyph glyph-name="Sacute" unicode="&#x15a;" horiz-adv-x="399" 
d="M248 115v135c0 10.667 -2 17.834 -6 21.501s-11.333 5.5 -22 5.5h-81c-68.667 0 -103 33.333 -103 100v155c0 66 36 99 108 99h110c72 0 108 -33 108 -99v-88h-116v72c0 10.667 -2 17.834 -6 21.501s-11.333 5.5 -22 5.5h-38c-11.333 0 -19 -1.83301 -23 -5.5
s-6 -10.834 -6 -21.501v-127c0 -10.667 2 -17.834 6 -21.501s11.667 -5.5 23 -5.5h79c70 0 105 -32.667 105 -98v-165c0 -66 -36.333 -99 -109 -99h-108c-72.667 0 -109 33 -109 99v87h115v-71c0 -10.667 2 -17.834 6 -21.501s11.667 -5.5 23 -5.5h38
c10.667 0 18 1.83301 22 5.5s6 10.834 6 21.501zM156 663l86 137h121l-113 -137h-94z" />
    <glyph glyph-name="sacute" unicode="&#x15b;" horiz-adv-x="362" 
d="M221 108v69c0 10.667 -2 17.834 -6 21.501s-11.667 5.5 -23 5.5h-54c-71.333 0 -107 32.667 -107 98v90c0 66 36.333 99 109 99h79c72 0 108 -33 108 -99v-46h-109v37c0 10.667 -2 17.834 -6 21.501s-11.333 5.5 -22 5.5h-20c-11.333 0 -19 -1.83301 -23 -5.5
s-6 -10.834 -6 -21.501v-72c0 -10.667 2 -17.834 6 -21.501s11.667 -5.5 23 -5.5h54c72 0 108 -32.667 108 -98v-87c0 -66 -36.333 -99 -109 -99h-81c-72.667 0 -109 33 -109 99v45h111v-36c0 -10.667 2 -17.834 6 -21.501s11.333 -5.5 22 -5.5h20
c11.333 0 19 1.83301 23 5.5s6 10.834 6 21.501zM141 523l86 137h121l-113 -137h-94z" />
    <glyph glyph-name="uni015E" unicode="&#x15e;" horiz-adv-x="399" 
d="M140 -49h118v-60l-80 -141h-38v201zM248 115v135c0 10.667 -2 17.834 -6 21.501s-11.333 5.5 -22 5.5h-81c-68.667 0 -103 33.333 -103 100v155c0 66 36 99 108 99h110c72 0 108 -33 108 -99v-88h-116v72c0 10.667 -2 17.834 -6 21.501s-11.333 5.5 -22 5.5h-38
c-11.333 0 -19 -1.83301 -23 -5.5s-6 -10.834 -6 -21.501v-127c0 -10.667 2 -17.834 6 -21.501s11.667 -5.5 23 -5.5h79c70 0 105 -32.667 105 -98v-165c0 -66 -36.333 -99 -109 -99h-108c-72.667 0 -109 33 -109 99v87h115v-71c0 -10.667 2 -17.834 6 -21.501
s11.667 -5.5 23 -5.5h38c10.667 0 18 1.83301 22 5.5s6 10.834 6 21.501z" />
    <glyph glyph-name="uni015F" unicode="&#x15f;" horiz-adv-x="362" 
d="M121 -49h118v-60l-80 -141h-38v201zM221 108v69c0 10.667 -2 17.834 -6 21.501s-11.667 5.5 -23 5.5h-54c-71.333 0 -107 32.667 -107 98v90c0 66 36.333 99 109 99h79c72 0 108 -33 108 -99v-46h-109v37c0 10.667 -2 17.834 -6 21.501s-11.333 5.5 -22 5.5h-20
c-11.333 0 -19 -1.83301 -23 -5.5s-6 -10.834 -6 -21.501v-72c0 -10.667 2 -17.834 6 -21.501s11.667 -5.5 23 -5.5h54c72 0 108 -32.667 108 -98v-87c0 -66 -36.333 -99 -109 -99h-81c-72.667 0 -109 33 -109 99v45h111v-36c0 -10.667 2 -17.834 6 -21.501
s11.333 -5.5 22 -5.5h20c11.333 0 19 1.83301 23 5.5s6 10.834 6 21.501z" />
    <glyph glyph-name="Scaron" unicode="&#x160;" horiz-adv-x="399" 
d="M248 115v135c0 10.667 -2 17.834 -6 21.501s-11.333 5.5 -22 5.5h-81c-68.667 0 -103 33.333 -103 100v155c0 66 36 99 108 99h110c72 0 108 -33 108 -99v-88h-116v72c0 10.667 -2 17.834 -6 21.501s-11.333 5.5 -22 5.5h-38c-11.333 0 -19 -1.83301 -23 -5.5
s-6 -10.834 -6 -21.501v-127c0 -10.667 2 -17.834 6 -21.501s11.667 -5.5 23 -5.5h79c70 0 105 -32.667 105 -98v-165c0 -66 -36.333 -99 -109 -99h-108c-72.667 0 -109 33 -109 99v87h115v-71c0 -10.667 2 -17.834 6 -21.501s11.667 -5.5 23 -5.5h38
c10.667 0 18 1.83301 22 5.5s6 10.834 6 21.501zM141 663l-106 137h112l52 -77l53 77h112l-106 -137h-117z" />
    <glyph glyph-name="scaron" unicode="&#x161;" horiz-adv-x="362" 
d="M221 108v69c0 10.667 -2 17.834 -6 21.501s-11.667 5.5 -23 5.5h-54c-71.333 0 -107 32.667 -107 98v90c0 66 36.333 99 109 99h79c72 0 108 -33 108 -99v-46h-109v37c0 10.667 -2 17.834 -6 21.501s-11.333 5.5 -22 5.5h-20c-11.333 0 -19 -1.83301 -23 -5.5
s-6 -10.834 -6 -21.501v-72c0 -10.667 2 -17.834 6 -21.501s11.667 -5.5 23 -5.5h54c72 0 108 -32.667 108 -98v-87c0 -66 -36.333 -99 -109 -99h-81c-72.667 0 -109 33 -109 99v45h111v-36c0 -10.667 2 -17.834 6 -21.501s11.333 -5.5 22 -5.5h20
c11.333 0 19 1.83301 23 5.5s6 10.834 6 21.501zM121 523l-106 137h112l52 -77l53 77h112l-106 -137h-117z" />
    <glyph glyph-name="uni0162" unicode="&#x162;" horiz-adv-x="346" 
d="M5 631h336v-88h-111v-543h-115v543h-110v88zM113 -250v201h118v-60l-80 -141h-38z" />
    <glyph glyph-name="uni0163" unicode="&#x163;" horiz-adv-x="346" 
d="M5 631h336v-88h-111v-543h-115v543h-110v88zM114 -250v201h118v-60l-80 -141h-38z" />
    <glyph glyph-name="Tcaron" unicode="&#x164;" horiz-adv-x="346" 
d="M341 631v-88h-111v-543h-115v543h-110v88h336zM230 663h-117l-106 137h112l52 -77l53 77h112z" />
    <glyph glyph-name="tcaron" unicode="&#x165;" horiz-adv-x="244" 
d="M210 687h94v-55l-62 -108h-32v163zM167 579v-87.999h67v-88h-67v-285c0 -10.667 2 -17.834 6 -21.501s11.667 -5.5 23 -5.5h37v-91h-70c-72.667 0 -109 33 -109 99v304h-49v88h49v88h113z" />
    <glyph glyph-name="Umacron" unicode="&#x16a;" horiz-adv-x="434" 
d="M272 631h115v-532c0 -66 -36.333 -99 -109 -99h-122c-72.667 0 -109 33 -109 99v532h115v-516c0 -10.667 2 -17.834 6 -21.501s11.333 -5.5 22 -5.5h53c11.333 0 19 1.83301 23 5.5s6 10.834 6 21.501v516zM369 741v-79h-303v79h303z" />
    <glyph glyph-name="umacron" unicode="&#x16b;" horiz-adv-x="399" 
d="M243 491l114 0.000976562v-491h-112v49c-8 -32.667 -31.667 -49 -71 -49h-31c-68 0 -102 33 -102 99v392h113v-376c0 -10.667 2 -17.834 6 -21.501s11.333 -5.5 22 -5.5h30c20.667 0 31 11 31 33v370zM349 631.001v-79h-303v79h303z" />
    <glyph glyph-name="Uring" unicode="&#x16e;" horiz-adv-x="434" 
d="M272 631h115v-532c0 -66 -36.333 -99 -109 -99h-122c-72.667 0 -109 33 -109 99v532h115v-516c0 -10.667 2 -17.834 6 -21.501s11.333 -5.5 22 -5.5h53c11.333 0 19 1.83301 23 5.5s6 10.834 6 21.501v516zM252 662h-72c-54 0 -81 25 -81 75v17c0 50.667 27 76 81 76h72
c54 0 81 -25.333 81 -76v-17c0 -50 -27 -75 -81 -75zM174 750v-9c0 -9.33301 1.66699 -15.5 5 -18.5s10 -4.5 20 -4.5h34c10 0 16.667 1.5 20 4.5s5 9.16699 5 18.5v9c0 9.33301 -1.66699 15.666 -5 18.999s-10 5 -20 5h-34c-10 0 -16.667 -1.66699 -20 -5
s-5 -9.66602 -5 -18.999z" />
    <glyph glyph-name="uring" unicode="&#x16f;" horiz-adv-x="399" 
d="M243 491l114 0.000976562v-491h-112v49c-8 -32.667 -31.667 -49 -71 -49h-31c-68 0 -102 33 -102 99v392h113v-376c0 -10.667 2 -17.834 6 -21.501s11.333 -5.5 22 -5.5h30c20.667 0 31 11 31 33v370zM239 527.001h-72c-54 0 -81 25 -81 75v17c0 50.667 27 76 81 76h72
c54 0 81 -25.333 81 -76v-17c0 -50 -27 -75 -81 -75zM161 615.001v-9c0 -9.33301 1.66699 -15.5 5 -18.5s10 -4.5 20 -4.5h34c10 0 16.667 1.5 20 4.5s5 9.16699 5 18.5v9c0 9.33301 -1.66699 15.666 -5 18.999s-10 5 -20 5h-34c-10 0 -16.667 -1.66699 -20 -5
s-5 -9.66602 -5 -18.999z" />
    <glyph glyph-name="Uhungarumlaut" unicode="&#x170;" horiz-adv-x="424" 
d="M272 115v516h115v-532c0 -66 -36.333 -99 -109 -99h-122c-72.667 0 -109 33 -109 99v532h115v-516c0 -10.667 2 -17.834 6 -21.501s11.333 -5.5 22 -5.5h53c11.333 0 19 1.83301 23 5.5s6 10.834 6 21.501zM294 800l-113 -137h-79l86 137h106zM321 663h-79l86 137h106z
" />
    <glyph glyph-name="uhungarumlaut" unicode="&#x171;" horiz-adv-x="399" 
d="M243 491l114 0.000976562v-491h-112v49c-8 -32.667 -31.667 -49 -71 -49h-31c-68 0 -102 33 -102 99v392h113v-376c0 -10.667 2 -17.834 6 -21.501s11.333 -5.5 22 -5.5h30c20.667 0 31 11 31 33v370zM273 660.001l-113 -137h-79l86 137h106zM300 523.001h-79l86 137h106
z" />
    <glyph glyph-name="Uogonek" unicode="&#x172;" horiz-adv-x="434" 
d="M272 631l115 -0.000976562v-532c0 -66 -36.333 -99 -109 -99h-14v-94h-66c-10.667 0 -17.834 -1.66699 -21.501 -5s-5.5 -10 -5.5 -20v-23c0 -9.33301 1.83301 -15.666 5.5 -18.999s10.834 -5 21.501 -5h84v-73h-102c-33.333 0 -57.5 7.5 -72.5 22.5
s-22.5 37.5 -22.5 67.5v38c0 60 31.667 90 95 90h7v21h-31c-72.667 0 -109 33 -109 99v532h115v-516c0 -10.667 2 -17.834 6 -21.501s11.333 -5.5 22 -5.5h53c11.333 0 19 1.83301 23 5.5s6 10.834 6 21.501v516z" />
    <glyph glyph-name="uogonek" unicode="&#x173;" horiz-adv-x="399" 
d="M291 -166h84v-73h-102c-33.333 0 -57.5 7.5 -72.5 22.5s-22.5 37.5 -22.5 67.5v38c0 60 31.667 90 95 90h7v21h-35v49c-8 -32.667 -31.667 -49 -71 -49h-31c-68 0 -102 33 -102 99v392h113v-376c0 -10.667 2 -17.834 6 -21.501s11.333 -5.5 22 -5.5h30
c20.667 0 31 11 31 33v370h114v-585h-66c-10.667 0 -17.834 -1.66699 -21.501 -5s-5.5 -10 -5.5 -20v-23c0 -9.33301 1.83301 -15.666 5.5 -18.999s10.834 -5 21.501 -5z" />
    <glyph glyph-name="Ydieresis" unicode="&#x178;" horiz-adv-x="399" 
d="M265 0h-115v200l-147 431h117l86 -324l81 324h117l-139 -428v-203zM157 775v-105h-116v105h116zM361 775v-105h-116v105h116z" />
    <glyph glyph-name="Zacute" unicode="&#x179;" horiz-adv-x="357" 
d="M345 631v-88l-215 -455h210v-88h-328v88l215 455h-204v88h322zM344 800l-113 -137h-94l86 137h121z" />
    <glyph glyph-name="zacute" unicode="&#x17a;" horiz-adv-x="321" 
d="M308 85v-85h-295v85l172 321h-161v85h280v-85l-174 -321h178zM327 660l-113 -137h-94l86 137h121z" />
    <glyph glyph-name="Zdotaccent" unicode="&#x17b;" horiz-adv-x="357" 
d="M345 631v-88l-215 -455h210v-88h-328v88l215 455h-204v88h322zM249 768v-105h-122v105h122z" />
    <glyph glyph-name="zdotaccent" unicode="&#x17c;" horiz-adv-x="321" 
d="M308 85v-85h-295v85l172 321h-161v85h280v-85l-174 -321h178zM228 644v-105h-122v105h122z" />
    <glyph glyph-name="Zcaron" unicode="&#x17d;" horiz-adv-x="357" 
d="M23 543v88h322v-88l-215 -455h210v-88h-328v88l215 455h-204zM245 663h-117l-106 137h112l52 -77l53 77h112z" />
    <glyph glyph-name="zcaron" unicode="&#x17e;" horiz-adv-x="321" 
d="M308 85v-85h-295v85l172 321h-161v85h280v-85l-174 -321h178zM223 523h-117l-106 137h112l52 -77l53 77h112z" />
    <glyph glyph-name="florin" unicode="&#x192;" horiz-adv-x="381" 
d="M338 578l-49 -0.00195312c-10.667 0 -17.667 -1.66699 -21 -5s-5.66602 -10.666 -6.99902 -21.999l-8 -60h85v-88h-97l-60 -448c-4.66699 -33.333 -14.834 -58.166 -30.501 -74.499s-41.834 -24.5 -78.501 -24.5h-82v91h49c10.667 0 17.834 1.83301 21.501 5.5
s6.16699 10.834 7.5 21.501l58 429h-67v88h78l11 79c4 33.333 14 58.166 30 74.499s42 24.5 78 24.5h82v-91z" />
    <glyph glyph-name="uni0218" unicode="&#x218;" horiz-adv-x="399" 
d="M140 -49h118v-60l-80 -141h-38v201zM248 115v135c0 10.667 -2 17.834 -6 21.501s-11.333 5.5 -22 5.5h-81c-68.667 0 -103 33.333 -103 100v155c0 66 36 99 108 99h110c72 0 108 -33 108 -99v-88h-116v72c0 10.667 -2 17.834 -6 21.501s-11.333 5.5 -22 5.5h-38
c-11.333 0 -19 -1.83301 -23 -5.5s-6 -10.834 -6 -21.501v-127c0 -10.667 2 -17.834 6 -21.501s11.667 -5.5 23 -5.5h79c70 0 105 -32.667 105 -98v-165c0 -66 -36.333 -99 -109 -99h-108c-72.667 0 -109 33 -109 99v87h115v-71c0 -10.667 2 -17.834 6 -21.501
s11.667 -5.5 23 -5.5h38c10.667 0 18 1.83301 22 5.5s6 10.834 6 21.501z" />
    <glyph glyph-name="uni0219" unicode="&#x219;" horiz-adv-x="362" 
d="M126 -49h119v-60l-81 -141h-38v201zM221 108v69c0 10.667 -2 17.834 -6 21.501s-11.667 5.5 -23 5.5h-54c-71.333 0 -107 32.667 -107 98v90c0 66 36.333 99 109 99h79c72 0 108 -33 108 -99v-46h-109v37c0 10.667 -2 17.834 -6 21.501s-11.333 5.5 -22 5.5h-20
c-11.333 0 -19 -1.83301 -23 -5.5s-6 -10.834 -6 -21.501v-72c0 -10.667 2 -17.834 6 -21.501s11.667 -5.5 23 -5.5h54c72 0 108 -32.667 108 -98v-87c0 -66 -36.333 -99 -109 -99h-81c-72.667 0 -109 33 -109 99v45h111v-36c0 -10.667 2 -17.834 6 -21.501
s11.333 -5.5 22 -5.5h20c11.333 0 19 1.83301 23 5.5s6 10.834 6 21.501z" />
    <glyph glyph-name="uni021A" unicode="&#x21a;" horiz-adv-x="346" 
d="M5 631h336v-88h-111v-543h-115v543h-110v88zM114 -250v201h118v-60l-80 -141h-38z" />
    <glyph glyph-name="uni021B" unicode="&#x21b;" horiz-adv-x="244" 
d="M234 403l-67 0.000976562v-285c0 -10.667 2 -17.834 6 -21.501s11.667 -5.5 23 -5.5h37v-91h-70c-72.667 0 -109 33 -109 99v304h-49v88h49v88h113v-88h67v-88zM80 -249.999v201h118v-60l-80 -141h-38z" />
    <glyph glyph-name="circumflex" unicode="&#x2c6;" horiz-adv-x="444" 
d="M57 523l106 137h117l106 -137h-112l-53 77l-52 -77h-112z" />
    <glyph glyph-name="caron" unicode="&#x2c7;" horiz-adv-x="444" 
d="M163 523l-106 137h112l52 -77l53 77h112l-106 -137h-117z" />
    <glyph glyph-name="uni02C9" unicode="&#x2c9;" horiz-adv-x="444" 
d="M70 552v79h303v-79h-303z" />
    <glyph glyph-name="breve" unicode="&#x2d8;" horiz-adv-x="444" 
d="M279 660h102v-38c0 -66 -36 -99 -108 -99h-102c-72 0 -108 33 -108 99v38h102v-37c0 -10.667 2 -17.834 6 -21.501s11.667 -5.5 23 -5.5h56c11.333 0 19 1.83301 23 5.5s6 10.834 6 21.501v37z" />
    <glyph glyph-name="dotaccent" unicode="&#x2d9;" horiz-adv-x="444" 
d="M161 539v105h122v-105h-122z" />
    <glyph glyph-name="ring" unicode="&#x2da;" horiz-adv-x="444" 
d="M264 587v9c0 9.33301 -1.66699 15.666 -5 18.999s-10 5 -20 5h-34c-10 0 -16.667 -1.66699 -20 -5s-5 -9.66602 -5 -18.999v-9c0 -9.33301 1.66699 -15.5 5 -18.5s10 -4.5 20 -4.5h34c10 0 16.667 1.5 20 4.5s5 9.16699 5 18.5zM339 600v-17c0 -50 -27 -75 -81 -75h-72
c-54 0 -81 25 -81 75v17c0 50.667 27 76 81 76h72c54 0 81 -25.333 81 -76z" />
    <glyph glyph-name="ogonek" unicode="&#x2db;" horiz-adv-x="444" 
d="M240 -166l84 -0.000976562v-73h-102c-33.333 0 -57.5 7.5 -72.5 22.5s-22.5 37.5 -22.5 67.5v38c0 60 31.667 90 95 90h7v33h77v-106h-66c-10.667 0 -17.834 -1.66699 -21.501 -5s-5.5 -10 -5.5 -20v-23c0 -9.33301 1.83301 -15.666 5.5 -18.999s10.834 -5 21.501 -5z
" />
    <glyph glyph-name="tilde" unicode="&#x2dc;" horiz-adv-x="444" 
d="M284 533c-18.667 0 -39.833 7.16699 -63.5 21.5s-38.167 21.5 -43.5 21.5c-12 0 -18 -7.66699 -18 -23v-20h-94v32c0 28 6.33301 49.167 19 63.5s34.334 21.5 65.001 21.5h12c18.667 0 39.5 -7.16699 62.5 -21.5s37.167 -21.5 42.5 -21.5c12 0 18 7.66699 18 23v20h94
v-35c0 -27.333 -6.33301 -47.833 -19 -61.5s-34.334 -20.5 -65.001 -20.5h-10z" />
    <glyph glyph-name="hungarumlaut" unicode="&#x2dd;" horiz-adv-x="444" 
d="M56 523l86 137h106l-113 -137h-79zM196 523l86 137h106l-113 -137h-79z" />
    <glyph glyph-name="pi" unicode="&#x3c0;" horiz-adv-x="475" 
d="M470 491v-83.001h-70v-408h-115v408h-104v-309c0 -66 -36.333 -99 -109 -99h-68v91h35c10.667 0 18 1.83301 22 5.5s6 10.834 6 21.501v373h403z" />
    <glyph glyph-name="uni0901" unicode="&#x901;" horiz-adv-x="0" 
d="M-150 886h92v-95h-92v95zM-286 833h98.002v-54c0 -11.333 2 -19 6 -23s11.667 -6 23 -6h111c11.333 0 19 2 23 6s6 11.667 6 23v54h98v-66c0 -30 -8.83301 -52.167 -26.5 -66.5s-45.834 -21.5 -84.501 -21.5h-143c-38.667 0 -66.834 7.16699 -84.501 21.5
s-26.5 36.5 -26.5 66.5v66z" />
    <glyph glyph-name="uni0902" unicode="&#x902;" horiz-adv-x="0" 
d="M-152 832h94v-105h-94v105z" />
    <glyph glyph-name="uni0903" unicode="&#x903;" horiz-adv-x="201" 
d="M53 493h95v-105h-95v105zM53 166h95v-105h-95v105z" />
    <glyph glyph-name="uni0905" unicode="&#x905;" horiz-adv-x="601" 
d="M621 631v-82.998h-68v-548h-113v274h-89v-100c0 -32 -8.16699 -56 -24.5 -72s-43.5 -24 -81.5 -24h-100c-38 0 -65.167 8 -81.5 24s-24.5 40 -24.5 72v90h114v-77c0 -10.667 1.83301 -17.667 5.5 -21s10.834 -5 21.501 -5h30c10.667 0 18 1.83301 22 5.5s6 10.5 6 20.5
v96c0 11.333 -2.16699 19.166 -6.5 23.499s-12.166 6.5 -23.499 6.5h-52v82h52c11.333 0 19.166 2.16699 23.499 6.5s6.5 12.166 6.5 23.499v99c0 10 -2 16.833 -6 20.5s-11.333 5.5 -22 5.5h-30c-10.667 0 -17.834 -1.66699 -21.501 -5s-5.5 -10.333 -5.5 -21v-72h-114v85
c0 32 8.16699 56 24.5 72s43.5 24 81.5 24h100c38 0 65.167 -8 81.5 -24s24.5 -40 24.5 -72v-130c0 -30.667 -13.667 -47.667 -41 -51h130v275h181z" />
    <glyph glyph-name="uni0906" unicode="&#x906;" horiz-adv-x="812" 
d="M831 631v-82.998h-68v-548h-113v548h-97v-548h-113v274h-89v-100c0 -32 -8.16699 -56 -24.5 -72s-43.5 -24 -81.5 -24h-100c-38 0 -65.167 8 -81.5 24s-24.5 40 -24.5 72v90h114v-77c0 -10.667 1.83301 -17.667 5.5 -21s10.834 -5 21.501 -5h30
c10.667 0 18 1.83301 22 5.5s6 10.5 6 20.5v96c0 11.333 -2.16699 19.166 -6.5 23.499s-12.166 6.5 -23.499 6.5h-52v82h52c11.333 0 19.166 2.16699 23.499 6.5s6.5 12.166 6.5 23.499v99c0 10 -2 16.833 -6 20.5s-11.333 5.5 -22 5.5h-30
c-10.667 0 -17.834 -1.66699 -21.501 -5s-5.5 -10.333 -5.5 -21v-72h-114v85c0 32 8.16699 56 24.5 72s43.5 24 81.5 24h100c38 0 65.167 -8 81.5 -24s24.5 -40 24.5 -72v-130c0 -30.667 -13.667 -47.667 -41 -51h130v275h391z" />
    <glyph glyph-name="uni0907" unicode="&#x907;" horiz-adv-x="394" 
d="M341 401h-167c-10.667 0 -18 -1.83301 -22 -5.5s-6 -10.5 -6 -20.5v-33c0 -10 2 -16.833 6 -20.5s11.333 -5.5 22 -5.5h75c38 0 65.167 -7.33301 81.5 -22s24.5 -38 24.5 -70v-89c0 -31.333 -8.16699 -54.333 -24.5 -69s-43.5 -22 -81.5 -22h-95v-71h-114v206h114v-57h60
c11.333 0 18.833 1.66699 22.5 5s5.5 10.333 5.5 21v63c0 10.667 -1.83301 17.667 -5.5 21s-11.167 5 -22.5 5h-75c-38 0 -65.167 7.33301 -81.5 22s-24.5 38 -24.5 70v59c0 31.333 8.16699 54.333 24.5 69s43.5 22 81.5 22h89v69h-248v83h434v-83h-73v-147z" />
    <glyph glyph-name="uni0908" unicode="&#x908;" horiz-adv-x="394" 
d="M341 401h-167c-10.667 0 -18 -1.83301 -22 -5.5s-6 -10.5 -6 -20.5v-33c0 -10 2 -16.833 6 -20.5s11.333 -5.5 22 -5.5h75c38 0 65.167 -7.33301 81.5 -22s24.5 -38 24.5 -70v-89c0 -31.333 -8.16699 -54.333 -24.5 -69s-43.5 -22 -81.5 -22h-95v-71h-114v206h114v-57h60
c11.333 0 18.833 1.66699 22.5 5s5.5 10.333 5.5 21v63c0 10.667 -1.83301 17.667 -5.5 21s-11.167 5 -22.5 5h-75c-38 0 -65.167 7.33301 -81.5 22s-24.5 38 -24.5 70v59c0 31.333 8.16699 54.333 24.5 69s43.5 22 81.5 22h89v69h-248v83h248v68
c0 31.333 8.16699 54.333 24.5 69s43.5 22 81.5 22h77v-78h-42c-10.667 0 -18 -1.83301 -22 -5.5s-6 -10.5 -6 -20.5v-55h73v-83h-73v-147z" />
    <glyph glyph-name="uni0909" unicode="&#x909;" horiz-adv-x="389" 
d="M405 631v-83h-76c4.66699 -7.33301 7 -16 7 -26v-116c0 -32 -13.667 -49 -41 -51v-4c27.333 -3.33301 41 -20 41 -50v-210c0 -31.333 -8.16699 -54.333 -24.5 -69s-43.5 -22 -81.5 -22h-101c-38 -0 -65.167 7.33301 -81.5 22s-24.5 37.667 -24.5 69v122h113v-108
c0 -10.667 1.83301 -17.834 5.5 -21.501s10.167 -5.5 19.5 -5.5h34c11.333 0 18.833 1.83301 22.5 5.5s5.5 10.834 5.5 21.501v177c0 11.333 -1.83301 18.833 -5.5 22.5s-11.167 5.5 -22.5 5.5h-67v83h67c11.333 0 18.833 1.83301 22.5 5.5s5.5 11.167 5.5 22.5v94
c0 14 -2.5 23 -7.5 27s-16.167 6 -33.5 6h-202v83h425z" />
    <glyph glyph-name="uni090A" unicode="&#x90a;" horiz-adv-x="553" 
d="M573 631v-83h-244c4.66699 -7.33301 7 -16 7 -26v-116c0 -32 -13.667 -49 -41 -51v-4h131c68 0 102 -33.333 102 -100v-160c0 -31.333 -8.16699 -54.333 -24.5 -69s-43.5 -22 -81.5 -22h-52v83h17c10.667 0 17.834 1.66699 21.501 5s5.5 10.333 5.5 21v132
c0 11.333 -1.83301 18.833 -5.5 22.5s-10.834 5.5 -21.501 5.5h-51v-178c0 -31.333 -8.16699 -54.333 -24.5 -69s-43.5 -22 -81.5 -22h-101c-38 -0 -65.167 7.33301 -81.5 22s-24.5 37.667 -24.5 69v122h113v-108c0 -10.667 1.83301 -17.834 5.5 -21.501
s10.167 -5.5 19.5 -5.5h34c11.333 0 18.833 1.83301 22.5 5.5s5.5 10.834 5.5 21.501v177c0 11.333 -1.83301 18.833 -5.5 22.5s-11.167 5.5 -22.5 5.5h-67v83h67c11.333 0 18.833 1.83301 22.5 5.5s5.5 11.167 5.5 22.5v94c0 14 -2.5 23 -7.5 27s-16.167 6 -33.5 6h-202v83
h593z" />
    <glyph glyph-name="uni090B" unicode="&#x90b;" horiz-adv-x="796" 
d="M404 548l-0.000976562 -277h79c-9.33301 10.667 -14 25.667 -14 45v64c0 34.667 8.83301 59.834 26.5 75.501s47.167 23.5 88.5 23.5h60c41.333 0 70.833 -7.83301 88.5 -23.5s26.5 -40.834 26.5 -75.501v-67c0 -23.333 -3 -40 -9 -50s-16 -17 -30 -21v-5
c25.333 -6 38 -25 38 -57v-89c0 -30.667 -8 -53.5 -24 -68.5s-43.333 -22.5 -82 -22.5h-80c-36 0 -61.667 7.66699 -77 23s-23 38 -23 68v49h112v-35c0 -10 1.83301 -17 5.5 -21s9.83398 -6 18.501 -6h11c10 0 16.833 2 20.5 6s5.5 11 5.5 21v64
c0 10 -1.83301 16.5 -5.5 19.5s-10.5 4.5 -20.5 4.5h-215v-193h-113v193h-23l-125 -193h-129l155 238l-57 103c-10.667 20 -21.167 33.667 -31.5 41s-24.833 11 -43.5 11h-28v84h67c34 0 59.667 -4.83301 77 -14.5s33.333 -27.167 48 -52.5l80 -139h10v277h-311v83h836v-83
h-412zM581.999 375l0.000976562 -77c0 -18 8 -27 24 -27h17c15.333 0 23 9 23 27v77c0 10 -1.83301 17 -5.5 21s-10.834 6 -21.501 6h-11c-10 0 -16.833 -2 -20.5 -6s-5.5 -11 -5.5 -21z" />
    <glyph glyph-name="uni090C" unicode="&#x90c;" horiz-adv-x="599" 
d="M554 39l-82.001 0.000976562c-11.333 0 -18.833 -1.66699 -22.5 -5s-5.5 -10.333 -5.5 -21v-35c0 -10.667 1.83301 -17.667 5.5 -21s11.167 -5 22.5 -5h132v-82h-167c-38 0 -65.167 7.33301 -81.5 22s-24.5 37.667 -24.5 69v65c0 32 8 55.333 24 70s42.667 22 80 22h6
v279h-58c-11.333 0 -18.833 -2 -22.5 -6s-5.5 -11.333 -5.5 -22v-172h-113v172c0 10.667 -1.83301 18 -5.5 22s-11.167 6 -22.5 6h-30c-10.667 0 -18 -1.83301 -22 -5.5s-6 -11.167 -6 -22.5v-258c0 -10.667 2 -17.834 6 -21.501s11.333 -5.5 22 -5.5h39v-84h-74
c-38 -0 -65.167 7.33301 -81.5 22s-24.5 37.667 -24.5 69v288c0 34.667 8.33301 60 25 76s42.334 24 77.001 24h102c30.667 0 47.667 -13.667 51 -41h3c3.33301 27.333 20.333 41 51 41h89v69h-461v83h639v-83h-65v-509z" />
    <glyph glyph-name="uni090D" unicode="&#x90d;" horiz-adv-x="436" 
d="M456 631l-0.000976562 -83h-62v-180c0 -31.333 -8.16699 -54.333 -24.5 -69s-43.5 -22 -81.5 -22h-74v83h39c10.667 0 17.834 1.66699 21.501 5s5.5 10.333 5.5 21v162h-118v-443c0 -10.667 1.83301 -17.834 5.5 -21.501s10.834 -5.5 21.501 -5.5h65
c9.33301 0 15.666 1.83301 18.999 5.5s5 10.834 5 21.501v103h114v-117c0 -31.333 -8.16699 -54.333 -24.5 -69s-43.5 -22 -81.5 -22h-132c-38 -0 -65.167 7.33301 -81.5 22s-24.5 37.667 -24.5 69v457h-68v83h476zM293.999 670h-142
c-39.333 0 -67.666 7.16699 -84.999 21.5s-26 36.5 -26 66.5v66h97v-54c0 -11.333 2.16699 -19 6.5 -23s12.166 -6 23.499 -6h110c12 0 20 2 24 6s6 11.667 6 23v54h98v-66c0 -30 -8.83301 -52.167 -26.5 -66.5s-46.167 -21.5 -85.5 -21.5z" />
    <glyph glyph-name="uni090E" unicode="&#x90e;" horiz-adv-x="436" 
d="M456 631l-0.000976562 -83h-62v-180c0 -31.333 -8.16699 -54.333 -24.5 -69s-43.5 -22 -81.5 -22h-74v83h39c10.667 0 17.834 1.66699 21.501 5s5.5 10.333 5.5 21v162h-118v-443c0 -10.667 1.83301 -17.834 5.5 -21.501s10.834 -5.5 21.501 -5.5h65
c9.33301 0 15.666 1.83301 18.999 5.5s5 10.834 5 21.501v103h114v-117c0 -31.333 -8.16699 -54.333 -24.5 -69s-43.5 -22 -81.5 -22h-132c-38 -0 -65.167 7.33301 -81.5 22s-24.5 37.667 -24.5 69v457h-68v83h300v27c0 14 -2 23 -6 27s-13 6 -27 6h-90
c-56.667 0 -85 28.333 -85 85v54h114v-23c0 -14 2 -23 6 -27s13 -6 27 -6h90c56.667 0 85 -28.333 85 -85v-58h62z" />
    <glyph glyph-name="uni090F" unicode="&#x90f;" horiz-adv-x="436" 
d="M456 631l-0.000976562 -83h-62v-180c0 -31.333 -8.16699 -54.333 -24.5 -69s-43.5 -22 -81.5 -22h-74v83h39c10.667 0 17.834 1.66699 21.501 5s5.5 10.333 5.5 21v162h-118v-443c0 -10.667 1.83301 -17.834 5.5 -21.501s10.834 -5.5 21.501 -5.5h65
c9.33301 0 15.666 1.83301 18.999 5.5s5 10.834 5 21.501v103h114v-117c0 -31.333 -8.16699 -54.333 -24.5 -69s-43.5 -22 -81.5 -22h-132c-38 -0 -65.167 7.33301 -81.5 22s-24.5 37.667 -24.5 69v457h-68v83h476z" />
    <glyph glyph-name="uni0910" unicode="&#x910;" horiz-adv-x="436" 
d="M456 631l-0.000976562 -83h-62v-180c0 -31.333 -8.16699 -54.333 -24.5 -69s-43.5 -22 -81.5 -22h-74v83h39c10.667 0 17.834 1.66699 21.501 5s5.5 10.333 5.5 21v162h-118v-443c0 -10.667 1.83301 -17.834 5.5 -21.501s10.834 -5.5 21.501 -5.5h65
c9.33301 0 15.666 1.83301 18.999 5.5s5 10.834 5 21.501v103h114v-117c0 -31.333 -8.16699 -54.333 -24.5 -69s-43.5 -22 -81.5 -22h-132c-38 -0 -65.167 7.33301 -81.5 22s-24.5 37.667 -24.5 69v457h-68v83h292c-28 25.333 -59.667 61.333 -95 108l-63 87h136l137 -195
h69z" />
    <glyph glyph-name="uni0911" unicode="&#x911;" horiz-adv-x="812" 
d="M791 833h98v-66c0 -30 -8.83301 -52.167 -26.5 -66.5s-46.167 -21.5 -85.5 -21.5h-142c-39.333 0 -67.666 7.16699 -84.999 21.5s-26 36.5 -26 66.5v66h97v-54c0 -11.333 2.16699 -19 6.5 -23s12.166 -6 23.499 -6h110c12 0 20 2 24 6s6 11.667 6 23v54zM831 631v-82.998
h-68v-548h-113v548h-97v-548h-113v274h-89v-100c0 -32 -8.16699 -56 -24.5 -72s-43.5 -24 -81.5 -24h-100c-38 0 -65.167 8 -81.5 24s-24.5 40 -24.5 72v90h114v-77c0 -10.667 1.83301 -17.667 5.5 -21s10.834 -5 21.501 -5h30c10.667 0 18 1.83301 22 5.5s6 10.5 6 20.5v96
c0 11.333 -2.16699 19.166 -6.5 23.499s-12.166 6.5 -23.499 6.5h-52v82h52c11.333 0 19.166 2.16699 23.499 6.5s6.5 12.166 6.5 23.499v99c0 10 -2 16.833 -6 20.5s-11.333 5.5 -22 5.5h-30c-10.667 0 -17.834 -1.66699 -21.501 -5s-5.5 -10.333 -5.5 -21v-72h-114v85
c0 32 8.16699 56 24.5 72s43.5 24 81.5 24h100c38 0 65.167 -8 81.5 -24s24.5 -40 24.5 -72v-130c0 -30.667 -13.667 -47.667 -41 -51h130v275h391z" />
    <glyph glyph-name="uni0912" unicode="&#x912;" horiz-adv-x="811" 
d="M831 631v-82.998h-68v-548h-113v548h-97v-548h-113v274h-89v-100c0 -32 -8.16699 -56 -24.5 -72s-43.5 -24 -81.5 -24h-100c-38 0 -65.167 8 -81.5 24s-24.5 40 -24.5 72v90h114v-77c0 -10.667 1.83301 -17.667 5.5 -21s10.834 -5 21.501 -5h30
c10.667 0 18 1.83301 22 5.5s6 10.5 6 20.5v96c0 11.333 -2.16699 19.166 -6.5 23.499s-12.166 6.5 -23.499 6.5h-52v82h52c11.333 0 19.166 2.16699 23.499 6.5s6.5 12.166 6.5 23.499v99c0 10 -2 16.833 -6 20.5s-11.333 5.5 -22 5.5h-30
c-10.667 0 -17.834 -1.66699 -21.501 -5s-5.5 -10.333 -5.5 -21v-72h-114v85c0 32 8.16699 56 24.5 72s43.5 24 81.5 24h100c38 0 65.167 -8 81.5 -24s24.5 -40 24.5 -72v-130c0 -30.667 -13.667 -47.667 -41 -51h130v275h209v27c0 14 -2 23 -6 27s-13 6 -27 6h-90
c-56.667 0 -85 28.333 -85 85v54h114v-23c0 -14 2 -23 6 -27s13 -6 27 -6h90c56.667 0 85 -28.333 85 -85v-58h68z" />
    <glyph glyph-name="uni0913" unicode="&#x913;" horiz-adv-x="811" 
d="M831 631v-82.998h-68v-548h-113v548h-97v-548h-113v274h-89v-100c0 -32 -8.16699 -56 -24.5 -72s-43.5 -24 -81.5 -24h-100c-38 0 -65.167 8 -81.5 24s-24.5 40 -24.5 72v90h114v-77c0 -10.667 1.83301 -17.667 5.5 -21s10.834 -5 21.501 -5h30
c10.667 0 18 1.83301 22 5.5s6 10.5 6 20.5v96c0 11.333 -2.16699 19.166 -6.5 23.499s-12.166 6.5 -23.499 6.5h-52v82h52c11.333 0 19.166 2.16699 23.499 6.5s6.5 12.166 6.5 23.499v99c0 10 -2 16.833 -6 20.5s-11.333 5.5 -22 5.5h-30
c-10.667 0 -17.834 -1.66699 -21.501 -5s-5.5 -10.333 -5.5 -21v-72h-114v85c0 32 8.16699 56 24.5 72s43.5 24 81.5 24h100c38 0 65.167 -8 81.5 -24s24.5 -40 24.5 -72v-130c0 -30.667 -13.667 -47.667 -41 -51h130v275h207c-28 25.333 -59.667 61.333 -95 108l-63 87h136
l137 -195h69z" />
    <glyph glyph-name="uni0914" unicode="&#x914;" horiz-adv-x="812" 
d="M831 631l0.000976562 -82.998h-68v-548h-113v548h-97v-548h-113v274h-89v-100c0 -32 -8.16699 -56 -24.5 -72s-43.5 -24 -81.5 -24h-100c-38 0 -65.167 8 -81.5 24s-24.5 40 -24.5 72v90h114v-77c0 -10.667 1.83301 -17.667 5.5 -21s10.834 -5 21.501 -5h30
c10.667 0 18 1.83301 22 5.5s6 10.5 6 20.5v96c0 11.333 -2.16699 19.166 -6.5 23.499s-12.166 6.5 -23.499 6.5h-52v82h52c11.333 0 19.166 2.16699 23.499 6.5s6.5 12.166 6.5 23.499v99c0 10 -2 16.833 -6 20.5s-11.333 5.5 -22 5.5h-30
c-10.667 0 -17.834 -1.66699 -21.501 -5s-5.5 -10.333 -5.5 -21v-72h-114v85c0 32 8.16699 56 24.5 72s43.5 24 81.5 24h100c38 0 65.167 -8 81.5 -24s24.5 -40 24.5 -72v-130c0 -30.667 -13.667 -47.667 -41 -51h130v275h201c-26.667 17.333 -59.334 43.333 -98.001 78
l-130 117h139c70.667 -82 120 -145 148 -189h4c-11.333 20.667 -23 45 -35 73l-48 116h109l31 -195h70z" />
    <glyph glyph-name="uni0915" unicode="&#x915;" horiz-adv-x="592" 
d="M612 548l-259.001 -0.00195312v-80c7.33301 7.33301 21 11 41 11h62c34.667 0 60.334 -8 77.001 -24s25 -41.333 25 -76v-210c0 -31.333 -8.16699 -54.333 -24.5 -69s-43.5 -22 -81.5 -22h-59v78h24c10.667 0 17.834 1.83301 21.501 5.5s5.5 10.834 5.5 21.501v186
c0 11.333 -1.83301 18.833 -5.5 22.5s-10.834 5.5 -21.501 5.5h-35c-10.667 0 -18.167 -2.16699 -22.5 -6.5s-6.5 -12.166 -6.5 -23.499v-367h-114v90c-8 -8 -21.667 -12 -41 -12h-62c-68 0 -102 33.333 -102 100v210c0 31.333 8.16699 54.333 24.5 69s43.5 22 81.5 22h59
v-78h-24c-10.667 0 -18 -1.83301 -22 -5.5s-6 -10.5 -6 -20.5v-186c0 -11.333 2 -18.833 6 -22.5s11.333 -5.5 22 -5.5h35c10.667 0 18.167 2 22.5 6s6.5 11.667 6.5 23v358h-259v83h632v-83z" />
    <glyph glyph-name="uni0916" unicode="&#x916;" horiz-adv-x="737" 
d="M757 631v-82.999h-69v-548h-111v116c-8 -10 -22.667 -15 -44 -15h-56c-68 0 -102 33.333 -102 100v179c0 31.333 8.16699 54.333 24.5 69s43.5 22 81.5 22h61v-78h-28c-10.667 0 -18 -1.83301 -22 -5.5s-6 -10.5 -6 -20.5v-155c0 -11.333 2 -18.833 6 -22.5
s11.333 -5.5 22 -5.5h30c12 0 20.5 2.33301 25.5 7s7.5 13 7.5 25v332h-252c4.66699 -7.33301 7 -16 7 -26v-188c0 -33.333 -8.5 -57.5 -25.5 -72.5s-44.5 -22.5 -82.5 -22.5h-66v-122c0 -12.667 2.16699 -21.334 6.5 -26.001s12.833 -7 25.5 -7h229v-84h-251
c-42.667 0 -74 7.66699 -94 23s-30 39.333 -30 72v376h114v-149h28c12.667 0 21.167 2.16699 25.5 6.5s6.5 12.833 6.5 25.5v162c0 13.333 -2 22 -6 26s-12.667 6 -26 6h-206v83h777z" />
    <glyph glyph-name="uni0917" unicode="&#x917;" horiz-adv-x="606" 
d="M626 631l-0.000976562 -83h-68v-548h-114v548h-93v-370c0 -35.333 -9 -60.833 -27 -76.5s-47.333 -23.5 -88 -23.5h-89c-40.667 0 -70 7.83301 -88 23.5s-27 41.167 -27 76.5v173c0 33.333 9.83301 57.5 29.5 72.5s50.834 22.5 93.501 22.5h82v102h-257v83h646z
M173.999 161h35c10.667 0 18 1.83301 22 5.5s6 11.167 6 22.5v174h-61c-13.333 0 -21.833 -1.83301 -25.5 -5.5s-5.5 -12.167 -5.5 -25.5v-143c0 -11.333 2.16699 -18.833 6.5 -22.5s11.833 -5.5 22.5 -5.5z" />
    <glyph glyph-name="uni0918" unicode="&#x918;" horiz-adv-x="467" 
d="M487 631v-83h-68v-548h-114v90c-8 -8 -21 -12 -39 -12h-106c-40 0 -69.333 8 -88 24s-28 41.333 -28 76v123c0 31.333 14 48 42 50v4c-28 3.33301 -42 20.333 -42 51v114c0 12.667 3 22 9 28h-73v83h507zM305 195l-0.000976562 353h-98
c-21.333 0 -34.833 -1.66699 -40.5 -5s-8.5 -12.333 -8.5 -27v-93c0 -11.333 1.83301 -18.833 5.5 -22.5s10.834 -5.5 21.501 -5.5h53v-82h-53c-10.667 0 -17.834 -1.83301 -21.501 -5.5s-5.5 -11.167 -5.5 -22.5v-96c0 -11.333 1.83301 -18.833 5.5 -22.5
s10.834 -5.5 21.501 -5.5h86c12.667 0 21.5 2.5 26.5 7.5s7.5 13.833 7.5 26.5z" />
    <glyph glyph-name="uni0919" unicode="&#x919;" horiz-adv-x="442" 
d="M-20 631h482.001v-83h-126v-147h-147c-10.667 0 -17.834 -1.66699 -21.501 -5s-5.5 -10.333 -5.5 -21v-50c0 -10.667 1.83301 -17.667 5.5 -21s10.834 -5 21.501 -5h57c38 0 65.167 -7.33301 81.5 -22s24.5 -37.667 24.5 -69v-117c0 -31.333 -8.16699 -54.333 -24.5 -69
s-43.5 -22 -81.5 -22h-101c-38 -0 -65.167 7.33301 -81.5 22s-24.5 37.667 -24.5 69v71h114v-57c0 -10.667 1.66699 -17.834 5 -21.501s9.66602 -5.5 18.999 -5.5h34c10.667 0 18 1.83301 22 5.5s6 10.834 6 21.501v90c0 10 -2 16.833 -6 20.5s-11.333 5.5 -22 5.5h-57
c-38 0 -65 7.33301 -81 22s-24 37.667 -24 69v76c0 31.333 8 54.333 24 69s43 22 81 22h69v69h-243v83zM344.001 297v105h94v-105h-94z" />
    <glyph glyph-name="uni091A" unicode="&#x91a;" horiz-adv-x="436" 
d="M456 631l-0.000976562 -83h-69v-548h-113v90c-8 -8 -21.667 -12 -41 -12h-74c-68 0 -102 33.333 -102 100v180c0 17.333 4.33301 30.333 13 39h-72v82h233v-82h-16c-19.333 0 -31.5 -1.5 -36.5 -4.5s-7.5 -10.833 -7.5 -23.5v-180c0 -11.333 1.83301 -18.833 5.5 -22.5
s10.834 -5.5 21.501 -5.5h47c10.667 0 18.167 2 22.5 6s6.5 11.667 6.5 23v358h-295v83h477z" />
    <glyph glyph-name="uni091B" unicode="&#x91b;" horiz-adv-x="589" 
d="M609 548h-149v-70c28.667 -2.66699 50 -11.167 64 -25.5s21 -35.833 21 -64.5v-288c0 -34.667 -9.33301 -60 -28 -76s-48 -24 -88 -24h-268c-39.333 0 -68.333 8 -87 24s-28 41.333 -28 76v159c0 30.667 13.667 47.667 41 51v3c-27.333 3.33301 -41 20.333 -41 51v158
c0 12 2.33301 20.667 7 26h-73v83h629v-83zM354 548l-151 0.00292969l5 -1c-20.667 1.33301 -34 0.166016 -40 -3.50098s-9 -12.834 -9 -27.501v-135c0 -11.333 2 -18.833 6 -22.5s11.333 -5.5 22 -5.5h35v-82h-35c-10.667 0 -18 -1.83301 -22 -5.5s-6 -11.167 -6 -22.5
v-131c0 -11.333 2 -18.833 6 -22.5s11.333 -5.5 22 -5.5h219c11.333 0 18.833 1.83301 22.5 5.5s5.5 11.167 5.5 22.5v267c0 10.667 -1.83301 17.667 -5.5 21s-11.167 5 -22.5 5h-18c-10.667 0 -17.834 -1.66699 -21.501 -5s-5.5 -10.333 -5.5 -21v-92
c0 -10.667 1.83301 -17.667 5.5 -21s10.834 -5 21.501 -5h16v-74h-38c-65.333 0 -98 30.333 -98 91v110c0 29.333 7 51.166 21 65.499s35.667 22.5 65 24.5v70z" />
    <glyph glyph-name="uni091C" unicode="&#x91c;" horiz-adv-x="595" 
d="M615 631v-83h-69v-548h-113v397h-80v-219c0 -35.333 -8.83301 -60.833 -26.5 -76.5s-47.167 -23.5 -88.5 -23.5h-80c-41.333 0 -70.833 7.83301 -88.5 23.5s-26.5 41.167 -26.5 76.5v301h113v-290c0 -11.333 2 -18.833 6 -22.5s11.667 -5.5 23 -5.5h27
c10.667 0 18 1.83301 22 5.5s6 11.167 6 22.5v290h193v69h-453v83h635z" />
    <glyph glyph-name="uni091D" unicode="&#x91d;" horiz-adv-x="611" 
d="M631 631v-83h-68v-548h-114v237h-93c1.33301 -9.33301 2 -16.333 2 -21v-81c0 -31.333 -8.16699 -54.333 -24.5 -69s-43.5 -22 -81.5 -22h-98v-71h-114v206h114v-57h63c10.667 0 18 1.83301 22 5.5s6 10.5 6 20.5v63c0 10 -2 16.833 -6 20.5s-11.333 5.5 -22 5.5h-72
c-38 0 -65.167 7.33301 -81.5 22s-24.5 38 -24.5 70v59c0 31.333 8.16699 54.333 24.5 69s43.5 22 81.5 22h87v69h-261v83h660zM450 316v232h-104v-147h-166c-10.667 0 -18 -1.83301 -22 -5.5s-6 -10.5 -6 -20.5v-33c0 -10 2 -16.833 6 -20.5s11.333 -5.5 22 -5.5h270z" />
    <glyph glyph-name="uni091E" unicode="&#x91e;" horiz-adv-x="586" 
d="M606 631l0.000976562 -83.001h-68v-548h-114v250h-91v-72c0 -35.333 -8.83301 -60.833 -26.5 -76.5s-47.167 -23.5 -88.5 -23.5h-77c-41.333 0 -70.833 7.83301 -88.5 23.5s-26.5 41.167 -26.5 76.5v84h113v-73c0 -11.333 2 -18.833 6 -22.5s11.333 -5.5 22 -5.5h25
c10.667 0 18 1.83301 22 5.5s6 11.167 6 22.5v181c0 10.667 -1.83301 17.834 -5.5 21.501s-11.167 5.5 -22.5 5.5h-93v82h129c37.333 0 64.166 -8 80.499 -24s24.5 -39.667 24.5 -71v-51h91v215h-444v83h626z" />
    <glyph glyph-name="uni091F" unicode="&#x91f;" horiz-adv-x="402" 
d="M355 397h-165c-10.667 0 -18 -1.83301 -22 -5.5s-6 -11.167 -6 -22.5v-258c0 -11.333 2 -18.833 6 -22.5s11.333 -5.5 22 -5.5h27c10.667 0 18.167 1.83301 22.5 5.5s6.5 11.167 6.5 22.5v103h113v-114c0 -35.333 -9 -60.833 -27 -76.5s-47.333 -23.5 -88 -23.5h-81
c-40.667 -0 -70 7.83301 -88 23.5s-27 41.167 -27 76.5v288c0 31.333 8.16699 54.333 24.5 69s43.5 22 81.5 22h88v69h-262v83h442v-83h-67v-151z" />
    <glyph glyph-name="uni0920" unicode="&#x920;" horiz-adv-x="421" 
d="M441 548h-172.001v-69c38.667 -0.666992 66.167 -8.83398 82.5 -24.501s24.5 -40.834 24.5 -75.501v-279c0 -35.333 -8.83301 -60.833 -26.5 -76.5s-47.167 -23.5 -88.5 -23.5h-98c-40.667 0 -70 7.83301 -88 23.5s-27 41.167 -27 76.5v279
c0 34.667 8.33301 59.834 25 75.501s44.334 23.834 83.001 24.501v69h-176v83h461v-83zM262.999 111v258c0 11.333 -2 18.833 -6 22.5s-11.333 5.5 -22 5.5h-45c-10.667 0 -18 -1.83301 -22 -5.5s-6 -11.167 -6 -22.5v-258c0 -11.333 2 -18.833 6 -22.5s11.333 -5.5 22 -5.5
h45c10.667 0 18 1.83301 22 5.5s6 11.167 6 22.5z" />
    <glyph glyph-name="uni0921" unicode="&#x921;" horiz-adv-x="403" 
d="M336 401h-146.999c-10.667 0 -17.834 -1.66699 -21.501 -5s-5.5 -10.333 -5.5 -21v-50c0 -10.667 1.83301 -17.667 5.5 -21s10.834 -5 21.501 -5h57c38 0 65.167 -7.33301 81.5 -22s24.5 -37.667 24.5 -69v-117c0 -31.333 -8.16699 -54.333 -24.5 -69
s-43.5 -22 -81.5 -22h-101c-38 -0 -65.167 7.33301 -81.5 22s-24.5 37.667 -24.5 69v71h114v-57c0 -10.667 1.66699 -17.834 5 -21.501s9.66602 -5.5 18.999 -5.5h34c10.667 0 18 1.83301 22 5.5s6 10.834 6 21.501v90c0 10 -2 16.833 -6 20.5s-11.333 5.5 -22 5.5h-57
c-38 0 -65 7.33301 -81 22s-24 37.667 -24 69v76c0 31.333 8 54.333 24 69s43 22 81 22h69v69h-243v83h443v-83h-87v-147z" />
    <glyph glyph-name="uni0922" unicode="&#x922;" horiz-adv-x="439" 
d="M355 397l-165 -0.000976562c-10.667 0 -18 -1.83301 -22 -5.5s-6 -11.167 -6 -22.5v-258c0 -11.333 2 -18.833 6 -22.5s11.333 -5.5 22 -5.5h63c10.667 0 18 1.83301 22 5.5s6 11.167 6 22.5v71c0 10.667 -2 17.834 -6 21.501s-11.333 5.5 -22 5.5h-43v83h70
c40.667 0 70 -7.83301 88 -23.5s27 -41.167 27 -76.5v-92c0 -35.333 -9 -60.833 -27 -76.5s-47.333 -23.5 -88 -23.5h-117c-40.667 -0 -70 7.83301 -88 23.5s-27 41.167 -27 76.5v288c0 31.333 8.16699 54.333 24.5 69s43.5 22 81.5 22h88v69h-262v83h479v-83h-104v-151z
" />
    <glyph glyph-name="uni0923" unicode="&#x923;" horiz-adv-x="599" 
d="M619 631v-83h-68v-548h-114v548h-84v-370c0 -35.333 -8.83301 -60.833 -26.5 -76.5s-47.167 -23.5 -88.5 -23.5h-80c-41.333 0 -70.833 7.83301 -88.5 23.5s-26.5 41.167 -26.5 76.5v370h-63v83h639zM240 189v359h-84v-359c0 -11.333 2 -18.833 6 -22.5
s11.667 -5.5 23 -5.5h27c10.667 0 18 1.83301 22 5.5s6 11.167 6 22.5z" />
    <glyph glyph-name="uni0924" unicode="&#x924;" horiz-adv-x="426" 
d="M446 631v-82.998h-69v-548h-113v397h-80c-10.667 0 -18 -1.83301 -22 -5.5s-6 -10.834 -6 -21.501v-259c0 -10.667 2 -17.834 6 -21.501s11.333 -5.5 22 -5.5h24v-84h-59c-38 -0 -65.167 7.33301 -81.5 22s-24.5 37.667 -24.5 69v297c0 31.333 8.16699 54.333 24.5 69
s43.5 22 81.5 22h115v69h-284v83h466z" />
    <glyph glyph-name="uni0925" unicode="&#x925;" horiz-adv-x="527" 
d="M547 631l0.000976562 -83.001h-68v-548h-114v90c-8 -8 -21 -12 -39 -12h-163c-39.333 0 -68.333 8 -87 24s-28 41.333 -28 76v196h110c10.667 0 18 1.83301 22 5.5s6 10.834 6 21.501v126c0 10 -2 16.833 -6 20.5s-11.333 5.5 -22 5.5h-6
c-10.667 0 -17.834 -1.66699 -21.501 -5s-5.5 -10.333 -5.5 -21v-41h-69v59c0 31.333 8 54.333 24 69s41.333 22 76 22h42c67.333 0 101 -30.333 101 -91v-158c0 -32 -8.16699 -55.833 -24.5 -71.5s-43.5 -23.5 -81.5 -23.5h-32v-103c0 -11.333 2 -18.833 6 -22.5
s11.333 -5.5 22 -5.5h142c12.667 0 21.5 2.5 26.5 7.5s7.5 13.833 7.5 26.5v436h182z" />
    <glyph glyph-name="uni0926" unicode="&#x926;" horiz-adv-x="403" 
d="M354 397h-170.001c-10.667 0 -18 -1.83301 -22 -5.5s-6 -11.167 -6 -22.5v-180c0 -11.333 1.83301 -18.833 5.5 -22.5s10.834 -5.5 21.501 -5.5h33c10.667 0 18.167 2 22.5 6s6.5 11.667 6.5 23v87h113v-277h-113v90c-8 -8 -21.667 -12 -41 -12h-47
c-40.667 0 -70 7.83301 -88 23.5s-27 41.167 -27 76.5v210c0 31.333 8.16699 54.333 24.5 69s43.5 22 81.5 22h93v69h-267v83h449v-83h-69v-151z" />
    <glyph glyph-name="uni0927" unicode="&#x927;" horiz-adv-x="515" 
d="M538 631l0.000976562 -82.999h-68v-548h-113v91c-8 -8.66699 -21.333 -13 -40 -13h-153c-68 0 -102 30.333 -102 91v123c0 30 14 46.667 42 50v4c-28 3.33301 -42 20.333 -42 51v148c0 60.667 34 91 102 91h43c67.333 0 101 -30.333 101 -91v-59h-69v41
c0 10.667 -1.83301 17.667 -5.5 21s-10.834 5 -21.501 5h-9c-10.667 0 -17.834 -1.66699 -21.501 -5s-5.5 -10.333 -5.5 -21v-113c0 -11.333 1.83301 -18.833 5.5 -22.5s10.834 -5.5 21.501 -5.5h69v-83h-69c-10.667 0 -17.834 -1.83301 -21.501 -5.5
s-5.5 -10.834 -5.5 -21.501v-87c0 -11.333 1.83301 -18.833 5.5 -22.5s10.834 -5.5 21.501 -5.5h120c12.667 0 21.5 2.5 26.5 7.5s7.5 13.833 7.5 26.5v353l-1 83h182z" />
    <glyph glyph-name="uni0928" unicode="&#x928;" horiz-adv-x="578" 
d="M598 631v-83h-68v-548h-114v397h-75v-219c0 -35.333 -9 -60.833 -27 -76.5s-47.667 -23.5 -89 -23.5h-77c-41.333 0 -70.833 7.83301 -88.5 23.5s-26.5 41.167 -26.5 76.5v210c0 31.333 8.16699 54.333 24.5 69s43.5 22 81.5 22h277v69h-436v83h618zM227 189v208.001h-53
c-10.667 0 -18 -1.83301 -22 -5.5s-6 -10.834 -6 -21.501v-181c0 -11.333 2 -18.833 6 -22.5s11.667 -5.5 23 -5.5h24c10.667 0 18 1.83301 22 5.5s6 11.167 6 22.5z" />
    <glyph glyph-name="uni0928093C" unicode="&#x929;" horiz-adv-x="578" 
d="M598 631v-83h-68v-548h-114v397h-75v-219c0 -35.333 -9 -60.833 -27 -76.5s-47.667 -23.5 -89 -23.5h-77c-41.333 0 -70.833 7.83301 -88.5 23.5s-26.5 41.167 -26.5 76.5v210c0 31.333 8.16699 54.333 24.5 69s43.5 22 81.5 22h277v69h-436v83h618zM227 189v208.001h-53
c-10.667 0 -18 -1.83301 -22 -5.5s-6 -10.834 -6 -21.501v-181c0 -11.333 2 -18.833 6 -22.5s11.667 -5.5 23 -5.5h24c10.667 0 18 1.83301 22 5.5s6 11.167 6 22.5zM243 -105.999v105h95v-105h-95z" />
    <glyph glyph-name="uni092A" unicode="&#x92a;" horiz-adv-x="415" 
d="M435 631v-83h-68v-548h-113v91c-8 -8.66699 -22 -13 -42 -13h-62c-68 0 -102 33.333 -102 100v370h-68v83h455zM254 190v358h-92v-359c0 -11.333 1.83301 -18.833 5.5 -22.5s10.834 -5.5 21.501 -5.5h35c11.333 0 19.166 2 23.499 6s6.5 11.667 6.5 23z" />
    <glyph glyph-name="uni092B" unicode="&#x92b;" horiz-adv-x="602" 
d="M622 548l-259 -0.00195312v-81c8 8 21.667 12 41 12h63c34 0 59.333 -8 76 -24s25 -41.333 25 -76v-210c0 -31.333 -8 -54.333 -24 -69s-43 -22 -81 -22h-59v78h23c11.333 0 18.833 1.83301 22.5 5.5s5.5 10.834 5.5 21.501v186c0 11.333 -1.83301 18.833 -5.5 22.5
s-11.167 5.5 -22.5 5.5h-35c-10.667 0 -18.167 -2.16699 -22.5 -6.5s-6.5 -12.166 -6.5 -23.499v-367h-113v91c-8 -8.66699 -22 -13 -42 -13h-62c-68 0 -102 33.333 -102 100v370h-64v83h642v-83zM250 189.998l-0.000976562 358h-92v-359
c0 -11.333 1.83301 -18.833 5.5 -22.5s10.834 -5.5 21.501 -5.5h36c10.667 0 18.167 2 22.5 6s6.5 11.667 6.5 23z" />
    <glyph glyph-name="uni092C" unicode="&#x92c;" horiz-adv-x="469" 
d="M489 631l-0.000976562 -82.999h-68v-548h-114v85c-7.33301 -4.66699 -18.666 -7 -33.999 -7h-130c-68 0 -102 33.333 -102 100v210c0 31.333 8.16699 54.333 24.5 69s43.5 22 81.5 22h119v-78h-74l61 -101l60 -96c-4 21.333 -6 61.666 -6 120.999v223h-327v83h509z
M181.999 161.001l100.999 0.000976562l-73 112c-30.667 55.333 -49 86.666 -55 93.999v-178c0 -11.333 1.83301 -18.833 5.5 -22.5s10.834 -5.5 21.501 -5.5z" />
    <glyph glyph-name="uni092D" unicode="&#x92d;" horiz-adv-x="620" 
d="M640 631l0.00195312 -83h-68v-548h-114v335h-97v-157c0 -35.333 -9 -60.833 -27 -76.5s-47.333 -23.5 -88 -23.5h-88c-41.333 0 -70.833 7.83301 -88.5 23.5s-26.5 41.167 -26.5 76.5v149c0 31.333 8.16699 54.333 24.5 69s43.5 22 81.5 22h98v106
c0 10.667 -1.83301 17.667 -5.5 21s-10.834 5 -21.501 5h-28c-10.667 0 -17.834 -1.66699 -21.501 -5s-5.5 -10.333 -5.5 -21v-43h-114v56c0 32 8.16699 56 24.5 72s43.5 24 81.5 24h98c37.333 0 64.333 -8 81 -24s25 -40 25 -72v-119h97v213h182zM247.002 189v146h-63
c-10.667 0 -18 -1.83301 -22 -5.5s-6 -10.5 -6 -20.5v-120c0 -11.333 2 -18.833 6 -22.5s11.667 -5.5 23 -5.5h34c10.667 0 18 1.83301 22 5.5s6 11.167 6 22.5z" />
    <glyph glyph-name="uni092E" unicode="&#x92e;" horiz-adv-x="610" 
d="M630 631v-83h-68v-548h-114v349h-97v-154c0 -35.333 -9 -60.833 -27 -76.5s-47.333 -23.5 -88 -23.5h-88c-41.333 0 -70.833 7.83301 -88.5 23.5s-26.5 41.167 -26.5 76.5v146c0 31.333 8.16699 54.333 24.5 69s43.5 22 81.5 22h98v116h-257v83h650zM237 205v144h-71
c-10.667 0 -18 -1.83301 -22 -5.5s-6 -10.5 -6 -20.5v-118c0 -10.667 2.16699 -17.834 6.5 -21.501s11.833 -5.5 22.5 -5.5h42c10.667 0 18 1.83301 22 5.5s6 10.834 6 21.501zM448 432v116h-97v-116h97z" />
    <glyph glyph-name="uni092F" unicode="&#x92f;" horiz-adv-x="516" 
d="M536 631l-0.000976562 -83h-68v-548h-114v91c-8 -8.66699 -21 -13 -39 -13h-163c-39.333 0 -68.333 8 -87 24s-28 41.333 -28 76v204h100c10.667 0 17.834 1.66699 21.501 5s5.5 10.333 5.5 21v107c0 14 -2.33301 23 -7 27s-15.667 6 -33 6h-155v83h567zM353.999 195
l-0.000976562 353h-90c6.66699 -8.66699 10 -20 10 -34v-119c0 -32 -7.83301 -56 -23.5 -72s-42.167 -24 -79.5 -24h-20v-110c0 -11.333 1.83301 -18.833 5.5 -22.5s10.834 -5.5 21.501 -5.5h142c13.333 0 22.333 2.5 27 7.5s7 13.833 7 26.5z" />
    <glyph glyph-name="uni0930" unicode="&#x930;" horiz-adv-x="393" 
d="M413 631l0.000976562 -83.001h-67c4.66699 -5.33301 7 -14 7 -26v-158c0 -32.667 -9.83301 -56.5 -29.5 -71.5s-50.834 -22.5 -93.501 -22.5h-74v-165c0 -10.667 2 -17.834 6 -21.501s11.333 -5.5 22 -5.5h30c10 0 16.667 1.83301 20 5.5s5 10.834 5 21.501v103h113v-117
c0 -31.333 -8 -54.333 -24 -69s-43 -22 -81 -22h-98c-38 0 -65.167 7.33301 -81.5 22s-24.5 37.667 -24.5 69v366h113v-105h52c12.667 0 21.167 2.33301 25.5 7s6.5 13.334 6.5 26.001v131c0 13.333 -2 22 -6 26s-12.667 6 -26 6h-228v83h433z" />
    <glyph glyph-name="uni0930093C" unicode="&#x931;" horiz-adv-x="393" 
d="M413 631l0.000976562 -83.001h-67c4.66699 -5.33301 7 -14 7 -26v-158c0 -32.667 -9.83301 -56.5 -29.5 -71.5s-50.834 -22.5 -93.501 -22.5h-74v-165c0 -10.667 2 -17.834 6 -21.501s11.333 -5.5 22 -5.5h30c10 0 16.667 1.83301 20 5.5s5 10.834 5 21.501v103h113v-117
c0 -31.333 -8 -54.333 -24 -69s-43 -22 -81 -22h-98c-38 0 -65.167 7.33301 -81.5 22s-24.5 37.667 -24.5 69v366h113v-105h52c12.667 0 21.167 2.33301 25.5 7s6.5 13.334 6.5 26.001v131c0 13.333 -2 22 -6 26s-12.667 6 -26 6h-228v83h433zM139.001 -174.001v105h95v-105
h-95z" />
    <glyph glyph-name="uni0932" unicode="&#x932;" horiz-adv-x="602" 
d="M622 631v-82.999h-64v-548h-114v397h-55c-11.333 0 -18.833 -2 -22.5 -6s-5.5 -11.333 -5.5 -22v-189h-113v189c0 10.667 -1.83301 18 -5.5 22s-11.167 6 -22.5 6h-31c-10.667 0 -17.834 -1.83301 -21.501 -5.5s-5.5 -11.167 -5.5 -22.5v-258
c0 -10.667 1.83301 -17.834 5.5 -21.501s10.834 -5.5 21.501 -5.5h57v-84h-92c-38 -0 -65 7.33301 -81 22s-24 37.667 -24 69v288c0 34.667 8.33301 60 25 76s42 24 76 24h103c30.667 0 47.667 -13.667 51 -41h3c3.33301 27.333 20 41 50 41h87v69h-464v83h642z" />
    <glyph glyph-name="uni0933" unicode="&#x933;" horiz-adv-x="614" 
d="M645 548l-164.001 -0.000976562v-69c32.667 -1.33301 56.834 -9.83301 72.501 -25.5s23.5 -40.5 23.5 -74.5v-201c0 -66.667 -34 -100 -102 -100h-106c-36 0 -55.667 13.667 -59 41h-4c-2 -27.333 -21.667 -41 -59 -41h-108c-68 0 -102 33.333 -102 100v201
c0 66.667 34 100 102 100h108c37.333 0 57 -13.667 59 -41h4c3.33301 26.667 22.333 40.334 57 41.001v69h-398v83h676v-83zM252.999 188.999v180c0 10.667 -1.83301 18 -5.5 22s-11.167 6 -22.5 6h-47c-10.667 0 -17.834 -1.83301 -21.501 -5.5s-5.5 -11.167 -5.5 -22.5
v-180c0 -11.333 1.83301 -18.833 5.5 -22.5s10.834 -5.5 21.501 -5.5h47c11.333 0 18.833 2 22.5 6s5.5 11.333 5.5 22zM462.999 188.999v180c0 11.333 -1.83301 18.833 -5.5 22.5s-10.834 5.5 -21.501 5.5h-47c-11.333 0 -18.666 -2 -21.999 -6s-5 -11.333 -5 -22v-180
c0 -10.667 1.66699 -18 5 -22s10.666 -6 21.999 -6h47c10.667 0 17.834 1.83301 21.501 5.5s5.5 11.167 5.5 22.5z" />
    <glyph glyph-name="uni0933093C" unicode="&#x934;" horiz-adv-x="614" 
d="M645 548l-164.001 -0.000976562v-69c32.667 -1.33301 56.834 -9.83301 72.501 -25.5s23.5 -40.5 23.5 -74.5v-201c0 -66.667 -34 -100 -102 -100h-106c-36 0 -55.667 13.667 -59 41h-4c-2 -27.333 -21.667 -41 -59 -41h-108c-68 0 -102 33.333 -102 100v201
c0 66.667 34 100 102 100h108c37.333 0 57 -13.667 59 -41h4c3.33301 26.667 22.333 40.334 57 41.001v69h-398v83h676v-83zM252.999 188.999v180c0 10.667 -1.83301 18 -5.5 22s-11.167 6 -22.5 6h-47c-10.667 0 -17.834 -1.83301 -21.501 -5.5s-5.5 -11.167 -5.5 -22.5
v-180c0 -11.333 1.83301 -18.833 5.5 -22.5s10.834 -5.5 21.501 -5.5h47c11.333 0 18.833 2 22.5 6s5.5 11.333 5.5 22zM462.999 188.999v180c0 11.333 -1.83301 18.833 -5.5 22.5s-10.834 5.5 -21.501 5.5h-47c-11.333 0 -18.666 -2 -21.999 -6s-5 -11.333 -5 -22v-180
c0 -10.667 1.66699 -18 5 -22s10.666 -6 21.999 -6h47c10.667 0 17.834 1.83301 21.501 5.5s5.5 11.167 5.5 22.5zM74.999 -95.001v105h95v-105h-95z" />
    <glyph glyph-name="uni0935" unicode="&#x935;" horiz-adv-x="412" 
d="M432 631v-82.999h-69v-548h-113v91c-8 -8.66699 -22 -13 -42 -13h-62c-68 0 -102 33.333 -102 100v210c0 31.333 8.16699 54.333 24.5 69s43.5 22 81.5 22h59v-82h-24c-10.667 0 -17.834 -1.83301 -21.501 -5.5s-5.5 -10.834 -5.5 -21.501v-181
c0 -11.333 1.83301 -18.833 5.5 -22.5s10.834 -5.5 21.501 -5.5h36c10.667 0 18.167 2 22.5 6s6.5 11.667 6.5 23v358h-270v83h452z" />
    <glyph glyph-name="uni0936" unicode="&#x936;" horiz-adv-x="603" 
d="M442 631h181v-83h-69v-548h-112v631zM159 634l97.001 -0.000976562c38 0 65.167 -8 81.5 -24s24.5 -40 24.5 -72v-191c0 -32.667 -9.83301 -56.5 -29.5 -71.5s-50.834 -22.5 -93.501 -22.5h-74v-148c0 -10.667 1.83301 -17.834 5.5 -21.501s11.167 -5.5 22.5 -5.5h30
c9.33301 0 15.833 1.83301 19.5 5.5s5.5 10.834 5.5 21.501v86h113v-100c0 -31.333 -8.16699 -54.333 -24.5 -69s-43.5 -22 -81.5 -22h-98c-38 0 -65 7.33301 -81 22s-24 37.667 -24 69v297h113v-53h52c12.667 0 21.167 2.33301 25.5 7s6.5 13.334 6.5 26.001v157
c0 10.667 -1.83301 17.667 -5.5 21s-11.167 5 -22.5 5h-30c-10 0 -16.667 -1.83301 -20 -5.5s-5 -10.5 -5 -20.5v-69h-113v82c0 32 8.16699 56 24.5 72s43.5 24 81.5 24z" />
    <glyph glyph-name="uni0937" unicode="&#x937;" horiz-adv-x="459" 
d="M479 631v-83h-68v-548h-114v90c-8 -8 -21.667 -12 -41 -12h-106c-68 0 -102 33.333 -102 100v370h-68v83h499zM189 161l78.999 -0.00195312c15.333 0 24.333 4.66699 27 14c-82.667 160.667 -130 257.334 -142 290.001c6 -33.333 9 -73.666 9 -120.999v-155
c0 -11.333 1.83301 -18.833 5.5 -22.5s10.834 -5.5 21.501 -5.5zM296.999 392.998l0.00195312 154.998h-131c71.333 -137.333 110.666 -214.666 117.999 -231.999s14.666 -35.666 21.999 -54.999c-6 36 -9 80 -9 132z" />
    <glyph glyph-name="uni0938" unicode="&#x938;" horiz-adv-x="596" 
d="M616 631v-83.001h-69v-548h-113v270h-278v-165c0 -10.667 2 -17.834 6 -21.501s11.333 -5.5 22 -5.5h30c10 0 16.667 1.83301 20 5.5s5 10.834 5 21.501v103h113v-117c0 -31.333 -8 -54.333 -24 -69s-43 -22 -81 -22h-98c-38 0 -65.167 7.33301 -81.5 22
s-24.5 37.667 -24.5 69v366h113v-105h52c12.667 0 21.167 2.33301 25.5 7s6.5 13.334 6.5 26.001v131c0 13.333 -2 22 -6 26s-12.667 6 -26 6h-228v83h636zM434 351.999v196h-88c4.66699 -5.33301 7 -14 7 -26v-125c0 -19.333 -4.66699 -34.333 -14 -45h95z" />
    <glyph glyph-name="uni0939" unicode="&#x939;" horiz-adv-x="418" 
d="M370 397h-181c-10.667 0 -17.834 -1.83301 -21.501 -5.5s-5.5 -10.5 -5.5 -20.5v-30c0 -10 1.83301 -16.833 5.5 -20.5s10.834 -5.5 21.501 -5.5h71c41.333 0 70.833 -7.83301 88.5 -23.5s26.5 -41.167 26.5 -76.5v-47h-113v37c0 11.333 -2 18.833 -6 22.5
s-11.667 5.5 -23 5.5h-44c-10.667 0 -17.834 -1.83301 -21.501 -5.5s-5.5 -11.167 -5.5 -22.5v-94c0 -11.333 1.83301 -18.833 5.5 -22.5s10.834 -5.5 21.501 -5.5h186v-83h-212c-39.333 0 -68.333 8 -87 24s-28 41.333 -28 76v121c0 30.667 14 47.667 42 51v3
c-28 3.33301 -42 20.333 -42 51v62c0 31.333 8.16699 54.333 24.5 69s43.5 22 81.5 22h102v69h-276v83h464v-83h-74v-151z" />
    <glyph glyph-name="uni093C" unicode="&#x93c;" horiz-adv-x="0" 
d="M-151 -52h95v-105h-95v105z" />
    <glyph glyph-name="uni093D" unicode="&#x93d;" horiz-adv-x="395" 
d="M330 552h-138.999c-10.667 0 -17.834 -1.66699 -21.501 -5s-5.5 -10.333 -5.5 -21v-118c0 -10.667 1.83301 -17.667 5.5 -21s10.834 -5 21.501 -5h57c38 0 65.167 -7.33301 81.5 -22s24.5 -38 24.5 -70v-199c0 -31.333 -8.16699 -54.333 -24.5 -69s-43.5 -22 -81.5 -22
h-101c-38 -0 -65.167 7.33301 -81.5 22s-24.5 37.667 -24.5 69v71h114v-57c0 -10.667 1.66699 -17.834 5 -21.501s9.66602 -5.5 18.999 -5.5h34c10.667 0 18 1.83301 22 5.5s6 10.834 6 21.501v172c0 10 -2 16.833 -6 20.5s-11.333 5.5 -22 5.5h-57
c-38 0 -65 7.33301 -81 22s-24 38 -24 70v144c0 32 8 55.333 24 70s43 22 81 22h174v-79z" />
    <glyph glyph-name="uni093E" unicode="&#x93e;" horiz-adv-x="211" 
d="M230 631v-83h-68v-548h-113v548h-68v83h249z" />
    <glyph glyph-name="uni093F" unicode="&#x93f;" 
d="M146 833h320.001c65.333 0 98 -31.333 98 -94v-68h-114v46c0 14 -1.83301 23 -5.5 27s-12.834 6 -27.501 6h-222c-14 0 -23 -2 -27 -6s-6 -13 -6 -27v-86h68v-83h-68v-548h-114v548h-68v83h68v108c0 62.667 32.667 94 98 94z" />
    <glyph glyph-name="uni0940" unicode="&#x940;" 
d="M230 631v-83h-68v-548h-114v548h-68v83h68v86c0 14 -2 23 -6 27s-13 6 -27 6h-43c-14.667 0 -24 -2 -28 -6s-6 -13 -6 -27v-46h-113v68c0 62.667 32.667 94 98 94h141c65.333 0 98 -31.333 98 -94v-108h68z" />
    <glyph glyph-name="uni0941" unicode="&#x941;" horiz-adv-x="0" 
d="M-61 4c68 0 102 -33.333 102 -100v-52c0 -34.667 -8.33301 -60 -25 -76s-42.334 -24 -77.001 -24h-117c-43.333 0 -76.166 6.16699 -98.499 18.5s-43.5 35.5 -63.5 69.5l-34 59h134l23 -38c10.667 -18 27.667 -27 51 -27h63c12.667 0 21 2 25 6s6 12.333 6 25v24
c0 12.667 -2 21 -6 25s-12.333 6 -25 6h-59v84h101z" />
    <glyph glyph-name="uni0942" unicode="&#x942;" horiz-adv-x="0" 
d="M-61 4c41.333 0 72.667 -6.16797 94 -18.501s42 -35.166 62 -68.499l102 -164h-134l-87 138c-12 20 -28 30 -48 30h-41c-12.667 0 -21 -1.83301 -25 -5.5s-6 -12.167 -6 -25.5v-24c0 -13.333 2 -21.833 6 -25.5s12.333 -5.5 25 -5.5h52v-84h-94
c-34.667 0 -60.334 8 -77.001 24s-25 41.667 -25 77v51c0 35.333 8.33301 61 25 77s42.334 24 77.001 24h94z" />
    <glyph glyph-name="uni0943" unicode="&#x943;" horiz-adv-x="0" 
d="M-48 4v-83h-57c-12.667 0 -21 -1.83301 -25 -5.5s-6 -12.167 -6 -25.5v-24c0 -13.333 2 -21.833 6 -25.5s12.333 -5.5 25 -5.5h93v-84h-136c-68 0 -102 33.667 -102 101v51c0 67.333 34 101 102 101h100z" />
    <glyph glyph-name="uni0944" unicode="&#x944;" horiz-adv-x="0" 
d="M-242 -83c0 58 32.667 87.001 98 87.001h96v-83h-53c-10.667 0 -17.834 -1.83301 -21.501 -5.5s-5.5 -11.167 -5.5 -22.5v-31c0 -11.333 1.83301 -18.833 5.5 -22.5s10.834 -5.5 21.501 -5.5h47v-83h-47c-10.667 0 -17.834 -1.83301 -21.501 -5.5
s-5.5 -10.834 -5.5 -21.501v-31c0 -11.333 1.83301 -18.833 5.5 -22.5s10.834 -5.5 21.501 -5.5h98v-83h-124c-39.333 0 -68.333 8 -87 24s-28 41.333 -28 76v58c0 30 14 46.667 42 50v4c-28 3.33301 -42 20.333 -42 51v72z" />
    <glyph glyph-name="uni0945" unicode="&#x945;" horiz-adv-x="0" 
d="M-288 833h97v-54c0 -11.333 2.16699 -19 6.5 -23s12.166 -6 23.499 -6h110c12 0 20 2 24 6s6 11.667 6 23v54h98v-66c0 -30 -8.83301 -52.167 -26.5 -66.5s-46.167 -21.5 -85.5 -21.5h-142c-39.333 0 -67.666 7.16699 -84.999 21.5s-26 36.5 -26 66.5v66z" />
    <glyph glyph-name="uni0946" unicode="&#x946;" horiz-adv-x="0" 
d="M-370 830h114v-23c0 -14 2 -23 6 -27s13 -6 27 -6h90c56.667 0 85 -28.333 85 -85v-95h-114v64c0 14 -2 23 -6 27s-13 6 -27 6h-90c-56.667 0 -85 28.333 -85 85v54z" />
    <glyph glyph-name="uni0947" unicode="&#x947;" horiz-adv-x="0" 
d="M-195 826l143 -204h-111c-30 25.333 -65 64.333 -105 117l-63 87h136z" />
    <glyph glyph-name="uni0948" unicode="&#x948;" horiz-adv-x="0" 
d="M-402 826h139c70.667 -82 120 -145 148 -189h4c-11.333 20.667 -23 45 -35 73l-48 116h109l32 -202h-110c-28 16.667 -64.333 45 -109 85z" />
    <glyph glyph-name="uni0949" unicode="&#x949;" horiz-adv-x="211" 
d="M190 833h98v-66c0 -30 -8.83301 -52.167 -26.5 -66.5s-46.167 -21.5 -85.5 -21.5h-142c-39.333 0 -67.666 7.16699 -84.999 21.5s-26 36.5 -26 66.5v66h97v-54c0 -11.333 2.16699 -19 6.5 -23s12.166 -6 23.499 -6h110c12 0 20 2 24 6s6 11.667 6 23v54zM-19 548v83h249
v-83h-68v-548h-113v548h-68z" />
    <glyph glyph-name="uni094A" unicode="&#x94a;" horiz-adv-x="211" 
d="M230 631v-83h-68v-548h-113v548h-68v83h67v27c0 14 -2 23 -6 27s-13 6 -27 6h-90c-56.667 0 -85 28.333 -85 85v54h114v-23c0 -14 2 -23 6 -27s13 -6 27 -6h90c56.667 0 85 -28.333 85 -85v-58h68z" />
    <glyph glyph-name="uni094B" unicode="&#x94b;" horiz-adv-x="211" 
d="M230 631v-83h-68v-548h-113v548h-68v83h60c-28 25.333 -59.667 61.333 -95 108l-63 87h136l137 -195h74z" />
    <glyph glyph-name="uni094C" unicode="&#x94c;" horiz-adv-x="211" 
d="M230 631l0.000976562 -83h-68v-548h-113v548h-68v83h59c-26.667 17.333 -59.334 43.333 -98.001 78l-130 117h139c70.667 -82 120 -145 148 -189h4c-11.333 20.667 -23 45 -35 73l-48 116h109l31 -195h70z" />
    <glyph glyph-name="uni094D" unicode="&#x94d;" horiz-adv-x="0" 
d="M-60 -61l114 -139h-116l-113 139h115z" />
    <glyph glyph-name="uni0950" unicode="&#x950;" horiz-adv-x="758" 
d="M603 358c38 0 65.165 -7.99902 81.498 -23.999s24.5 -40 24.5 -72v-166c0 -32 -8.16699 -56 -24.5 -72s-43.5 -24 -81.5 -24h-89c-37.333 0 -64.166 8 -80.499 24s-24.5 40 -24.5 72v98h113v-85c0 -10.667 1.83301 -17.667 5.5 -21s10.834 -5 21.501 -5h19
c10.667 0 18 1.83301 22 5.5s6 10.5 6 20.5v139c0 10.667 -2 17.834 -6 21.501s-11.333 5.5 -22 5.5h-230c8.66699 -8 13 -21.667 13 -41v-138c0 -32 -8.33301 -56 -25 -72s-43.667 -24 -81 -24h-100c-38 0 -65.167 8 -81.5 24s-24.5 40 -24.5 72v106h113v-93
c0 -10 2 -16.833 6 -20.5s11.333 -5.5 22 -5.5h30c10.667 0 17.834 1.66699 21.501 5s5.5 10.333 5.5 21v136c0 11.333 -2.16699 19.166 -6.5 23.499s-11.833 6.5 -22.5 6.5h-53v82h53c10.667 0 18.167 2.16699 22.5 6.5s6.5 12.166 6.5 23.499v135
c0 10.667 -1.83301 17.667 -5.5 21s-10.834 5 -21.501 5h-30c-10.667 0 -18 -1.83301 -22 -5.5s-6 -10.5 -6 -20.5v-88h-113v101c0 32 8.16699 56 24.5 72s43.5 24 81.5 24h100c37.333 0 64.333 -8 81 -24s25 -40 25 -72v-25h149c11.333 0 19 1.83301 23 5.5
s6 11.167 6 22.5v55h111v-70c0 -32 -8.16699 -56 -24.5 -72s-43.5 -24 -81.5 -24h-183v-28c0 -19.333 -4.33301 -33 -13 -41h265zM477.998 662.001v-95h-92v95h92z" />
    <glyph glyph-name="uni0915093C" unicode="&#x958;" horiz-adv-x="592" 
d="M612 548l-259.001 -0.00195312v-80c7.33301 7.33301 21 11 41 11h62c34.667 0 60.334 -8 77.001 -24s25 -41.333 25 -76v-210c0 -31.333 -8.16699 -54.333 -24.5 -69s-43.5 -22 -81.5 -22h-59v78h24c10.667 0 17.834 1.83301 21.501 5.5s5.5 10.834 5.5 21.501v186
c0 11.333 -1.83301 18.833 -5.5 22.5s-10.834 5.5 -21.501 5.5h-35c-10.667 0 -18.167 -2.16699 -22.5 -6.5s-6.5 -12.166 -6.5 -23.499v-367h-114v90c-8 -8 -21.667 -12 -41 -12h-62c-68 0 -102 33.333 -102 100v210c0 31.333 8.16699 54.333 24.5 69s43.5 22 81.5 22h59
v-78h-24c-10.667 0 -18 -1.83301 -22 -5.5s-6 -10.5 -6 -20.5v-186c0 -11.333 2 -18.833 6 -22.5s11.333 -5.5 22 -5.5h35c10.667 0 18.167 2 22.5 6s6.5 11.667 6.5 23v358h-259v83h632v-83zM66.999 -89.002v105h95v-105h-95z" />
    <glyph glyph-name="uni0916093C" unicode="&#x959;" horiz-adv-x="737" 
d="M757 631v-82.999h-69v-548h-111v116c-8 -10 -22.667 -15 -44 -15h-56c-68 0 -102 33.333 -102 100v179c0 31.333 8.16699 54.333 24.5 69s43.5 22 81.5 22h61v-78h-28c-10.667 0 -18 -1.83301 -22 -5.5s-6 -10.5 -6 -20.5v-155c0 -11.333 2 -18.833 6 -22.5
s11.333 -5.5 22 -5.5h30c12 0 20.5 2.33301 25.5 7s7.5 13 7.5 25v332h-252c4.66699 -7.33301 7 -16 7 -26v-188c0 -33.333 -8.5 -57.5 -25.5 -72.5s-44.5 -22.5 -82.5 -22.5h-66v-122c0 -12.667 2.16699 -21.334 6.5 -26.001s12.833 -7 25.5 -7h229v-84h-251
c-42.667 0 -74 7.66699 -94 23s-30 39.333 -30 72v376h114v-149h28c12.667 0 21.167 2.16699 25.5 6.5s6.5 12.833 6.5 25.5v162c0 13.333 -2 22 -6 26s-12.667 6 -26 6h-206v83h777zM141 -160.999v105h95v-105h-95z" />
    <glyph glyph-name="uni0917093C" unicode="&#x95a;" horiz-adv-x="606" 
d="M626 631l-0.000976562 -83h-68v-548h-114v548h-93v-370c0 -35.333 -9 -60.833 -27 -76.5s-47.333 -23.5 -88 -23.5h-89c-40.667 0 -70 7.83301 -88 23.5s-27 41.167 -27 76.5v173c0 33.333 9.83301 57.5 29.5 72.5s50.834 22.5 93.501 22.5h82v102h-257v83h646z
M173.999 161h35c10.667 0 18 1.83301 22 5.5s6 11.167 6 22.5v174h-61c-13.333 0 -21.833 -1.83301 -25.5 -5.5s-5.5 -12.167 -5.5 -25.5v-143c0 -11.333 2.16699 -18.833 6.5 -22.5s11.833 -5.5 22.5 -5.5zM140.999 -101v105h95v-105h-95z" />
    <glyph glyph-name="uni091C093C" unicode="&#x95b;" horiz-adv-x="595" 
d="M615 631v-83h-69v-548h-113v397h-80v-219c0 -35.333 -8.83301 -60.833 -26.5 -76.5s-47.167 -23.5 -88.5 -23.5h-80c-41.333 0 -70.833 7.83301 -88.5 23.5s-26.5 41.167 -26.5 76.5v301h113v-290c0 -11.333 2 -18.833 6 -22.5s11.667 -5.5 23 -5.5h27
c10.667 0 18 1.83301 22 5.5s6 11.167 6 22.5v290h193v69h-453v83h635zM151 -100v105h95v-105h-95z" />
    <glyph glyph-name="uni0921093C" unicode="&#x95c;" horiz-adv-x="403" 
d="M336 401h-146.999c-10.667 0 -17.834 -1.66699 -21.501 -5s-5.5 -10.333 -5.5 -21v-50c0 -10.667 1.83301 -17.667 5.5 -21s10.834 -5 21.501 -5h57c38 0 65.167 -7.33301 81.5 -22s24.5 -37.667 24.5 -69v-117c0 -31.333 -8.16699 -54.333 -24.5 -69
s-43.5 -22 -81.5 -22h-101c-38 -0 -65.167 7.33301 -81.5 22s-24.5 37.667 -24.5 69v71h114v-57c0 -10.667 1.66699 -17.834 5 -21.501s9.66602 -5.5 18.999 -5.5h34c10.667 0 18 1.83301 22 5.5s6 10.834 6 21.501v90c0 10 -2 16.833 -6 20.5s-11.333 5.5 -22 5.5h-57
c-38 0 -65 7.33301 -81 22s-24 37.667 -24 69v76c0 31.333 8 54.333 24 69s43 22 81 22h69v69h-243v83h443v-83h-87v-147zM147.001 -164v105h95v-105h-95z" />
    <glyph glyph-name="uni0922093C" unicode="&#x95d;" horiz-adv-x="439" 
d="M355 397l-165 -0.000976562c-10.667 0 -18 -1.83301 -22 -5.5s-6 -11.167 -6 -22.5v-258c0 -11.333 2 -18.833 6 -22.5s11.333 -5.5 22 -5.5h63c10.667 0 18 1.83301 22 5.5s6 11.167 6 22.5v71c0 10.667 -2 17.834 -6 21.501s-11.333 5.5 -22 5.5h-43v83h70
c40.667 0 70 -7.83301 88 -23.5s27 -41.167 27 -76.5v-92c0 -35.333 -9 -60.833 -27 -76.5s-47.333 -23.5 -88 -23.5h-117c-40.667 -0 -70 7.83301 -88 23.5s-27 41.167 -27 76.5v288c0 31.333 8.16699 54.333 24.5 69s43.5 22 81.5 22h88v69h-262v83h479v-83h-104v-151z
M175 -159.001v105h95v-105h-95z" />
    <glyph glyph-name="uni092B093C" unicode="&#x95e;" horiz-adv-x="602" 
d="M622 548l-259 -0.00195312v-81c8 8 21.667 12 41 12h63c34 0 59.333 -8 76 -24s25 -41.333 25 -76v-210c0 -31.333 -8 -54.333 -24 -69s-43 -22 -81 -22h-59v78h23c11.333 0 18.833 1.83301 22.5 5.5s5.5 10.834 5.5 21.501v186c0 11.333 -1.83301 18.833 -5.5 22.5
s-11.167 5.5 -22.5 5.5h-35c-10.667 0 -18.167 -2.16699 -22.5 -6.5s-6.5 -12.166 -6.5 -23.499v-367h-113v91c-8 -8.66699 -22 -13 -42 -13h-62c-68 0 -102 33.333 -102 100v370h-64v83h642v-83zM250 189.998l-0.000976562 358h-92v-359
c0 -11.333 1.83301 -18.833 5.5 -22.5s10.834 -5.5 21.501 -5.5h36c10.667 0 18.167 2 22.5 6s6.5 11.667 6.5 23zM92.999 -105.002v105h95v-105h-95z" />
    <glyph glyph-name="uni092F093C" unicode="&#x95f;" horiz-adv-x="516" 
d="M536 631l-0.000976562 -83h-68v-548h-114v91c-8 -8.66699 -21 -13 -39 -13h-163c-39.333 0 -68.333 8 -87 24s-28 41.333 -28 76v204h100c10.667 0 17.834 1.66699 21.501 5s5.5 10.333 5.5 21v107c0 14 -2.33301 23 -7 27s-15.667 6 -33 6h-155v83h567zM353.999 195
l-0.000976562 353h-90c6.66699 -8.66699 10 -20 10 -34v-119c0 -32 -7.83301 -56 -23.5 -72s-42.167 -24 -79.5 -24h-20v-110c0 -11.333 1.83301 -18.833 5.5 -22.5s10.834 -5.5 21.501 -5.5h142c13.333 0 22.333 2.5 27 7.5s7 13.833 7 26.5zM176.998 -102v105h95v-105h-95
z" />
    <glyph glyph-name="uni0960" unicode="&#x960;" horiz-adv-x="802" 
d="M415 548l-0.000976562 -276.999h83c-9.33301 10.667 -14 25.667 -14 45v64c0 34.667 8.66699 59.834 26 75.501s47 23.5 89 23.5h60c41.333 0 70.833 -7.83301 88.5 -23.5s26.5 -40.834 26.5 -75.501v-87c0 -34.667 -8.83301 -60 -26.5 -76s-47.167 -24 -88.5 -24h-37
c-9.33301 0 -15.833 -1.83301 -19.5 -5.5s-5.5 -11.167 -5.5 -22.5v-30c0 -11.333 1.83301 -18.833 5.5 -22.5s10.834 -5.5 21.501 -5.5h45v-83h-45c-10.667 0 -17.834 -1.83301 -21.501 -5.5s-5.5 -11.167 -5.5 -22.5v-31c0 -11.333 1.83301 -18.833 5.5 -22.5
s10.834 -5.5 21.501 -5.5h95v-82h-120c-39.333 0 -68.333 7.83301 -87 23.5s-28 41.167 -28 76.5v57c0 30.667 13.667 47.667 41 51v3c-27.333 3.33301 -41 20.333 -41 51v48c0 11.333 3 20.666 9 27.999h-78v-193h-113v193h-23l-125 -193h-129l155 238l-57 103
c-10.667 20 -21.167 33.667 -31.5 41s-24.833 11 -43.5 11h-28v84h67c34 0 59.667 -4.83301 77 -14.5s33.333 -27.167 48 -52.5l80 -139h10v277h-322v83h849v-83h-414zM596.999 375.001v-77c0 -10 1.83301 -17 5.5 -21s10.5 -6 20.5 -6h12c10 0 16.833 2 20.5 6
s5.5 11 5.5 21v77c0 10 -1.83301 17 -5.5 21s-10.5 6 -20.5 6h-12c-10 0 -16.833 -2 -20.5 -6s-5.5 -11 -5.5 -21z" />
    <glyph glyph-name="uni0961" unicode="&#x961;" horiz-adv-x="599" 
d="M554 142l-52.001 0.000976562c-10.667 0 -17.834 -1.83301 -21.501 -5.5s-5.5 -11.167 -5.5 -22.5v-30c0 -11.333 1.83301 -18.833 5.5 -22.5s10.834 -5.5 21.501 -5.5h47v-83h-47c-10.667 0 -17.834 -1.83301 -21.501 -5.5s-5.5 -11.167 -5.5 -22.5v-31
c0 -11.333 1.83301 -18.833 5.5 -22.5s10.834 -5.5 21.501 -5.5h98v-82h-124c-39.333 0 -68.333 7.83301 -87 23.5s-28 41.167 -28 76.5v57c0 30.667 13.667 47.667 41 51v3c-27.333 3.33301 -41 20.333 -41 51v72c0 52 26.667 80.667 80 86v173h-58
c-11.333 0 -18.833 -2 -22.5 -6s-5.5 -11.333 -5.5 -22v-133h-113v133c0 10.667 -1.83301 18 -5.5 22s-11.167 6 -22.5 6h-30c-10.667 0 -18 -1.83301 -22 -5.5s-6 -11.167 -6 -22.5v-258c0 -10.667 2 -17.834 6 -21.501s11.333 -5.5 22 -5.5h39v-84h-74
c-38 -0 -65.167 7.33301 -81.5 22s-24.5 37.667 -24.5 69v288c0 34.667 8.33301 60 25 76s42.334 24 77.001 24h102c30.667 0 47.667 -13.667 51 -41h3c3.33301 27.333 20.333 41 51 41h89v69h-461v83h639v-83h-65v-406z" />
    <glyph glyph-name="uni0964" unicode="&#x964;" horiz-adv-x="362" 
d="M236 662v-693h-110v693h110z" />
    <glyph glyph-name="uni0965" unicode="&#x965;" horiz-adv-x="560" 
d="M434 662v-693h-110v693h110zM236 662v-693h-110v693h110z" />
    <glyph glyph-name="uni0966" unicode="&#x966;" horiz-adv-x="423" 
d="M263 115v401c0 10.667 -2 17.834 -6 21.501s-11.667 5.5 -23 5.5h-46c-10.667 0 -18 -1.83301 -22 -5.5s-6 -10.834 -6 -21.501v-401c0 -10.667 2 -17.834 6 -21.501s11.333 -5.5 22 -5.5h46c11.333 0 19 1.83301 23 5.5s6 10.834 6 21.501zM378 532v-433
c0 -66 -36.333 -99 -109 -99h-116c-72.667 0 -109 33 -109 99v433c0 66 36.333 99 109 99h116c72.667 0 109 -33 109 -99z" />
    <glyph glyph-name="uni0967" unicode="&#x967;" horiz-adv-x="260" 
d="M212 631v-631h-115v543h-78v88h193z" />
    <glyph glyph-name="uni0968" unicode="&#x968;" horiz-adv-x="369" 
d="M139 516v-94h-115v110c0 66 36.333 99 109 99h96c73.333 0 110 -33 110 -99v-71c0 -49.333 -15 -97.333 -45 -144l-131 -229h179v-88h-315v83l163 264c23.333 35.333 35 74 35 116v53c0 10.667 -2 17.834 -6 21.501s-11.333 5.5 -22 5.5h-29
c-11.333 0 -19 -1.83301 -23 -5.5s-6 -10.834 -6 -21.501z" />
    <glyph glyph-name="uni0969" unicode="&#x969;" horiz-adv-x="390" 
d="M143 516v-85.002h-115v101c0 66 36.333 99 109 99h101c72.667 0 109 -33 109 -99v-135c0 -41.333 -14 -66.666 -42 -75.999c28 -9.33301 42 -33.333 42 -72v-150c0 -66 -36.333 -99 -109 -99h-101c-72.667 0 -109 33 -109 99v100h115v-84c0 -10.667 2 -17.834 6 -21.501
s11.333 -5.5 22 -5.5h34c10.667 0 18 1.83301 22 5.5s6 10.834 6 21.501v135c0 10.667 -1.83301 18 -5.5 22s-11.167 6 -22.5 6h-77v84h77c10.667 0 18 1.83301 22 5.5s6 10.834 6 21.501v127c0 10.667 -2 17.834 -6 21.501s-11.333 5.5 -22 5.5h-34
c-10.667 0 -18 -1.83301 -22 -5.5s-6 -10.834 -6 -21.501z" />
    <glyph glyph-name="uni096A" unicode="&#x96a;" horiz-adv-x="405" 
d="M405 211v-89h-60v-122h-109v122h-229v98l198 411h115l-208 -420h124v122h109v-122h60z" />
    <glyph glyph-name="uni096B" unicode="&#x96b;" horiz-adv-x="399" 
d="M158 401l98 -0.000976562c72.667 0 109 -33 109 -99v-203c0 -66 -36.333 -99 -109 -99h-107c-72.667 0 -109 33 -109 99v108h116v-92c0 -10.667 2 -17.834 6 -21.501s11.333 -5.5 22 -5.5h38c11.333 0 19 1.83301 23 5.5s6 10.834 6 21.501v171
c0 10.667 -2 17.834 -6 21.501s-11.667 5.5 -23 5.5h-178v318h317v-88h-203v-142z" />
    <glyph glyph-name="uni096C" unicode="&#x96c;" horiz-adv-x="414" 
d="M158 367h109c72.667 0 109 -33 109 -99v-169c0 -66 -36.333 -99 -109 -99h-114c-72.667 0 -109 33 -109 99v433c0 66 36.333 99 109 99h109c72.667 0 109 -33 109 -99v-97h-113v81c0 10.667 -2 17.834 -6 21.501s-11.333 5.5 -22 5.5h-44
c-10.667 0 -18 -1.83301 -22 -5.5s-6 -10.834 -6 -21.501v-149zM263 115v138.999c0 10.667 -2 17.834 -6 21.501s-11.667 5.5 -23 5.5h-76v-166c0 -10.667 2 -17.834 6 -21.501s11.333 -5.5 22 -5.5h48c11.333 0 19 1.83301 23 5.5s6 10.834 6 21.501z" />
    <glyph glyph-name="uni096D" unicode="&#x96d;" horiz-adv-x="329" 
d="M324 631v-68l-176 -563h-118l171 538h-194v93h317z" />
    <glyph glyph-name="uni096E" unicode="&#x96e;" horiz-adv-x="421" 
d="M377 532v-137c0 -41.333 -14 -66.666 -42 -75.999c28 -9.33301 42 -33.333 42 -72v-148c0 -66 -36.333 -99 -109 -99h-116c-72.667 0 -109 33 -109 99v148c0 38.667 14 62.667 42 72c-28 9.33301 -42 34.666 -42 75.999v137c0 66 36.333 99 109 99h116
c72.667 0 109 -33 109 -99zM266 114v138c0 10.667 -2 17.834 -6 21.501s-11.667 5.5 -23 5.5h-54c-10.667 0 -18 -1.83301 -22 -5.5s-6 -10.834 -6 -21.501v-138c0 -10.667 2 -17.834 6 -21.501s11.333 -5.5 22 -5.5h54c11.333 0 19 1.83301 23 5.5s6 10.834 6 21.501z
M266 385v132c0 10.667 -2 17.834 -6 21.501s-11.667 5.5 -23 5.5h-54c-10.667 0 -18 -1.83301 -22 -5.5s-6 -10.834 -6 -21.501v-132c0 -10.667 2 -17.834 6 -21.501s11.333 -5.5 22 -5.5h54c11.333 0 19 1.83301 23 5.5s6 10.834 6 21.501z" />
    <glyph glyph-name="uni096F" unicode="&#x96f;" horiz-adv-x="412" 
d="M145 631h113c72.667 0 109 -33 109 -99v-433c0 -66 -36.333 -99 -109 -99h-109c-72.667 0 -109 33 -109 99v95h113v-79c0 -10.667 2 -17.834 6 -21.501s11.333 -5.5 22 -5.5h45c10.667 0 18 1.83301 22 5.5s6 10.834 6 21.501v139h-109c-72.667 0 -109 33 -109 99v179
c0 66 36.333 99 109 99zM177 337l77 0.000976562v179c0 10.667 -2 17.834 -6 21.501s-11.333 5.5 -22 5.5h-49c-10.667 0 -18 -1.83301 -22 -5.5s-6 -10.834 -6 -21.501v-152c0 -10.667 2 -17.834 6 -21.501s11.333 -5.5 22 -5.5z" />
    <glyph glyph-name="uni0970" unicode="&#x970;" horiz-adv-x="372" 
d="M142 311c0 -42 14.667 -63 44 -63s44 21 44 63s-14.667 63 -44 63s-44 -21 -44 -63zM56 311c0 44 11.667 77.667 35 101s55 35 95 35s71.833 -11.833 95.5 -35.5s35.5 -57.167 35.5 -100.5s-11.833 -76.833 -35.5 -100.5s-55.5 -35.5 -95.5 -35.5s-71.667 11.667 -95 35
s-35 57 -35 101z" />
    <glyph glyph-name="uni0972" unicode="&#x972;" horiz-adv-x="559" 
d="M591 833h98v-66c0 -30 -8.83301 -52.167 -26.5 -66.5s-46.167 -21.5 -85.5 -21.5h-142c-39.333 0 -67.666 7.16699 -84.999 21.5s-26 36.5 -26 66.5v66h97v-54c0 -11.333 2.16699 -19 6.5 -23s12.166 -6 23.499 -6h110c12 0 20 2 24 6s6 11.667 6 23v54zM621 631v-82.998
h-68v-548h-113v274h-89v-100c0 -32 -8.16699 -56 -24.5 -72s-43.5 -24 -81.5 -24h-100c-38 0 -65.167 8 -81.5 24s-24.5 40 -24.5 72v90h114v-77c0 -10.667 1.83301 -17.667 5.5 -21s10.834 -5 21.501 -5h30c10.667 0 18 1.83301 22 5.5s6 10.5 6 20.5v96
c0 11.333 -2.16699 19.166 -6.5 23.499s-12.166 6.5 -23.499 6.5h-52v82h52c11.333 0 19.166 2.16699 23.499 6.5s6.5 12.166 6.5 23.499v99c0 10 -2 16.833 -6 20.5s-11.333 5.5 -22 5.5h-30c-10.667 0 -17.834 -1.66699 -21.501 -5s-5.5 -10.333 -5.5 -21v-72h-114v85
c0 32 8.16699 56 24.5 72s43.5 24 81.5 24h100c38 0 65.167 -8 81.5 -24s24.5 -40 24.5 -72v-130c0 -30.667 -13.667 -47.667 -41 -51h130v275h181z" />
    <glyph glyph-name="uni200B" unicode="&#x200b;" horiz-adv-x="0" 
 />
    <glyph glyph-name="uni200C" unicode="&#x200c;" horiz-adv-x="0" 
d="M24 -230h-47v1041h47v-1041z" />
    <glyph glyph-name="uni200D" unicode="&#x200d;" horiz-adv-x="0" 
d="M24 -230h-47v865l-69 -73l-33 33l93 93l-95 95l33 33l95 -95l96 95l32 -32l-96 -96l96 -95l-33 -33l-72 75v-865z" />
    <glyph glyph-name="endash" unicode="&#x2013;" horiz-adv-x="474" 
d="M31 255v83h365v-83h-365z" />
    <glyph glyph-name="emdash" unicode="&#x2014;" horiz-adv-x="598" 
d="M20 255v83h554v-83h-554z" />
    <glyph glyph-name="quoteleft" unicode="&#x2018;" horiz-adv-x="191" 
d="M157 354h-123v72l87 205h36v-277z" />
    <glyph glyph-name="quoteright" unicode="&#x2019;" horiz-adv-x="191" 
d="M34 631h123v-72l-87 -205h-36v277z" />
    <glyph glyph-name="quotesinglbase" unicode="&#x201a;" horiz-adv-x="190" 
d="M34 135h122v-72l-84 -205h-38v277z" />
    <glyph glyph-name="quotedblleft" unicode="&#x201c;" horiz-adv-x="358" 
d="M156 354h-122v72l87 205h35v-277zM323 354h-121v72l86 205h35v-277z" />
    <glyph glyph-name="quotedblright" unicode="&#x201d;" horiz-adv-x="358" 
d="M202 631h121v-72l-86 -205h-35v277zM34 631h122v-72l-87 -205h-35v277z" />
    <glyph glyph-name="quotedblbase" unicode="&#x201e;" horiz-adv-x="358" 
d="M202 135h121v-72l-86 -205h-35v277zM34 135h122v-72l-87 -205h-35v277z" />
    <glyph glyph-name="dagger" unicode="&#x2020;" horiz-adv-x="389" 
d="M382 472v-84h-130v-498h-115v498h-130v84h130v159h115v-159h130z" />
    <glyph glyph-name="daggerdbl" unicode="&#x2021;" horiz-adv-x="413" 
d="M394 388h-130v-294h130v-83h-130v-159h-115v159h-130v83h130v294h-130v84h130v159h115v-159h130v-84z" />
    <glyph glyph-name="bullet" unicode="&#x2022;" horiz-adv-x="396" 
d="M62 321c0 37.333 13.333 69.333 40 96s58.667 40 96 40s69.333 -13.333 96 -40s40 -58.667 40 -96s-13.333 -69.333 -40 -96s-58.667 -40 -96 -40s-69.333 13.333 -96 40s-40 58.667 -40 96z" />
    <glyph glyph-name="ellipsis" unicode="&#x2026;" horiz-adv-x="612" 
d="M470 0v132h127v-132h-127zM259 0v132h127v-132h-127zM48 0v132h128v-132h-128z" />
    <glyph glyph-name="perthousand" unicode="&#x2030;" horiz-adv-x="1018" 
d="M897 98v155c0 10 -1.66699 16.667 -5 20s-10 5 -20 5h-20c-10 0 -16.5 -1.66699 -19.5 -5s-4.5 -10 -4.5 -20v-155c0 -10 1.5 -16.667 4.5 -20s9.5 -5 19.5 -5h20c10 0 16.667 1.66699 20 5s5 10 5 20zM990 267v-183c0 -56 -29.667 -84 -89 -84h-77
c-59.333 0 -89 28 -89 84v183c0 28 7 49 21 63s36.667 21 68 21h77c59.333 0 89 -28 89 -84zM469 631h90l-312 -631h-89zM595 98v155c0 10 -1.66699 16.667 -5 20s-10 5 -20 5h-20c-10 0 -16.5 -1.66699 -19.5 -5s-4.5 -10 -4.5 -20v-155c0 -10 1.5 -16.667 4.5 -20
s9.5 -5 19.5 -5h20c10 0 16.667 1.66699 20 5s5 10 5 20zM190 377v156c0 10 -1.5 16.667 -4.5 20s-9.5 5 -19.5 5h-20c-10 0 -16.667 -1.83301 -20 -5.5s-5 -10.167 -5 -19.5v-156c0 -9.33301 1.66699 -15.666 5 -18.999s10 -5 20 -5h20c10 0 16.5 1.66699 19.5 5
s4.5 9.66602 4.5 18.999zM688 267v-183c0 -56 -29.667 -84 -89 -84h-77c-59.333 0 -89 28 -89 84v183c0 28 7 49 21 63s36.667 21 68 21h77c59.333 0 89 -28 89 -84zM283 547v-184c0 -55.333 -29.667 -83 -89 -83h-77c-59.333 0 -89 27.667 -89 83v184c0 56 29.667 84 89 84
h77c59.333 0 89 -28 89 -84z" />
    <glyph glyph-name="guilsinglleft" unicode="&#x2039;" horiz-adv-x="292" 
d="M147 102l-116 154l116 154h117l-116 -154l116 -154h-117z" />
    <glyph glyph-name="guilsinglright" unicode="&#x203a;" horiz-adv-x="293" 
d="M264 256l-116 -154h-117l116 154l-116 154h117z" />
    <glyph glyph-name="fraction" unicode="&#x2044;" horiz-adv-x="396" 
d="M279 700h101l-283 -803h-101z" />
    <glyph glyph-name="Euro" unicode="&#x20ac;" horiz-adv-x="433" 
d="M400 422h-116v98c0 10.667 -2 17.834 -6 21.501s-11.333 5.5 -22 5.5h-46c-11.333 0 -19 -1.83301 -23 -5.5s-6 -10.834 -6 -21.501v-107h79v-74h-79v-46h79v-76h-79v-107c0 -10.667 2 -17.834 6 -21.501s11.667 -5.5 23 -5.5h46c10.667 0 18 1.83301 22 5.5
s6 10.834 6 21.501v96h116v-108c0 -66 -36.333 -99 -109 -99h-117c-72 0 -108 33 -108 99v119h-45v76h45v46h-45v74h45v119c0 66 36 99 108 99h117c72.667 0 109 -33 109 -99v-110z" />
    <glyph glyph-name="uni20B9" unicode="&#x20b9;" horiz-adv-x="393" 
d="M347 631v-77.001h-71c6 -8.66699 9 -24 9 -46v-31h62v-77h-62v-60c0 -36 -9.16699 -61.833 -27.5 -77.5s-48.5 -23.167 -90.5 -22.5h-8l147 -240h-121l-145 240v83h104c11.333 0 18.833 1.83301 22.5 5.5s5.5 11.167 5.5 22.5v49h-132v77h132v50
c0 10.667 -2 17.834 -6 21.501s-11.333 5.5 -22 5.5h-104v77h307z" />
    <glyph glyph-name="trademark" unicode="&#x2122;" horiz-adv-x="657" 
d="M627 631v-327h-82v195l-46 -143h-73l-47 143v-195h-82v327h102l63 -185l62 185h103zM7 556v75h257v-75h-83v-252h-91v252h-83z" />
    <glyph glyph-name="uni2126" unicode="&#x2126;" horiz-adv-x="441" 
d="M429 88l0.000976562 -88h-187v88h10c9.33301 0 15.666 2.33301 18.999 7s5 12.667 5 24v397c0 10.667 -2 17.834 -6 21.501s-11.667 5.5 -23 5.5h-53c-10.667 0 -18 -1.83301 -22 -5.5s-6 -10.834 -6 -21.501v-397c0 -11.333 1.5 -19.333 4.5 -24s9.5 -7 19.5 -7h10v-88
h-188v88h68c-19.333 12.667 -29 35 -29 67v377c0 66 36.333 99 109 99h122c72.667 0 109 -33 109 -99v-377c0 -32 -9.66699 -54.333 -29 -67h67z" />
    <glyph glyph-name="product" unicode="&#x220f;" horiz-adv-x="466" 
d="M65 631l352 -0.000976562v-631h-115v547h-124v-448c0 -66 -36.333 -99 -109 -99h-63v91h30c11.333 0 19 1.83301 23 5.5s6 10.834 6 21.501v513z" />
    <glyph glyph-name="minus" unicode="&#x2212;" horiz-adv-x="506" 
d="M21 270v89h397v-89h-397z" />
    <glyph glyph-name="uni2215" unicode="&#x2215;" horiz-adv-x="396" 
d="M279 700h101l-283 -803h-101z" />
    <glyph glyph-name="uni2219" unicode="&#x2219;" horiz-adv-x="190" 
d="M34 248v135h122v-135h-122z" />
    <glyph glyph-name="infinity" unicode="&#x221e;" horiz-adv-x="595" 
d="M416 505l47.999 0.000976562c72.667 0 109 -32.333 109 -97v-120c0 -64.667 -36.333 -97 -109 -97h-36c-29.333 0 -51.666 4.16699 -66.999 12.5s-32 25.166 -50 50.499l-14 19c-20.667 -36.667 -39.334 -59.5 -56.001 -68.5s-43 -13.5 -79 -13.5h-32
c-72 0 -108 32.333 -108 97v120c0 64.667 36 97 108 97h37c27.333 0 48 -5 62 -15c16.667 -11.333 38.334 -37 65.001 -77c27.333 44 47 70.333 59 79s33 13 63 13zM141.999 267.001h31c20 0 36 10 48 30l30 47l-33 48c-8.66699 12.667 -16.667 21.834 -24 27.501
s-17 8.5 -29 8.5h-23c-12.667 0 -20.834 -2.33301 -24.501 -7s-5.5 -13.334 -5.5 -26.001v-94c0 -13.333 1.83301 -22.333 5.5 -27s11.834 -7 24.501 -7zM482.999 301.001v94c0 13.333 -1.83301 22.333 -5.5 27s-12.167 7 -25.5 7h-41c-12.667 0 -25 -9 -37 -27l-35 -59
l35 -47c13.333 -19.333 28.333 -29 45 -29h33c13.333 0 21.833 2.33301 25.5 7s5.5 13.667 5.5 27z" />
    <glyph glyph-name="integral" unicode="&#x222b;" horiz-adv-x="349" 
d="M235 -31c0 -66 -36.334 -99 -109.001 -99h-82v91h49c10.667 0 17.834 1.83301 21.501 5.5s6.16699 10.834 7.5 21.501v627c0 66 36.333 99 109 99h82v-91h-49c-10.667 0 -18 -1.83301 -22 -5.5s-6.33301 -10.834 -7 -21.501v-627z" />
    <glyph glyph-name="approxequal" unicode="&#x2248;" horiz-adv-x="512" 
d="M336 182c-24 0 -45.3291 6.00098 -63.9961 18.001s-35.834 23.833 -51.501 35.5s-30.334 17.5 -44.001 17.5s-22.5 -2.5 -26.5 -7.5s-6 -13.5 -6 -25.5v-37h-104v62c0 29.333 7.16699 51 21.5 65s37.833 21 70.5 21h45c18.667 0 36.167 -3.66699 52.5 -11
s29.166 -15.333 38.499 -24c24.667 -24 49 -36 73 -36c11.333 0 18.666 2.5 21.999 7.5s5 13.833 5 26.5v37h104v-62c0 -28.667 -7.16699 -50.334 -21.5 -65.001s-37.833 -22 -70.5 -22h-44zM336.004 364.001c-24 0 -45.3291 6.00098 -63.9961 18.001
s-35.834 23.833 -51.501 35.5s-30.334 17.5 -44.001 17.5s-22.5 -2.66699 -26.5 -8s-6 -14 -6 -26v-37h-104v62c0 29.333 7.33301 51.166 22 65.499s38 21.5 70 21.5h45c18.667 0 36.167 -3.66699 52.5 -11s29.166 -15.333 38.499 -24c24.667 -24 49 -36 73 -36
c11.333 0 18.666 2.5 21.999 7.5s5 13.833 5 26.5v36h104v-62c0 -28.667 -7.16699 -50.167 -21.5 -64.5s-37.833 -21.5 -70.5 -21.5h-44z" />
    <glyph glyph-name="notequal" unicode="&#x2260;" horiz-adv-x="500" 
d="M461 365v-96h-195l-85 -169h-79l85 169h-148v96h196l84 166h79l-84 -166h147z" />
    <glyph glyph-name="lessequal" unicode="&#x2264;" horiz-adv-x="478" 
d="M433 205v-83h-400v83h400zM433 450l-302 -62l302 -64v-93l-400 112v94l400 104v-91z" />
    <glyph glyph-name="greaterequal" unicode="&#x2265;" horiz-adv-x="478" 
d="M39 122v83h400v-83h-400zM341 388l-302 62v91l400 -104v-94l-400 -112v93z" />
    <glyph glyph-name="lozenge" unicode="&#x25ca;" horiz-adv-x="557" 
d="M331 631l170 -315l-170 -316h-108l-167 316l167 315h108zM277 94l110 222l-110 221l-107 -221z" />
    <glyph glyph-name="uni25CC" unicode="&#x25cc;" horiz-adv-x="419" 
d="M175 151h66v-73h-66v73zM175 485h66v-73h-66v73zM279 412v73c44 0 66 -24.333 66 -73h-66zM279 374h66v-73h-66v73zM279 262h66v-73h-66v73zM279 151h66c0 -20 -6 -37.167 -18 -51.5s-28 -21.5 -48 -21.5v73zM137 412h-66c0 22.667 6 40.5 18 53.5s28 19.5 48 19.5v-73z
M71 374h66v-73h-66v73zM71 262h66v-73h-66v73zM137 151l-0.000976562 -73c-19.333 0 -35.166 6.66699 -47.499 20s-18.5 31 -18.5 53h66z" />
    <glyph glyph-name="commaaccent" unicode="&#xf6c3;" horiz-adv-x="444" 
d="M163 -49h118v-60l-80 -141h-38v201z" />
    <glyph glyph-name="fi" unicode="&#xfb01;" horiz-adv-x="415" 
d="M260 669h113v-88h-113v88zM373 491v-490.999h-113v403h-91v-403h-112v403h-50v88h50v79c0 66 36 99 108 99h51v-88h-19c-10.667 0 -18 -1.83301 -22 -5.5s-6 -10.834 -6 -21.501v-63h204z" />
    <glyph glyph-name="fl" unicode="&#xfb02;" horiz-adv-x="415" 
d="M261 669l112 0.000976562v-669h-112v403h-92v-403h-112v403h-50v88h50v79c0 66 36 99 108 99h51v-88h-19c-10.667 0 -18 -1.83301 -22 -5.5s-6 -10.834 -6 -21.501v-63h92v178z" />
    <glyph glyph-name=".null" horiz-adv-x="0" 
 />
    <glyph glyph-name="nonmarkingreturn" horiz-adv-x="333" 
 />
    <glyph glyph-name="uni0915094D" horiz-adv-x="414" 
d="M499 548l-146 -0.000976562v-110c7.33301 7.33301 21 11 41 11h105v-82h-117c-10.667 0 -18.167 -2.16699 -22.5 -6.5s-6.5 -12.166 -6.5 -23.499v-337h-114v90c-8 -8 -21.667 -12 -41 -12h-62c-68 0 -102 33.333 -102 100v210c0 31.333 8.16699 54.333 24.5 69
s43.5 22 81.5 22h59v-78h-24c-10.667 0 -18 -1.83301 -22 -5.5s-6 -10.5 -6 -20.5v-186c0 -11.333 2 -18.833 6 -22.5s11.333 -5.5 22 -5.5h35c10.667 0 18.167 2 22.5 6s6.5 11.667 6.5 23v358h-259v83h519v-83z" />
    <glyph glyph-name="uni0916094D" horiz-adv-x="534" 
d="M-20 631h639v-83h-294c4.66699 -7.33301 7 -16 7 -26v-197c0 -33.333 -8.5 -57.333 -25.5 -72s-44.5 -22 -82.5 -22h-66v-114c0 -12.667 2.16699 -21.334 6.5 -26.001s12.833 -7 25.5 -7h208v-84h-230c-42.667 0 -74 7.66699 -94 23s-30 39.333 -30 72v376h114v-158h28
c12.667 0 21.167 2.33301 25.5 7s6.5 13.334 6.5 26.001v170c0 13.333 -2 22 -6 26s-12.667 6 -26 6h-206v83zM486 367v-155c0 -11.333 2 -18.833 6 -22.5s11.333 -5.5 22 -5.5h105v-83h-142c-68 0 -102 33.333 -102 100v179c0 31.333 8.16699 54.333 24.5 69
s43.5 22 81.5 22h61v-78h-28c-10.667 0 -18 -1.83301 -22 -5.5s-6 -10.5 -6 -20.5z" />
    <glyph glyph-name="uni0917094D" horiz-adv-x="394" 
d="M416 631l-0.000976562 -83h-65v-370c0 -35.333 -9 -60.833 -27 -76.5s-47.333 -23.5 -88 -23.5h-89c-40.667 0 -70 7.83301 -88 23.5s-27 41.167 -27 76.5v173c0 33.333 9.83301 57.5 29.5 72.5s50.834 22.5 93.501 22.5h82v102h-257v83h436zM173.999 161h35
c10.667 0 18 1.83301 22 5.5s6 11.167 6 22.5v174h-61c-13.333 0 -21.833 -1.83301 -25.5 -5.5s-5.5 -12.167 -5.5 -25.5v-143c0 -11.333 2.16699 -18.833 6.5 -22.5s11.833 -5.5 22.5 -5.5z" />
    <glyph glyph-name="uni0918094D" horiz-adv-x="257" 
d="M363 548l-173.001 -0.000976562c-13.333 0 -22 -2 -26 -6s-6 -12.667 -6 -26v-93c0 -11.333 1.83301 -18.833 5.5 -22.5s10.834 -5.5 21.501 -5.5h53v-82h-53c-10.667 0 -17.834 -1.83301 -21.501 -5.5s-5.5 -11.167 -5.5 -22.5v-96c0 -11.333 1.83301 -18.833 5.5 -22.5
s10.834 -5.5 21.501 -5.5h178v-83h-203c-40 0 -69.333 8 -88 24s-28 41.333 -28 76v123c0 31.333 14 48 42 50v4c-28 3.33301 -42 20.333 -42 51v116c0 10.667 2.33301 19.334 7 26.001h-71v83h383v-83z" />
    <glyph glyph-name="uni0919094D" horiz-adv-x="442" 
d="M-20 631h482.001v-83h-126v-147h-147c-10.667 0 -17.834 -1.66699 -21.501 -5s-5.5 -10.333 -5.5 -21v-50c0 -10.667 1.83301 -17.667 5.5 -21s10.834 -5 21.501 -5h57c38 0 65.167 -7.33301 81.5 -22s24.5 -37.667 24.5 -69v-117c0 -31.333 -8.16699 -54.333 -24.5 -69
s-43.5 -22 -81.5 -22h-101c-38 -0 -65.167 7.33301 -81.5 22s-24.5 37.667 -24.5 69v71h114v-57c0 -10.667 1.66699 -17.834 5 -21.501s9.66602 -5.5 18.999 -5.5h34c10.667 0 18 1.83301 22 5.5s6 10.834 6 21.501v90c0 10 -2 16.833 -6 20.5s-11.333 5.5 -22 5.5h-57
c-38 0 -65 7.33301 -81 22s-24 37.667 -24 69v76c0 31.333 8 54.333 24 69s43 22 81 22h69v69h-243v83zM344.001 297v105h94v-105h-94zM138.001 -61h115l114 -139h-116z" />
    <glyph glyph-name="uni091A094D" horiz-adv-x="225" 
d="M-21 631h349v-83h-349v83zM171 369v-180c0 -11.333 1.83301 -18.833 5.5 -22.5s10.834 -5.5 21.501 -5.5h130v-83h-169c-68 0 -102 33.333 -102 100v180c0 18 4.66699 31 14 39h-73v82h233v-82h-33c-10.667 0 -17.834 -1.83301 -21.501 -5.5s-5.5 -11.167 -5.5 -22.5z
" />
    <glyph glyph-name="uni091B094D" horiz-adv-x="589" 
d="M609 631l-0.000976562 -82.998h-406l5 -1c-20.667 1.33301 -34 0.166016 -40 -3.50098s-9 -12.834 -9 -27.501v-135c0 -11.333 2 -18.833 6 -22.5s11.333 -5.5 22 -5.5h35v-82h-35c-10.667 0 -18 -1.83301 -22 -5.5s-6 -11.167 -6 -22.5v-131
c0 -11.333 2 -18.833 6 -22.5s11.333 -5.5 22 -5.5h219c11.333 0 18.833 1.83301 22.5 5.5s5.5 11.167 5.5 22.5v267c0 10.667 -1.83301 17.667 -5.5 21s-11.167 5 -22.5 5h-18c-10.667 0 -17.834 -1.66699 -21.501 -5s-5.5 -10.333 -5.5 -21v-92
c0 -10.667 1.83301 -17.667 5.5 -21s10.834 -5 21.501 -5h16v-74h-38c-65.333 0 -98 30.333 -98 91v110c0 32.667 8.66699 56 26 70s44.333 21 81 21h62c36.667 0 63.834 -7 81.501 -21s26.5 -37.333 26.5 -70v-288c0 -34.667 -9.33301 -60 -28 -76s-48 -24 -88 -24h-268
c-39.333 0 -68.333 8 -87 24s-28 41.333 -28 76v159c0 30.667 13.667 47.667 41 51v3c-27.333 3.33301 -41 20.333 -41 51v158c0 12 2.33301 20.667 7 26h-73v83h629z" />
    <glyph glyph-name="uni091C094D" horiz-adv-x="384" 
d="M156 479v-290c0 -11.333 2 -18.833 6 -22.5s11.667 -5.5 23 -5.5h27c10.667 0 18 1.83301 22 5.5s6 11.167 6 22.5v290h230v-82h-117v-219c0 -35.333 -8.83301 -60.833 -26.5 -76.5s-47.167 -23.5 -88.5 -23.5h-80c-41.333 0 -70.833 7.83301 -88.5 23.5
s-26.5 41.167 -26.5 76.5v301h113zM470 631v-83h-490v83h490z" />
    <glyph glyph-name="uni091D094D" horiz-adv-x="401" 
d="M346 401h-166c-10.667 0 -18 -1.83301 -22 -5.5s-6 -10.5 -6 -20.5v-33c0 -10 2 -16.833 6 -20.5s11.333 -5.5 22 -5.5h309v-79h-133c1.33301 -9.33301 2 -16.333 2 -21v-81c0 -31.333 -8.16699 -54.333 -24.5 -69s-43.5 -22 -81.5 -22h-98v-71h-114v206h114v-57h63
c10.667 0 18 1.83301 22 5.5s6 10.5 6 20.5v63c0 10 -2 16.833 -6 20.5s-11.333 5.5 -22 5.5h-72c-38 0 -65.167 7.33301 -81.5 22s-24.5 38 -24.5 70v59c0 31.333 8.16699 54.333 24.5 69s43.5 22 81.5 22h87v69h-252v83h509v-83h-143v-147z" />
    <glyph glyph-name="uni091E094D" horiz-adv-x="376" 
d="M-20 631h495v-83h-495v83zM333 384l0.000976562 -51.001h142v-83h-142v-72c0 -35.333 -8.83301 -60.833 -26.5 -76.5s-47.167 -23.5 -88.5 -23.5h-77c-41.333 0 -70.833 7.83301 -88.5 23.5s-26.5 41.167 -26.5 76.5v84h113v-73c0 -11.333 2 -18.833 6 -22.5
s11.333 -5.5 22 -5.5h25c10.667 0 18 1.83301 22 5.5s6 11.167 6 22.5v181c0 10.667 -1.83301 17.834 -5.5 21.501s-11.167 5.5 -22.5 5.5h-93v82h129c37.333 0 64.166 -8 80.499 -24s24.5 -39.667 24.5 -71z" />
    <glyph glyph-name="uni091F094D" horiz-adv-x="402" 
d="M-20 631h442v-83h-67v-151h-165c-10.667 0 -18 -1.83301 -22 -5.5s-6 -11.167 -6 -22.5v-258c0 -11.333 2 -18.833 6 -22.5s11.333 -5.5 22 -5.5h27c10.667 0 18.167 1.83301 22.5 5.5s6.5 11.167 6.5 22.5v103h113v-114c0 -35.333 -9 -60.833 -27 -76.5
s-47.333 -23.5 -88 -23.5h-81c-40.667 -0 -70 7.83301 -88 23.5s-27 41.167 -27 76.5v288c0 31.333 8.16699 54.333 24.5 69s43.5 22 81.5 22h88v69h-262v83zM156 -61h115l114 -139h-116z" />
    <glyph glyph-name="uni0920094D" horiz-adv-x="421" 
d="M441 548h-172.001v-69c38.667 -0.666992 66.167 -8.83398 82.5 -24.501s24.5 -40.834 24.5 -75.501v-279c0 -35.333 -8.83301 -60.833 -26.5 -76.5s-47.167 -23.5 -88.5 -23.5h-98c-40.667 0 -70 7.83301 -88 23.5s-27 41.167 -27 76.5v279
c0 34.667 8.33301 59.834 25 75.501s44.334 23.834 83.001 24.501v69h-176v83h461v-83zM262.999 111v258c0 11.333 -2 18.833 -6 22.5s-11.333 5.5 -22 5.5h-45c-10.667 0 -18 -1.83301 -22 -5.5s-6 -11.167 -6 -22.5v-258c0 -11.333 2 -18.833 6 -22.5s11.333 -5.5 22 -5.5
h45c10.667 0 18 1.83301 22 5.5s6 11.167 6 22.5zM137.999 -61h115l114 -139h-116z" />
    <glyph glyph-name="uni0921094D" horiz-adv-x="403" 
d="M-20 631h443.001v-83h-87v-147h-147c-10.667 0 -17.834 -1.66699 -21.501 -5s-5.5 -10.333 -5.5 -21v-50c0 -10.667 1.83301 -17.667 5.5 -21s10.834 -5 21.501 -5h57c38 0 65.167 -7.33301 81.5 -22s24.5 -37.667 24.5 -69v-117c0 -31.333 -8.16699 -54.333 -24.5 -69
s-43.5 -22 -81.5 -22h-101c-38 -0 -65.167 7.33301 -81.5 22s-24.5 37.667 -24.5 69v71h114v-57c0 -10.667 1.66699 -17.834 5 -21.501s9.66602 -5.5 18.999 -5.5h34c10.667 0 18 1.83301 22 5.5s6 10.834 6 21.501v90c0 10 -2 16.833 -6 20.5s-11.333 5.5 -22 5.5h-57
c-38 0 -65 7.33301 -81 22s-24 37.667 -24 69v76c0 31.333 8 54.333 24 69s43 22 81 22h69v69h-243v83zM138.001 -61h115l114 -139h-116z" />
    <glyph glyph-name="uni0922094D" horiz-adv-x="439" 
d="M355 397l-165 -0.000976562c-10.667 0 -18 -1.83301 -22 -5.5s-6 -11.167 -6 -22.5v-258c0 -11.333 2 -18.833 6 -22.5s11.333 -5.5 22 -5.5h63c10.667 0 18 1.83301 22 5.5s6 11.167 6 22.5v71c0 10.667 -2 17.834 -6 21.501s-11.333 5.5 -22 5.5h-43v83h70
c40.667 0 70 -7.83301 88 -23.5s27 -41.167 27 -76.5v-92c0 -35.333 -9 -60.833 -27 -76.5s-47.333 -23.5 -88 -23.5h-117c-40.667 -0 -70 7.83301 -88 23.5s-27 41.167 -27 76.5v288c0 31.333 8.16699 54.333 24.5 69s43.5 22 81.5 22h88v69h-262v83h479v-83h-104v-151z
M156 -61.001h115l114 -139h-116z" />
    <glyph glyph-name="uni0923094D" horiz-adv-x="389" 
d="M416 631v-83h-63v-370c0 -35.333 -8.83301 -60.833 -26.5 -76.5s-47.167 -23.5 -88.5 -23.5h-80c-41.333 0 -70.833 7.83301 -88.5 23.5s-26.5 41.167 -26.5 76.5v370h-63v83h436zM240 189v359h-84v-359c0 -11.333 2 -18.833 6 -22.5s11.667 -5.5 23 -5.5h27
c10.667 0 18 1.83301 22 5.5s6 11.167 6 22.5z" />
    <glyph glyph-name="uni0924094D" horiz-adv-x="216" 
d="M284 479v-81.998h-100c-10.667 0 -18 -1.83301 -22 -5.5s-6 -10.834 -6 -21.501v-259c0 -10.667 2 -17.834 6 -21.501s11.333 -5.5 22 -5.5h24v-84h-59c-38 -0 -65.167 7.33301 -81.5 22s-24.5 37.667 -24.5 69v297c0 31.333 8.16699 54.333 24.5 69s43.5 22 81.5 22h135
zM284 631.002v-83h-304v83h304z" />
    <glyph glyph-name="uni0925094D" horiz-adv-x="358" 
d="M466 78l-302.999 -0.000976562c-39.333 0 -68.333 8 -87 24s-28 41.333 -28 76v196h110c10.667 0 18 1.83301 22 5.5s6 10.834 6 21.501v126c0 10 -2 16.833 -6 20.5s-11.333 5.5 -22 5.5h-6c-10.667 0 -17.834 -1.66699 -21.501 -5s-5.5 -10.333 -5.5 -21v-41h-69v59
c0 31.333 8 54.333 24 69s41.333 22 76 22h42c67.333 0 101 -30.333 101 -91v-158c0 -32 -8.16699 -55.833 -24.5 -71.5s-43.5 -23.5 -81.5 -23.5h-32v-103c0 -11.333 2 -18.833 6 -22.5s11.333 -5.5 22 -5.5h277v-83z" />
    <glyph glyph-name="uni0926094D" horiz-adv-x="420" 
d="M351 -61l114 -139h-116l-113 139h115zM245 0l-0.000976562 90c-8 -8 -21.667 -12 -41 -12h-47c-40.667 0 -70 7.83301 -88 23.5s-27 41.167 -27 76.5v210c0 31.333 8.16699 54.333 24.5 69s43.5 22 81.5 22h93v69h-267v83h449v-83h-69v-151h-170
c-10.667 0 -18 -1.83301 -22 -5.5s-6 -11.167 -6 -22.5v-180c0 -11.333 1.83301 -18.833 5.5 -22.5s10.834 -5.5 21.501 -5.5h33c10.667 0 18.167 2 22.5 6s6.5 11.667 6.5 23v87h113v-277h-113z" />
    <glyph glyph-name="uni0927094D" horiz-adv-x="369" 
d="M176 414c0 -11.333 1.83398 -18.832 5.50098 -22.499s10.834 -5.5 21.501 -5.5h69v-83h-69c-10.667 0 -17.834 -1.83301 -21.501 -5.5s-5.5 -10.834 -5.5 -21.501v-87c0 -11.333 1.83301 -18.833 5.5 -22.5s10.834 -5.5 21.501 -5.5h276v-83h-315
c-68 0 -102 30.333 -102 91v123c0 30 14 46.667 42 50v4c-28 3.33301 -42 20.333 -42 51v148c0 60.667 34 91 102 91h43c67.333 0 101 -30.333 101 -91v-59h-69v41c0 10.667 -1.83301 17.667 -5.5 21s-10.834 5 -21.501 5h-9c-10.667 0 -17.834 -1.66699 -21.501 -5
s-5.5 -10.333 -5.5 -21v-113z" />
    <glyph glyph-name="uni0928094D" horiz-adv-x="368" 
d="M-20 631h489v-83h-489v83zM33 178v210c0 31.333 8.16699 54.333 24.5 69s43.5 22 81.5 22h330v-82h-128v-219c0 -35.333 -9 -60.833 -27 -76.5s-47.667 -23.5 -89 -23.5h-77c-41.333 0 -70.833 7.83301 -88.5 23.5s-26.5 41.167 -26.5 76.5zM146 370v-180.999
c0 -11.333 2 -18.833 6 -22.5s11.667 -5.5 23 -5.5h24c10.667 0 18 1.83301 22 5.5s6 11.167 6 22.5v208h-53c-10.667 0 -18 -1.83301 -22 -5.5s-6 -10.834 -6 -21.501z" />
    <glyph glyph-name="uni092A094D" horiz-adv-x="201" 
d="M307 548h-149.001v-359c0 -11.333 1.83301 -18.833 5.5 -22.5s10.834 -5.5 21.501 -5.5h122v-83h-161c-68 0 -102 33.333 -102 100v370h-64v83h327v-83z" />
    <glyph glyph-name="uni092B094D" horiz-adv-x="407" 
d="M501 548h-138v-116c8 8.66699 21.667 13 41 13h97v-83h-109c-10.667 0 -18.167 -2.16699 -22.5 -6.5s-6.5 -11.833 -6.5 -22.5v-333h-113v91c-8 -8.66699 -22 -13 -42 -13h-62c-68 0 -102 33.333 -102 100v370h-64v83h521v-83zM250 190l-0.000976562 358h-92v-359
c0 -11.333 1.83301 -18.833 5.5 -22.5s10.834 -5.5 21.501 -5.5h36c10.667 0 18.167 2 22.5 6s6.5 11.667 6.5 23z" />
    <glyph glyph-name="uni092C094D" horiz-adv-x="259" 
d="M155 189c0 -11.333 1.83203 -18.832 5.49902 -22.499s10.834 -5.5 21.501 -5.5h97l-69 112c-30.667 55.333 -49 86.666 -55 93.999v-178zM142.999 78.001c-68 0 -102 33.333 -102 100v210c0 31.333 8.16699 54.333 24.5 69s43.5 22 81.5 22h119v-78h-74l61 -101l85 -148
v-74h-195zM337.999 631.001v-83h-358v83h358z" />
    <glyph glyph-name="uni092D094D" horiz-adv-x="421" 
d="M525 418l0.00195312 -83h-164v-157c0 -35.333 -9 -60.833 -27 -76.5s-47.333 -23.5 -88 -23.5h-88c-41.333 0 -70.833 7.83301 -88.5 23.5s-26.5 41.167 -26.5 76.5v149c0 31.333 8.16699 54.333 24.5 69s43.5 22 81.5 22h98v106c0 10.667 -1.83301 17.667 -5.5 21
s-10.834 5 -21.501 5h-28c-10.667 0 -17.834 -1.66699 -21.501 -5s-5.5 -10.333 -5.5 -21v-43h-114v56c0 32 8.16699 56 24.5 72s43.5 24 81.5 24h98c37.333 0 64.333 -8 81 -24s25 -40 25 -72v-119h164zM247.002 189v146h-63c-10.667 0 -18 -1.83301 -22 -5.5
s-6 -10.5 -6 -20.5v-120c0 -11.333 2 -18.833 6 -22.5s11.667 -5.5 23 -5.5h34c10.667 0 18 1.83301 22 5.5s6 11.167 6 22.5z" />
    <glyph glyph-name="uni092E094D" horiz-adv-x="400" 
d="M491 548h-140v-116h140v-83h-140v-154c0 -35.333 -9 -60.833 -27 -76.5s-47.333 -23.5 -88 -23.5h-88c-41.333 0 -70.833 7.83301 -88.5 23.5s-26.5 41.167 -26.5 76.5v146c0 31.333 8.16699 54.333 24.5 69s43.5 22 81.5 22h98v116h-261v83h515v-83zM237 205v144h-71
c-10.667 0 -18 -1.83301 -22 -5.5s-6 -10.5 -6 -20.5v-118c0 -10.667 2.16699 -17.834 6.5 -21.501s11.833 -5.5 22.5 -5.5h42c10.667 0 18 1.83301 22 5.5s6 10.834 6 21.501z" />
    <glyph glyph-name="uni092F094D" horiz-adv-x="306" 
d="M412 631l-0.00195312 -83h-148c6.66699 -8.66699 10 -20 10 -34v-119c0 -32 -7.83301 -56 -23.5 -72s-42.167 -24 -79.5 -24h-20v-110c0 -11.333 1.83301 -18.833 5.5 -22.5s10.834 -5.5 21.501 -5.5h234v-83h-260c-39.333 0 -68.333 8 -87 24s-28 41.333 -28 76v204h100
c10.667 0 17.834 1.66699 21.501 5s5.5 10.333 5.5 21v107c0 14 -2.33301 23 -7 27s-15.667 6 -33 6h-155v83h443z" />
    <glyph glyph-name="uni0930094D" horiz-adv-x="393" 
d="M342 -61l114 -139h-116l-113 139h115zM352 208l0.000976562 -117.001c0 -31.333 -8 -54.333 -24 -69s-43 -22 -81 -22h-98c-38 0 -65.167 7.33301 -81.5 22s-24.5 37.667 -24.5 69v366h113v-105h52c12.667 0 21.167 2.33301 25.5 7s6.5 13.334 6.5 26.001v131
c0 13.333 -2 22 -6 26s-12.667 6 -26 6h-228v83h433v-83h-67c4.66699 -5.33301 7 -14 7 -26v-158c0 -32.667 -9.83301 -56.5 -29.5 -71.5s-50.834 -22.5 -93.501 -22.5h-74v-165c0 -10.667 2 -17.834 6 -21.501s11.333 -5.5 22 -5.5h30c10 0 16.667 1.83301 20 5.5
s5 10.834 5 21.501v103h113z" />
    <glyph glyph-name="uni0932094D" horiz-adv-x="396" 
d="M253 479c30.667 0 47.667 -13.666 51 -40.999h3c3.33301 27.333 20 41 50 41h114v-82h-82c-11.333 0 -18.833 -2 -22.5 -6s-5.5 -11.333 -5.5 -22v-189h-113v189c0 10.667 -1.83301 18 -5.5 22s-11.167 6 -22.5 6h-31c-10.667 0 -17.834 -1.83301 -21.501 -5.5
s-5.5 -11.167 -5.5 -22.5v-258c0 -10.667 1.83301 -17.834 5.5 -21.501s10.834 -5.5 21.501 -5.5h57v-84h-92c-38 -0 -65 7.33301 -81 22s-24 37.667 -24 69v288c0 34.667 8.33301 60 25 76s42 24 76 24h103zM471 631.001v-83h-491v83h491z" />
    <glyph glyph-name="uni0933094D" horiz-adv-x="614" 
d="M253 369c0 10.667 -1.83301 18 -5.5 22s-11.167 6 -22.5 6h-47c-10.667 0 -17.834 -1.83301 -21.501 -5.5s-5.5 -11.167 -5.5 -22.5v-180c0 -11.333 1.83301 -18.833 5.5 -22.5s10.834 -5.5 21.501 -5.5h47c11.333 0 18.833 2 22.5 6s5.5 11.333 5.5 22v180zM463 369
c0 11.333 -1.83301 18.833 -5.5 22.5s-10.834 5.5 -21.501 5.5h-47c-11.333 0 -18.666 -2 -21.999 -6s-5 -11.333 -5 -22v-180c0 -10.667 1.66699 -18 5 -22s10.666 -6 21.999 -6h47c10.667 0 17.834 1.83301 21.501 5.5s5.5 11.167 5.5 22.5v180zM475 479
c34.667 0 60.333 -8 77 -24s25 -41.333 25 -76v-201c0 -66.667 -34 -100 -102 -100h-106c-36 0 -55.667 13.667 -59 41h-4c-2 -27.333 -21.667 -41 -59 -41h-108c-68 0 -102 33.333 -102 100v201c0 66.667 34 100 102 100h108c37.333 0 57 -13.667 59 -41h4
c3.33301 27.333 23 41 59 41h106zM644.999 631v-83h-676v83h676z" />
    <glyph glyph-name="uni0935094D" horiz-adv-x="201" 
d="M209 479v-78h-24c-10.667 0 -17.834 -1.66699 -21.501 -5s-5.5 -10.333 -5.5 -21v-186c0 -11.333 1.83301 -18.833 5.5 -22.5s10.834 -5.5 21.501 -5.5h122v-83h-161c-68 0 -102 33.333 -102 100v210c0 31.333 8.16699 54.333 24.5 69s43.5 22 81.5 22h59zM307 631v-83
h-327v83h327z" />
    <glyph glyph-name="uni0936094D" horiz-adv-x="417" 
d="M239 253l-73.999 -0.000976562v-148c0 -10.667 1.83301 -17.834 5.5 -21.501s11.167 -5.5 22.5 -5.5h30c9.33301 0 15.833 1.83301 19.5 5.5s5.5 10.834 5.5 21.501v86h113v-100c0 -31.333 -8.16699 -54.333 -24.5 -69s-43.5 -22 -81.5 -22h-98c-38 0 -65 7.33301 -81 22
s-24 37.667 -24 69v297h113v-53h52c12.667 0 21.167 2.33301 25.5 7s6.5 13.334 6.5 26.001v157c0 10.667 -1.83301 17.667 -5.5 21s-11.167 5 -22.5 5h-30c-10 0 -16.667 -1.83301 -20 -5.5s-5 -10.5 -5 -20.5v-69h-113v82c0 32 8.16699 56 24.5 72s43.5 24 81.5 24h97
c38 0 65.167 -8 81.5 -24s24.5 -40 24.5 -72v-191c0 -32.667 -9.83301 -56.5 -29.5 -71.5s-50.834 -22.5 -93.501 -22.5z" />
    <glyph glyph-name="uni0937094D" horiz-adv-x="249" 
d="M341 631v-83h-175l89 -172c26 -49.333 51.333 -111 76 -185l1 -56c-4 -38 -29.333 -57 -76 -57h-106c-68 0 -102 33.333 -102 100v370h-68v83h361zM162 344l-0.000976562 -155.002c0 -11.333 1.83301 -18.833 5.5 -22.5s10.834 -5.5 21.501 -5.5h79
c15.333 0 24.333 4.66699 27 14c-82.667 160.667 -130 257.334 -142 290.001c6 -33.333 9 -73.666 9 -120.999z" />
    <glyph glyph-name="uni0938094D" horiz-adv-x="386" 
d="M457 631v-83.001h-111c4.66699 -5.33301 7 -14 7 -26v-125c0 -19.333 -4.66699 -34.333 -14 -45h118v-82h-301v-165c0 -10.667 2 -17.834 6 -21.501s11.333 -5.5 22 -5.5h30c10 0 16.667 1.83301 20 5.5s5 10.834 5 21.501v103h113v-117c0 -31.333 -8 -54.333 -24 -69
s-43 -22 -81 -22h-98c-38 0 -65.167 7.33301 -81.5 22s-24.5 37.667 -24.5 69v366h113v-105h52c12.667 0 21.167 2.33301 25.5 7s6.5 13.334 6.5 26.001v131c0 13.333 -2 22 -6 26s-12.667 6 -26 6h-228v83h477z" />
    <glyph glyph-name="uni0939094D" horiz-adv-x="393" 
d="M370 397h-181c-10.667 0 -17.834 -1.83301 -21.501 -5.5s-5.5 -10.5 -5.5 -20.5v-34c0 -10 1.83301 -16.667 5.5 -20s10.834 -5 21.501 -5h298v-83h-298c-10.667 0 -17.834 -1.83301 -21.501 -5.5s-5.5 -11.167 -5.5 -22.5v-90c0 -11.333 1.83301 -18.833 5.5 -22.5
s10.834 -5.5 21.501 -5.5h186v-83h-212c-39.333 0 -68.333 8 -87 24s-28 41.333 -28 76v118c0 30 14 46.667 42 50v3c-28 3.33301 -42 20.333 -42 51v66c0 31.333 8.16699 54.333 24.5 69s43.5 22 81.5 22h102v69h-276v83h507v-83h-117v-151z" />
    <glyph glyph-name="uni0915093C094D" horiz-adv-x="414" 
d="M499 548l-146 -0.000976562v-110c7.33301 7.33301 21 11 41 11h105v-82h-117c-10.667 0 -18.167 -2.16699 -22.5 -6.5s-6.5 -12.166 -6.5 -23.499v-337h-114v90c-8 -8 -21.667 -12 -41 -12h-62c-68 0 -102 33.333 -102 100v210c0 31.333 8.16699 54.333 24.5 69
s43.5 22 81.5 22h59v-78h-24c-10.667 0 -18 -1.83301 -22 -5.5s-6 -10.5 -6 -20.5v-186c0 -11.333 2 -18.833 6 -22.5s11.333 -5.5 22 -5.5h35c10.667 0 18.167 2 22.5 6s6.5 11.667 6.5 23v358h-259v83h519v-83zM67 -89.001v105h95v-105h-95z" />
    <glyph glyph-name="uni0916093C094D" horiz-adv-x="534" 
d="M-20 631h639v-83h-294c4.66699 -7.33301 7 -16 7 -26v-197c0 -33.333 -8.5 -57.333 -25.5 -72s-44.5 -22 -82.5 -22h-66v-114c0 -12.667 2.16699 -21.334 6.5 -26.001s12.833 -7 25.5 -7h208v-84h-230c-42.667 0 -74 7.66699 -94 23s-30 39.333 -30 72v376h114v-158h28
c12.667 0 21.167 2.33301 25.5 7s6.5 13.334 6.5 26.001v170c0 13.333 -2 22 -6 26s-12.667 6 -26 6h-206v83zM486 367v-155c0 -11.333 2 -18.833 6 -22.5s11.333 -5.5 22 -5.5h105v-83h-142c-68 0 -102 33.333 -102 100v179c0 31.333 8.16699 54.333 24.5 69
s43.5 22 81.5 22h61v-78h-28c-10.667 0 -18 -1.83301 -22 -5.5s-6 -10.5 -6 -20.5zM141 -161v105h95v-105h-95z" />
    <glyph glyph-name="uni0917093C094D" horiz-adv-x="394" 
d="M416 631l-0.000976562 -83h-65v-370c0 -35.333 -9 -60.833 -27 -76.5s-47.333 -23.5 -88 -23.5h-89c-40.667 0 -70 7.83301 -88 23.5s-27 41.167 -27 76.5v173c0 33.333 9.83301 57.5 29.5 72.5s50.834 22.5 93.501 22.5h82v102h-257v83h436zM173.999 161h35
c10.667 0 18 1.83301 22 5.5s6 11.167 6 22.5v174h-61c-13.333 0 -21.833 -1.83301 -25.5 -5.5s-5.5 -12.167 -5.5 -25.5v-143c0 -11.333 2.16699 -18.833 6.5 -22.5s11.833 -5.5 22.5 -5.5zM139.999 -106v105h95v-105h-95z" />
    <glyph glyph-name="uni091C093C094D" horiz-adv-x="384" 
d="M156 479v-290c0 -11.333 2 -18.833 6 -22.5s11.667 -5.5 23 -5.5h27c10.667 0 18 1.83301 22 5.5s6 11.167 6 22.5v290h230v-82h-117v-219c0 -35.333 -8.83301 -60.833 -26.5 -76.5s-47.167 -23.5 -88.5 -23.5h-80c-41.333 0 -70.833 7.83301 -88.5 23.5
s-26.5 41.167 -26.5 76.5v301h113zM470 631v-83h-490v83h490zM148 0h95v-105h-95v105z" />
    <glyph glyph-name="uni0928093C094D" horiz-adv-x="368" 
d="M-20 631h489v-83h-489v83zM33 178v210c0 31.333 8.16699 54.333 24.5 69s43.5 22 81.5 22h330v-82h-128v-219c0 -35.333 -9 -60.833 -27 -76.5s-47.667 -23.5 -89 -23.5h-77c-41.333 0 -70.833 7.83301 -88.5 23.5s-26.5 41.167 -26.5 76.5zM146 370v-180.999
c0 -11.333 2 -18.833 6 -22.5s11.667 -5.5 23 -5.5h24c10.667 0 18 1.83301 22 5.5s6 11.167 6 22.5v208h-53c-10.667 0 -18 -1.83301 -22 -5.5s-6 -10.834 -6 -21.501zM243 -105.999v105h95v-105h-95z" />
    <glyph glyph-name="uni092B093C094D" horiz-adv-x="445" 
d="M501 548h-138v-116c8 8.66699 21.667 13 41 13h97v-83h-109c-10.667 0 -18.167 -2.16699 -22.5 -6.5s-6.5 -11.833 -6.5 -22.5v-333h-113v91c-8 -8.66699 -22 -13 -42 -13h-62c-68 0 -102 33.333 -102 100v370h-64v83h521v-83zM250 190l-0.000976562 358h-92v-359
c0 -11.333 1.83301 -18.833 5.5 -22.5s10.834 -5.5 21.501 -5.5h36c10.667 0 18.167 2 22.5 6s6.5 11.667 6.5 23zM83.999 -106v105h95v-105h-95z" />
    <glyph glyph-name="uni092F093C094D" horiz-adv-x="306" 
d="M412 631l-0.00195312 -83h-148c6.66699 -8.66699 10 -20 10 -34v-119c0 -32 -7.83301 -56 -23.5 -72s-42.167 -24 -79.5 -24h-20v-110c0 -11.333 1.83301 -18.833 5.5 -22.5s10.834 -5.5 21.501 -5.5h234v-83h-260c-39.333 0 -68.333 8 -87 24s-28 41.333 -28 76v204h100
c10.667 0 17.834 1.66699 21.501 5s5.5 10.333 5.5 21v107c0 14 -2.33301 23 -7 27s-15.667 6 -33 6h-155v83h443zM176.998 -102v105h95v-105h-95z" />
    <glyph glyph-name="uni09080902" horiz-adv-x="394" 
d="M374 744h79v-84h-79v84zM341 751v-120h73v-83h-73v-147h-167c-10.667 0 -18 -1.83301 -22 -5.5s-6 -10.5 -6 -20.5v-33c0 -10 2 -16.833 6 -20.5s11.333 -5.5 22 -5.5h75c38 0 65.167 -7.33301 81.5 -22s24.5 -38 24.5 -70v-89c0 -31.333 -8.16699 -54.333 -24.5 -69
s-43.5 -22 -81.5 -22h-95v-71h-114v206h114v-57h60c11.333 0 18.833 1.66699 22.5 5s5.5 10.333 5.5 21v63c0 10.667 -1.83301 17.667 -5.5 21s-11.167 5 -22.5 5h-75c-38 0 -65.167 7.33301 -81.5 22s-24.5 38 -24.5 70v59c0 31.333 8.16699 54.333 24.5 69
s43.5 22 81.5 22h89v69h-248v83h248v133c0 31.333 8 54.333 24 69s43 22 81 22h86v-78h-50c-11.333 0 -18.833 -1.66699 -22.5 -5s-5.5 -10.333 -5.5 -21z" />
    <glyph glyph-name="uni09300941" horiz-adv-x="590" 
d="M610 631l0.000976562 -83.001h-264c4.66699 -5.33301 7 -14 7 -26v-43h110c38 0 65 -7.33301 81 -22s24 -37.667 24 -69v-132h-113v114c0 10.667 -1.83301 17.667 -5.5 21s-11.167 5 -22.5 5h-74v-32c0 -32.667 -9.83301 -56.5 -29.5 -71.5s-50.834 -22.5 -93.501 -22.5
h-74v-165c0 -10.667 2 -17.834 6 -21.501s11.333 -5.5 22 -5.5h30c10 0 16.667 1.83301 20 5.5s5 10.834 5 21.501v103h113v-117c0 -31.333 -8 -54.333 -24 -69s-43 -22 -81 -22h-98c-38 0 -65.167 7.33301 -81.5 22s-24.5 37.667 -24.5 69v366h113v-105h52
c12.667 0 21.167 2.33301 25.5 7s6.5 13.334 6.5 26.001v131c0 13.333 -2 22 -6 26s-12.667 6 -26 6h-228v83h630z" />
    <glyph glyph-name="uni09300942" horiz-adv-x="610" 
d="M630 631l0.000976562 -83.001h-284c4.66699 -5.33301 7 -14 7 -26v-43h113c38 0 65.167 -7.33301 81.5 -22s24.5 -37.667 24.5 -69v-205c0 -32 -8.16699 -55.333 -24.5 -70s-43.5 -22 -81.5 -22h-68v85h33c10.667 0 17.834 1.66699 21.501 5s5.5 10.333 5.5 21v168
c0 10.667 -1.83301 17.667 -5.5 21s-10.834 5 -21.501 5h-78v-32c0 -32.667 -9.83301 -56.5 -29.5 -71.5s-50.834 -22.5 -93.501 -22.5h-74v-165c0 -10.667 2 -17.834 6 -21.501s11.333 -5.5 22 -5.5h30c10 0 16.667 1.83301 20 5.5s5 10.834 5 21.501v103h113v-117
c0 -31.333 -8 -54.333 -24 -69s-43 -22 -81 -22h-98c-38 0 -65.167 7.33301 -81.5 22s-24.5 37.667 -24.5 69v366h113v-105h52c12.667 0 21.167 2.33301 25.5 7s6.5 13.334 6.5 26.001v131c0 13.333 -2 22 -6 26s-12.667 6 -26 6h-228v83h650z" />
    <glyph glyph-name="uni09390941" horiz-adv-x="418" 
d="M370 397h-181.001c-10.667 0 -17.834 -1.83301 -21.501 -5.5s-5.5 -10.5 -5.5 -20.5v-30c0 -10 1.83301 -16.833 5.5 -20.5s10.834 -5.5 21.501 -5.5h71c41.333 0 70.833 -7.83301 88.5 -23.5s26.5 -41.167 26.5 -76.5v-47h-113v37c0 11.333 -2 18.833 -6 22.5
s-11.667 5.5 -23 5.5h-44c-10.667 0 -17.834 -1.83301 -21.501 -5.5s-5.5 -11.167 -5.5 -22.5v-94c0 -11.333 1.83301 -18.833 5.5 -22.5s10.834 -5.5 21.501 -5.5h86c34.667 0 60.334 -8 77.001 -24s25 -41.333 25 -76v-52c0 -66.667 -34 -100 -102 -100h-111
c-44 0 -77.167 6.16699 -99.5 18.5s-43.5 35.833 -63.5 70.5l-34 58h134l23 -38c10.667 -17.333 27.667 -26 51 -26h58c12.667 0 21 2 25 6s6 12.333 6 25v24c0 12.667 -2 21 -6 25s-12.333 6 -25 6h-70c-42.667 0 -72.5 7.66699 -89.5 23s-25.5 41 -25.5 77v121
c0 30.667 14 47.667 42 51v3c-28 3.33301 -42 20.333 -42 51v62c0 31.333 8.16699 54.333 24.5 69s43.5 22 81.5 22h102v69h-276v83h464v-83h-74v-151z" />
    <glyph glyph-name="uni09390942" horiz-adv-x="424" 
d="M264 0h-42c-13.333 0 -21.833 -2 -25.5 -6s-5.5 -12.333 -5.5 -25v-24c0 -12.667 1.83301 -21 5.5 -25s12.167 -6 25.5 -6h52v-83h-94c-34 0 -58.833 7.83301 -74.5 23.5s-23.5 41.167 -23.5 76.5v52c0 12 1 22.667 3 32c-24.667 10.667 -37 37.667 -37 81v125
c0 30.667 14 47.667 42 51v3c-28 3.33301 -42 20.333 -42 51v62c0 31.333 8.16699 54.333 24.5 69s43.5 22 81.5 22h102v69h-276v83h464v-83h-74v-151h-181c-10.667 0 -17.834 -1.83301 -21.501 -5.5s-5.5 -10.5 -5.5 -20.5v-30c0 -10 1.83301 -16.833 5.5 -20.5
s10.834 -5.5 21.501 -5.5h71c41.333 0 70.833 -7.83301 88.5 -23.5s26.5 -41.167 26.5 -76.5v-47h-113v37c0 11.333 -2 18.833 -6 22.5s-11.667 5.5 -23 5.5h-44c-10.667 0 -17.834 -1.83301 -21.501 -5.5s-5.5 -11.167 -5.5 -22.5v-94c0 -11.333 1.83301 -18.833 5.5 -22.5
s10.834 -5.5 21.501 -5.5h81c40.667 0 70.667 -6 90 -18s40 -35 62 -69l102 -164h-126l-87 139c-12 19.333 -27.667 29 -47 29z" />
    <glyph glyph-name="uni09260943" horiz-adv-x="403" 
d="M354 397h-170.001c-10.667 0 -18 -1.83301 -22 -5.5s-6 -11.167 -6 -22.5v-180c0 -11.333 1.83301 -18.833 5.5 -22.5s10.834 -5.5 21.501 -5.5h33c10.667 0 18.167 2 22.5 6s6.5 11.667 6.5 23v87h113v-355h-82c-11.333 0 -18.833 -1.66699 -22.5 -5
s-5.5 -10.333 -5.5 -21v-35c0 -10.667 1.83301 -17.667 5.5 -21s11.167 -5 22.5 -5h132v-83h-167c-38 0 -65.167 7.33301 -81.5 22s-24.5 37.667 -24.5 69v66c0 32 7.83301 55.167 23.5 69.5s42.5 21.5 80.5 21.5h6v90c-8 -8 -21.667 -12 -41 -12h-47
c-40.667 0 -70 7.83301 -88 23.5s-27 41.167 -27 76.5v210c0 31.333 8.16699 54.333 24.5 69s43.5 22 81.5 22h93v69h-267v83h449v-83h-69v-151z" />
    <glyph glyph-name="uni09390943" horiz-adv-x="411" 
d="M362 401l-173 0.00195312c-10.667 0 -17.834 -1.83301 -21.501 -5.5s-5.5 -10.167 -5.5 -19.5v-25c0 -10 1.83301 -16.833 5.5 -20.5s10.834 -5.5 21.501 -5.5h85c46 0 69 -16.667 69 -50c0 -14.667 -6.33301 -32 -19 -52s-19 -32.667 -19 -38c0 -8 5 -12 15 -12h40v-60
h-78c-44 0 -66 16 -66 48c0 13.333 6 29.166 18 47.499s18 30.166 18 35.499c0 8 -5 12 -15 12h-48c-10.667 0 -17.834 -1.83301 -21.501 -5.5s-5.5 -11.167 -5.5 -22.5v-126c0 -11.333 1.83301 -18.833 5.5 -22.5s10.834 -5.5 21.501 -5.5h186v-74h-212
c-39.333 0 -68.333 8 -87 24s-28 41.333 -28 76v127c0 30 14 46.667 42 50v3c-28 3.33301 -42 20.333 -42 51v57c0 31.333 8.16699 54.333 24.5 69s43.5 22 81.5 22h95v69h-269v83h456v-83h-74v-147z" />
    <glyph glyph-name="uni094D0930" horiz-adv-x="0" 
d="M-168 28h127l98 -171h-101l-60 118l-62 -118h-102z" />
    <glyph glyph-name="uni0930094D.1" horiz-adv-x="316" 
d="M-20 631h356v-83h-356v83zM336 382v-83.001h-122c-37.333 0 -64 7.83301 -80 23.5s-24 39.834 -24 72.501v65h110v-52c0 -10 2 -16.833 6 -20.5s11.333 -5.5 22 -5.5h88z" />
    <glyph glyph-name="uni0930094D.2" horiz-adv-x="0" 
d="M23 706h-42.999c-10.667 0 -17.834 -1.66699 -21.501 -5s-5.5 -10 -5.5 -20v-67h-114v80c0 31.333 8.16699 54.333 24.5 69s43.5 22 81.5 22h78v-79z" />
    <glyph glyph-name="uni0930094D0902" horiz-adv-x="0" 
d="M-16 744h79v-84h-79v84zM29 855v-78h-50c-11.333 0 -18.833 -1.66699 -22.5 -5s-5.5 -10.333 -5.5 -21v-137h-113v150c0 31.333 8 54.333 24 69s43 22 81 22h86z" />
    <glyph glyph-name="uni093E0930094D" horiz-adv-x="211" 
d="M232 706h-42.999c-10.667 0 -17.834 -1.66699 -21.501 -5s-5.5 -10 -5.5 -20v-50h68v-83h-68v-548h-113v548h-68v83h67v63c0 31.333 8.16699 54.333 24.5 69s43.5 22 81.5 22h78v-79z" />
    <glyph glyph-name="uni093E0930094D0902" horiz-adv-x="211" 
d="M195 744h79v-84h-79v84zM162 751v-120h68v-83h-68v-548h-113v548h-68v83h68v133c0 31.333 8 54.333 24 69s43 22 81 22h86v-78h-50c-11.333 0 -18.833 -1.66699 -22.5 -5s-5.5 -10.333 -5.5 -21z" />
    <glyph glyph-name="uni0930094D.aMatraI" horiz-adv-x="0" 
d="M70 706h-42.999c-10.667 0 -17.834 -1.66699 -21.501 -5s-5.5 -10 -5.5 -20v-67h-114v80c0 31.333 8.16699 54.333 24.5 69s43.5 22 81.5 22h78v-79z" />
    <glyph glyph-name="uni0902.aMatraI" horiz-adv-x="0" 
d="M24 762h95v-105h-95v105z" />
    <glyph glyph-name="uni0930094D0902.aMatraI" horiz-adv-x="0" 
d="M33 744h79v-84h-79v84zM78 855v-78h-50c-11.333 0 -18.833 -1.66699 -22.5 -5s-5.5 -10.333 -5.5 -21v-137h-113v150c0 31.333 8 54.333 24 69s43 22 81 22h86z" />
    <glyph glyph-name="uni09400930094D" 
d="M247 788h-52c-14 0 -23 -2 -27 -6s-6 -13 -6 -27v-124h68v-83h-68v-548h-114v548h-68v83h68v86c0 14 -2 23 -6 27s-13 6 -27 6h-43c-14 0 -23.167 -2 -27.5 -6s-6.5 -13 -6.5 -27v-46h-113v68c0 62.667 32.667 94 98 94h117c40.667 0 61.667 -14.667 63 -44h4v18
c0 42.667 24 64 72 64h68v-83z" />
    <glyph glyph-name="uni09400902" 
d="M195 780h94v-105h-94v105zM162 739v-108h68v-83h-68v-548h-114v548h-68v83h68v86c0 14 -2 23 -6 27s-13 6 -27 6h-43c-14.667 0 -24 -2 -28 -6s-6 -13 -6 -27v-46h-113v68c0 62.667 32.667 94 98 94h141c65.333 0 98 -31.333 98 -94z" />
    <glyph glyph-name="uni09400930094D0902" 
d="M197 750h80v-83h-80v83zM162 755v-124h68v-83h-68v-548h-114v548h-68v83h68v86c0 14 -2 23 -6 27s-13 6 -27 6h-43c-14 0 -23.167 -2 -27.5 -6s-6.5 -13 -6.5 -27v-46h-113v68c0 62.667 32.667 94 98 94h117c40.667 0 61.667 -14.667 63 -44h4v18c0 42.667 24 64 72 64
h68v-83h-52c-14 0 -23 -2 -27 -6s-6 -13 -6 -27z" />
    <glyph glyph-name="uni0940.aLong" 
d="M230 631v-83h-68v-548h-114v548h-68v83h68v86c0 14 -2 23 -6 27s-13 6 -27 6h-219c-14.667 0 -24 -2 -28 -6s-6 -13 -6 -27v-46h-113v68c0 62.667 32.667 94 98 94h317c65.333 0 98 -31.333 98 -94v-108h68z" />
    <glyph glyph-name="uni09400930094D.aLong" 
d="M247 788h-52c-14 0 -23 -2 -27 -6s-6 -13 -6 -27v-124h68v-83h-68v-548h-114v548h-68v83h68v86c0 14 -2 23 -6 27s-13 6 -27 6h-219c-14 0 -23 -2 -27 -6s-6 -13 -6 -27v-46h-114v68c0 62.667 32.667 94 98 94h293c40.667 0 61.667 -14.667 63 -44h4v18
c0 42.667 24 64 72 64h68v-83z" />
    <glyph glyph-name="uni09400902.aLong" 
d="M195 780h94v-105h-94v105zM162 739v-108h68v-83h-68v-548h-114v548h-68v83h68v86c0 14 -2 23 -6 27s-13 6 -27 6h-219c-14.667 0 -24 -2 -28 -6s-6 -13 -6 -27v-46h-113v68c0 62.667 32.667 94 98 94h317c65.333 0 98 -31.333 98 -94z" />
    <glyph glyph-name="uni09400930094D0902.aLong" 
d="M199 745h80v-84h-80v84zM162 755v-124h68v-83h-68v-548h-114v548h-68v83h68v86c0 14 -2 23 -6 27s-13 6 -27 6h-219c-14 0 -23 -2 -27 -6s-6 -13 -6 -27v-46h-114v68c0 62.667 32.667 94 98 94h293c40.667 0 61.667 -14.667 63 -44h4v18c0 42.667 24 64 72 64h68v-83h-52
c-14 0 -23 -2 -27 -6s-6 -13 -6 -27z" />
    <glyph glyph-name="uni09470930094D" horiz-adv-x="0" 
d="M-133 784c0 58 32.333 87 97 87h55v-83h-37c-14 0 -23 -2 -27 -6s-6 -13 -6 -27v-133h-109c-50 36.667 -94 80 -132 130l-55 74h137l39 -55c22 -32.667 37.333 -62.667 46 -90h3c-7.33301 38.667 -11 73 -11 103z" />
    <glyph glyph-name="uni09470902" horiz-adv-x="0" 
d="M-99 821h94v-105h-94v105zM-191 826l143 -204h-111c-30 25.333 -65 64.333 -105 117l-63 87h136z" />
    <glyph glyph-name="uni09470930094D0902" horiz-adv-x="0" 
d="M-133 784c0 58 32.333 87 97 87h55v-83h-37c-14 0 -23 -2 -27 -6s-6 -13 -6 -27v-133h-109c-50 36.667 -94 80 -132 130l-55 74h137l39 -55c22 -32.667 37.333 -62.667 46 -90h3c-7.33301 38.667 -11 73 -11 103zM-28 750h80v-84h-80v84z" />
    <glyph glyph-name="uni09480930094D" horiz-adv-x="0" 
d="M-104 770c0 44 24.333 66.002 73 66.002h50v-83h-34c-14 0 -23.5 -2.33301 -28.5 -7s-7.5 -14.334 -7.5 -29.001v-93h-111c-26.667 12.667 -68.667 41 -126 85l-151 117h139c74 -70.667 134.333 -133.667 181 -189h4c-32.667 41.333 -62 83.666 -88 126.999l-40 62h110
c19.333 -68.667 30.333 -111 33 -127h3c-4.66699 23.333 -7 47 -7 71z" />
    <glyph glyph-name="uni09480902" horiz-adv-x="0" 
d="M-40 769h94v-105h-94v105zM-402 826h139c70.667 -82 120 -145 148 -189h4c-11.333 20.667 -23 45 -35 73l-48 116h109l32 -202h-110c-28 16.667 -64.333 45 -109 85z" />
    <glyph glyph-name="uni09480930094D0902" horiz-adv-x="0" 
d="M-23 749h80v-84h-80v84zM-96 699c-5.33301 42.667 -7.99805 78.001 -7.99805 106.001c0 44 24.667 66 74 66h50v-83h-33c-14.667 0 -24.334 -2.33301 -29.001 -7s-7 -14 -7 -28v-129h-112c-24.667 12 -66.334 40.333 -125.001 85l-151 117h139c80 -78 140 -141 180 -189
h5c-29.333 35.333 -59 77.666 -89 126.999l-39 62h109c19.333 -68.667 30.333 -111 33 -127h3z" />
    <glyph glyph-name="uni094B0930094D" horiz-adv-x="211" 
d="M232 788h-37c-14 0 -23 -2 -27 -6s-6 -13 -6 -27v-124h68v-83h-68v-548h-113v548h-68v83h60c-46.667 36 -86.667 76.333 -120 121l-55 74h137l39 -55c22 -32.667 37.333 -62.667 46 -90h3c-7.33301 38.667 -11 73 -11 103c0 58 32.333 87 97 87h55v-83z" />
    <glyph glyph-name="uni094B0902" horiz-adv-x="211" 
d="M230 631v-83h-68v-548h-113v548h-68v83h64c-28 25.333 -59.667 61.333 -95 108l-63 87h136l137 -195h70zM209 821v-105h-94v105h94z" />
    <glyph glyph-name="uni094B0930094D0902" horiz-adv-x="211" 
d="M186 750h79v-84h-79v84zM163 755v-124h67v-83h-68v-548h-113v548h-68v83h61c-46.667 36 -86.667 76.333 -120 121l-55 74h137l39 -55c22 -32.667 37.333 -62.667 46 -90h3c-7.33301 38.667 -11 73 -11 103c0 58 32.333 87 97 87h55v-83h-37c-14 0 -23 -2 -27 -6
s-6 -13 -6 -27z" />
    <glyph glyph-name="uni094C0930094D" horiz-adv-x="211" 
d="M232 753l-34.001 0.00195312c-14 0 -23.5 -2.33301 -28.5 -7s-7.5 -14.334 -7.5 -29.001v-86h68v-83h-68v-548h-113v548h-68v83h56c-23.333 12.667 -60.666 38.667 -111.999 78l-151 117h139c74 -70.667 134.333 -133.667 181 -189h4
c-32.667 41.333 -62 83.666 -88 126.999l-40 62h110c19.333 -68.667 30.333 -111 33 -127h3c-4.66699 23.333 -7 47 -7 71c0 44 24.333 66 73 66h50v-83z" />
    <glyph glyph-name="uni094C0902" horiz-adv-x="211" 
d="M176 769h94v-105h-94v105zM230 631l0.000976562 -83h-68v-548h-113v548h-68v83h61c-26.667 17.333 -59.334 43.333 -98.001 78l-130 117h139c70.667 -82 120 -145 148 -189h4c-11.333 20.667 -23 45 -35 73l-48 116h109l31 -195h68z" />
    <glyph glyph-name="uni094C0930094D0902" horiz-adv-x="211" 
d="M188 749h80v-84h-80v84zM115 699c-5.33301 42.667 -7.99902 78.001 -7.99902 106.001c0 44 24.667 66 74 66h50v-83h-33c-14.667 0 -24.334 -2.33301 -29.001 -7s-7 -14 -7 -28v-122h68v-83h-68v-548h-113v548h-68v83h55c-20.667 11.333 -57.667 37.333 -111 78l-151 117
h139c80 -78 140 -141 180 -189h5c-29.333 35.333 -59 77.666 -89 126.999l-39 62h109c19.333 -68.667 30.333 -111 33 -127h3z" />
    <glyph glyph-name="uni0915094D0937" horiz-adv-x="644" 
d="M664 631v-82.999h-69v-548h-113v280h-312c-11.333 0 -19 -1.83301 -23 -5.5s-6 -10.834 -6 -21.501v-99c0 -11.333 2 -18.833 6 -22.5s11.667 -5.5 23 -5.5h73c12 0 20.667 2.5 26 7.5s8 13.5 8 25.5v51h114v-237h-114v86c-7.33301 -10 -22 -15 -44 -15h-114
c-60.667 0 -91 30.667 -91 92v132c0 52.667 21.333 83.334 64 92.001c-8.66699 8 -13 20.333 -13 37v139c0 35.333 9 60.833 27 76.5s47.333 23.5 88 23.5h84c40.667 0 70 -7.83301 88 -23.5s27 -41.167 27 -76.5v-148c0 -10.667 -2.66699 -19.334 -8 -26.001h97v269h182z
M280 390.001v135c0 11.333 -2.16699 18.833 -6.5 22.5s-11.833 5.5 -22.5 5.5h-30c-10.667 0 -18 -1.83301 -22 -5.5s-6 -11.167 -6 -22.5v-135c0 -11.333 2 -18.833 6 -22.5s11.333 -5.5 22 -5.5h30c10.667 0 18.167 1.83301 22.5 5.5s6.5 11.167 6.5 22.5z" />
    <glyph glyph-name="uni0915094D0937094D" horiz-adv-x="482" 
d="M515 280l-345 0.000976562c-11.333 0 -19 -1.83301 -23 -5.5s-6 -10.834 -6 -21.501v-99c0 -11.333 2 -18.833 6 -22.5s11.667 -5.5 23 -5.5h73c12 0 20.667 2.5 26 7.5s8 13.5 8 25.5v51h114v-237h-114v86c-7.33301 -10 -22 -15 -44 -15h-114
c-60.667 0 -91 30.667 -91 92v132c0 52.667 21.333 83.334 64 92.001c-8.66699 8 -13 20.333 -13 37v139c0 35.333 9 60.833 27 76.5s47.333 23.5 88 23.5h84c40.667 0 70 -7.83301 88 -23.5s27 -41.167 27 -76.5v-148c0 -10.667 -2.66699 -19.334 -8 -26.001h130v-82z
M193 525.001v-135c0 -11.333 2 -18.833 6 -22.5s11.333 -5.5 22 -5.5h30c10.667 0 18.167 1.83301 22.5 5.5s6.5 11.167 6.5 22.5v135c0 11.333 -2.16699 18.833 -6.5 22.5s-11.833 5.5 -22.5 5.5h-30c-10.667 0 -18 -1.83301 -22 -5.5s-6 -11.167 -6 -22.5z" />
    <glyph glyph-name="uni0915094D0937094D092E" horiz-adv-x="1066" 
d="M1086 631v-82.999h-68v-548h-114v349h-97v-154c0 -35.333 -9 -60.833 -27 -76.5s-47.333 -23.5 -88 -23.5h-88c-41.333 0 -70.833 7.83301 -88.5 23.5s-26.5 41.167 -26.5 76.5v85h-319c-11.333 0 -19 -1.83301 -23 -5.5s-6 -10.834 -6 -21.501v-99
c0 -11.333 2 -18.833 6 -22.5s11.667 -5.5 23 -5.5h73c12 0 20.667 2.5 26 7.5s8 13.5 8 25.5v51h114v-237h-114v86c-7.33301 -10 -22 -15 -44 -15h-114c-60.667 0 -91 30.667 -91 92v132c0 52.667 21.333 83.334 64 92.001c-8.66699 8 -13 20.333 -13 37v139
c0 35.333 9 60.833 27 76.5s47.333 23.5 88 23.5h84c40.667 0 70 -7.83301 88 -23.5s27 -41.167 27 -76.5v-148c0 -10.667 -2.66699 -19.334 -8 -26.001h105c6.66699 46.667 41.667 70 105 70h98v116h-257v83h650zM280 390.001v135c0 11.333 -2.16699 18.833 -6.5 22.5
s-11.833 5.5 -22.5 5.5h-30c-10.667 0 -18 -1.83301 -22 -5.5s-6 -11.167 -6 -22.5v-135c0 -11.333 2 -18.833 6 -22.5s11.333 -5.5 22 -5.5h30c10.667 0 18.167 1.83301 22.5 5.5s6.5 11.167 6.5 22.5zM693 205.001v144h-71c-10.667 0 -18 -1.83301 -22 -5.5
s-6 -10.5 -6 -20.5v-118c0 -10.667 2.16699 -17.834 6.5 -21.501s11.833 -5.5 22.5 -5.5h42c10.667 0 18 1.83301 22 5.5s6 10.834 6 21.501zM904 432.001v116h-97v-116h97z" />
    <glyph glyph-name="uni0915094D0937094D092E094D" horiz-adv-x="904" 
d="M955 548l-140 0.000976562v-116h140v-83h-140v-154c0 -35.333 -9 -60.833 -27 -76.5s-47.333 -23.5 -88 -23.5h-88c-41.333 0 -70.833 7.83301 -88.5 23.5s-26.5 41.167 -26.5 76.5v85h-327c-11.333 0 -19 -1.83301 -23 -5.5s-6 -10.834 -6 -21.501v-99
c0 -11.333 2 -18.833 6 -22.5s11.667 -5.5 23 -5.5h73c12 0 20.667 2.5 26 7.5s8 13.5 8 25.5v51h114v-237h-114v86c-7.33301 -10 -22 -15 -44 -15h-114c-60.667 0 -91 30.667 -91 92v132c0 52.667 21.333 83.334 64 92.001c-8.66699 8 -13 20.333 -13 37v139
c0 35.333 9 60.833 27 76.5s47.333 23.5 88 23.5h84c40.667 0 70 -7.83301 88 -23.5s27 -41.167 27 -76.5v-148c0 -10.667 -2.66699 -19.334 -8 -26.001h113c6.66699 46.667 41.667 70 105 70h98v116h-261v83h515v-83zM280 390.001v135c0 11.333 -2.16699 18.833 -6.5 22.5
s-11.833 5.5 -22.5 5.5h-30c-10.667 0 -18 -1.83301 -22 -5.5s-6 -11.167 -6 -22.5v-135c0 -11.333 2 -18.833 6 -22.5s11.333 -5.5 22 -5.5h30c10.667 0 18.167 1.83301 22.5 5.5s6.5 11.167 6.5 22.5zM701 205.001v144h-71c-10.667 0 -18 -1.83301 -22 -5.5
s-6 -10.5 -6 -20.5v-118c0 -10.667 2.16699 -17.834 6.5 -21.501s11.833 -5.5 22.5 -5.5h42c10.667 0 18 1.83301 22 5.5s6 10.834 6 21.501z" />
    <glyph glyph-name="uni0915094D0937094D092E094D092F" horiz-adv-x="1357" 
d="M1377 631v-82.999h-68v-548h-114v90c-8 -8 -21 -12 -39 -12h-163c-39.333 0 -68.333 8 -87 24s-28 41.333 -28 76v173h-81v-173c0 -35.333 -9 -60.833 -27 -76.5s-47.667 -23.5 -89 -23.5h-77c-41.333 0 -70.833 7.83301 -88.5 23.5s-26.5 41.167 -26.5 76.5v102h-319
c-11.333 0 -19 -1.83301 -23 -5.5s-6 -10.834 -6 -21.501v-99c0 -11.333 2 -18.833 6 -22.5s11.667 -5.5 23 -5.5h73c12 0 20.667 2.5 26 7.5s8 13.5 8 25.5v51h114v-237h-114v86c-7.33301 -10 -22 -15 -44 -15h-114c-60.667 0 -91 30.667 -91 92v132
c0 52.667 21.333 83.334 64 92.001c-8.66699 8 -13 20.333 -13 37v139c0 35.333 9 60.833 27 76.5s47.333 23.5 88 23.5h84c40.667 0 70 -7.83301 88 -23.5s27 -41.167 27 -76.5v-148c0 -10.667 -2.66699 -19.334 -8 -26.001h105c6 48 41 72 105 72h88v114h-247v83h941z
M280 390.001v135c0 11.333 -2.16699 18.833 -6.5 22.5s-11.833 5.5 -22.5 5.5h-30c-10.667 0 -18 -1.83301 -22 -5.5s-6 -11.167 -6 -22.5v-135c0 -11.333 2 -18.833 6 -22.5s11.333 -5.5 22 -5.5h30c10.667 0 18.167 1.83301 22.5 5.5s6.5 11.167 6.5 22.5zM683 189.001
v162h-53c-10.667 0 -18 -1.83301 -22 -5.5s-6 -10.5 -6 -20.5v-136c0 -11.333 2 -18.833 6 -22.5s11.667 -5.5 23 -5.5h24c10.667 0 18 1.83301 22 5.5s6 11.167 6 22.5zM797 434.001h181c10.667 0 18 1.83301 22 5.5s6 10.5 6 20.5v55c0 14 -2.5 23 -7.5 27
s-16.167 6 -33.5 6h-168v-114zM1195 195.001l-0.000976562 353.001h-90c7.33301 -8.66699 11 -20 11 -34v-67c0 -32.667 -8 -56.834 -24 -72.501s-42.667 -23.5 -80 -23.5h-20v-162c0 -11.333 1.83301 -18.833 5.5 -22.5s10.834 -5.5 21.501 -5.5h142
c12.667 0 21.5 2.5 26.5 7.5s7.5 13.833 7.5 26.5z" />
    <glyph glyph-name="uni0915094D0937094D092F" horiz-adv-x="961" 
d="M981 631v-83.001h-68v-548h-113v91c-8 -8.66699 -21.333 -13 -40 -13h-162c-39.333 0 -68.333 8 -87 24s-28 41.333 -28 76v119h-313c-11.333 0 -19 -2.16699 -23 -6.5s-6 -13.5 -6 -27.5v-109c0 -11.333 2 -18.833 6 -22.5s11.667 -5.5 23 -5.5h73
c12 0 20.667 2.5 26 7.5s8 13.5 8 25.5v51h114v-237h-114v86c-7.33301 -10 -22 -15 -44 -15h-114c-60.667 0 -91 30.667 -91 92v143c0 56.667 21.333 89.334 64 98.001c-8.66699 8 -13 20.333 -13 37v122c0 35.333 9 60.833 27 76.5s47.333 23.5 88 23.5h84
c40.667 0 70 -7.83301 88 -23.5s27 -41.167 27 -76.5v-132c0 -10 -2.33301 -18.333 -7 -25h196c11.333 0 18.833 1.66699 22.5 5s5.5 10.333 5.5 21v110c0 14 -2.5 23 -7.5 27s-16.167 6 -33.5 6h-111v83h523zM280 406.999v118c0 11.333 -2.16699 18.833 -6.5 22.5
s-11.833 5.5 -22.5 5.5h-30c-10.667 0 -18 -1.83301 -22 -5.5s-6 -11.167 -6 -22.5v-118c0 -11.333 2 -18.833 6 -22.5s11.333 -5.5 22 -5.5h30c10.667 0 18.167 1.83301 22.5 5.5s6.5 11.167 6.5 22.5zM800 194.999v353h-91c7.33301 -8.66699 11 -20 11 -34v-122
c0 -32 -8 -56 -24 -72s-42.667 -24 -80 -24h-20v-107c0 -11.333 1.83301 -18.833 5.5 -22.5s11.167 -5.5 22.5 -5.5h142c13.333 0 22.333 2.5 27 7.5s7 13.833 7 26.5z" />
    <glyph glyph-name="uni0915094D0937094D0935" horiz-adv-x="857" 
d="M870 631v-82.999h-69v-548h-113v91c-8 -8.66699 -21.667 -13 -41 -13h-63c-67.333 0 -101 33.333 -101 100v102h-313c-11.333 0 -19 -1.83301 -23 -5.5s-6 -10.834 -6 -21.501v-99c0 -11.333 2 -18.833 6 -22.5s11.667 -5.5 23 -5.5h73c12 0 20.667 2.5 26 7.5
s8 13.5 8 25.5v51h114v-237h-114v86c-7.33301 -10 -22 -15 -44 -15h-114c-60.667 0 -91 30.667 -91 92v132c0 52.667 21.333 83.334 64 92.001c-8.66699 8 -13 20.333 -13 37v139c0 35.333 9 60.833 27 76.5s47.333 23.5 88 23.5h84c40.667 0 70 -7.83301 88 -23.5
s27 -41.167 27 -76.5v-148c0 -10.667 -2.66699 -19.334 -8 -26.001h98v26c0 31.333 8 54.333 24 69s43 22 81 22h59v-78h-23c-11.333 0 -18.833 -1.66699 -22.5 -5s-5.5 -10.333 -5.5 -21v-186c0 -11.333 1.83301 -18.833 5.5 -22.5s11.167 -5.5 22.5 -5.5h35
c10.667 0 18.167 2 22.5 6s6.5 11.667 6.5 23v358h-230v83h412zM280 390.001v135c0 11.333 -2.16699 18.833 -6.5 22.5s-11.833 5.5 -22.5 5.5h-30c-10.667 0 -18 -1.83301 -22 -5.5s-6 -11.167 -6 -22.5v-135c0 -11.333 2 -18.833 6 -22.5s11.333 -5.5 22 -5.5h30
c10.667 0 18.167 1.83301 22.5 5.5s6.5 11.167 6.5 22.5z" />
    <glyph glyph-name="uni091C094D091E" horiz-adv-x="592" 
d="M612 631v-83.001h-69v-548h-114v383h-85c4.66699 -5.33301 7 -13.666 7 -24.999v-223c0 -31.333 -8.16699 -54.333 -24.5 -69s-43.5 -22 -81.5 -22h-87v-71h-114v223h114v-74h52c10.667 0 17.834 1.66699 21.501 5s5.5 10.333 5.5 21v209
c0 10.667 -1.83301 17.667 -5.5 21s-10.834 5 -21.501 5h-142v83h361v82h-449v83h632z" />
    <glyph glyph-name="uni091C094D091E094D" horiz-adv-x="381" 
d="M-20 631h501v-83h-501v83zM68 383v82.999h413v-83h-137c4.66699 -5.33301 7 -13.666 7 -24.999v-223c0 -31.333 -8.16699 -54.333 -24.5 -69s-43.5 -22 -81.5 -22h-87v-71h-114v223h114v-74h52c10.667 0 17.834 1.66699 21.501 5s5.5 10.333 5.5 21v209
c0 10.667 -1.83301 17.667 -5.5 21s-10.834 5 -21.501 5h-142z" />
    <glyph glyph-name="uni091C094D091E094D092F" horiz-adv-x="904" 
d="M924 631v-83.001h-68v-548h-114v90c-8 -8 -21 -12 -39 -12h-163c-39.333 0 -68.333 8 -87 24s-28 41.333 -28 76v156h-81c4.66699 -5.33301 7 -13.666 7 -24.999v-174c0 -31.333 -8.16699 -54.333 -24.5 -69s-43.5 -22 -81.5 -22h-87v-71h-114v223h114v-74h52
c10.667 0 17.834 1.66699 21.501 5s5.5 10.333 5.5 21v160c0 10.667 -1.83301 17.667 -5.5 21s-10.834 5 -21.501 5h-142v83h457c10.667 0 18 1.83301 22 5.5s6 10.5 6 20.5v72c0 14 -2.5 23 -7.5 27s-16.167 6 -33.5 6h-532v83h944zM742 194.999l-0.000976562 353h-90
c7.33301 -8.66699 11 -20 11 -34v-84c0 -32 -7.83301 -56 -23.5 -72s-42.5 -24 -80.5 -24h-20v-145c0 -11.333 1.83301 -18.833 5.5 -22.5s10.834 -5.5 21.501 -5.5h142c13.333 0 22.333 2.5 27 7.5s7 13.833 7 26.5z" />
    </font>
</defs>
</svg>
